<svg  xmlns="http://www.w3.org/2000/svg">
<symbol id="search" viewBox="0 0 14 14">
<g>
<path d="M13.8399 12.345L9.60786 8.11308C9.50529 8.01052 9.36622 7.9529 9.22117 7.9529C9.08844 7.9529 8.9611 8.0016 8.86176 8.08836L8.26465 7.49126C9.69126 5.68663 9.58741 3.04317 7.90063 1.35636C7.90063 1.35636 7.90063 1.35636 7.9006 1.35636C6.09638 -0.447861 3.16067 -0.447916 1.35637 1.35636C-0.451985 3.16474 -0.452259 6.09194 1.35637 7.90059C3.01925 9.56345 5.66426 9.70452 7.49096 8.26429L8.08845 8.86178C7.90055 9.07657 7.90837 9.40305 8.11314 9.6078L12.3451 13.8398C12.5586 14.0532 12.905 14.0533 13.1185 13.8398L13.4791 13.4792C13.4791 13.4792 13.4792 13.4791 13.4792 13.4791C13.4792 13.4791 13.4792 13.4791 13.4792 13.479L13.8398 13.1184C14.0534 12.9049 14.0534 12.5586 13.8399 12.345ZM7.12726 7.1272C5.74627 8.5082 3.51094 8.50836 2.12976 7.1272C0.748788 5.74629 0.748542 3.51086 2.12976 2.12967C3.50753 0.7519 5.74941 0.751818 7.12726 2.12967C8.50823 3.51061 8.50851 5.74604 7.12726 7.1272Z" />
</g>
</symbol>
<symbol id="arrow" viewBox="0 0 12 8">
<g>
<path fill-rule="evenodd" clip-rule="evenodd" d="M5.92808 4.89529L10.195 0.791786L11.5738 2.23238L5.92808 7.64551L0.296875 2.23238L1.67565 0.791787L5.92808 4.89529Z" />
</g>
</symbol>
<symbol id="cabinet" viewBox="0 0 20 20">
<g>
<path d="M10.1672 11.0625C11.1623 11.0625 12.1351 10.7674 12.9624 10.2146C13.7898 9.66174 14.4347 8.87597 14.8155 7.95663C15.1963 7.03729 15.2959 6.02567 15.1018 5.0497C14.9077 4.07374 14.4285 3.17725 13.7249 2.47362C13.0212 1.76999 12.1248 1.29081 11.1488 1.09668C10.1728 0.902544 9.1612 1.00218 8.24186 1.38298C7.32252 1.76379 6.53675 2.40865 5.9839 3.23604C5.43106 4.06342 5.13599 5.03616 5.13599 6.03125C5.13754 7.36515 5.66811 8.64396 6.61132 9.58717C7.55452 10.5304 8.83334 11.061 10.1672 11.0625ZM10.1672 3.09375C10.7481 3.09375 11.316 3.26601 11.799 3.58874C12.282 3.91148 12.6585 4.37019 12.8808 4.90688C13.1031 5.44356 13.1612 6.03412 13.0479 6.60386C12.9346 7.17361 12.6548 7.69695 12.2441 8.10771C11.8333 8.51847 11.31 8.79821 10.7402 8.91153C10.1705 9.02486 9.57994 8.9667 9.04325 8.7444C8.50657 8.52209 8.04785 8.14564 7.72512 7.66263C7.40239 7.17963 7.23013 6.61177 7.23013 6.03086C7.23106 5.25221 7.54081 4.50573 8.09144 3.95518C8.64206 3.40463 9.38859 3.09497 10.1672 3.09414V3.09375Z" />
<path d="M3.09456 21C3.09456 17.1 6.26722 13.9273 10.1672 13.9273C14.0672 13.9273 17.2399 17.1 17.2399 21H19.334C19.3339 19.187 18.7962 17.4148 17.7889 15.9074C16.7816 14.4 15.35 13.2251 13.675 12.5313C12 11.8375 10.1569 11.656 8.37879 12.0096C6.60064 12.3632 4.96726 13.2361 3.68519 14.518C2.83125 15.3672 2.15424 16.3774 1.69333 17.49C1.23242 18.6027 0.996776 19.7957 1.00003 21H3.09456Z"  />
</g>
</symbol>
<symbol id="favorites" viewBox="0 0 17 23">
<g>
<path d="M2.61108 15.4746V2L15.1933 8.73728L2.61108 15.4746ZM3.91742 4.18048V13.2941L12.426 8.73728L3.91742 4.18048Z"   />
<path d="M3.91742 3.07935H2.61108V21.6634H3.91742V3.07935Z"   />
<path d="M5.4851 21.0105H1V22.3162H5.4851V21.0105Z"   />
</g>
</symbol>

<symbol id="comparison" viewBox="0 0 17 20">
<g>
<line x1="1.5" y1="20" x2="1.5" y2="6.55671e-08"  stroke-width="3"/>
<line x1="8.5" y1="20" x2="8.5" y2="8"  stroke-width="3"/>
<line x1="15.5" y1="20" x2="15.5" y2="4"  stroke-width="3"/>
</g>
</symbol>
<symbol id="basket" viewBox="0 0 23 22">
<g>
<path d="M9.14053 21.4C9.6959 21.4 10.2388 21.2353 10.7006 20.9267C11.1624 20.6182 11.5223 20.1796 11.7348 19.6665C11.9473 19.1534 12.0029 18.5888 11.8946 18.0441C11.7862 17.4994 11.5188 16.9991 11.1261 16.6064C10.7334 16.2137 10.233 15.9462 9.68835 15.8379C9.14365 15.7295 8.57905 15.7852 8.06595 15.9977C7.55286 16.2102 7.1143 16.5701 6.80576 17.0319C6.49721 17.4937 6.33252 18.0366 6.33252 18.5919C6.33386 19.3363 6.63013 20.0497 7.15644 20.576C7.68276 21.1024 8.39621 21.3986 9.14053 21.4ZM9.14053 17.8052C9.29564 17.8052 9.44726 17.8512 9.57622 17.9374C9.70519 18.0235 9.8057 18.146 9.86506 18.2893C9.92441 18.4326 9.93994 18.5903 9.90968 18.7424C9.87942 18.8945 9.80473 19.0343 9.69506 19.1439C9.58538 19.2536 9.44565 19.3283 9.29353 19.3586C9.1414 19.3888 8.98372 19.3733 8.84042 19.3139C8.69713 19.2546 8.57465 19.1541 8.48848 19.0251C8.40231 18.8961 8.35631 18.7445 8.35631 18.5894C8.35698 18.3816 8.43982 18.1826 8.58674 18.0356C8.73367 17.8887 8.93275 17.8059 9.14053 17.8052Z" />
<path d="M21.1114 18.5919C21.1114 18.0366 20.9467 17.4937 20.6382 17.0319C20.3296 16.5701 19.8911 16.2102 19.378 15.9977C18.8649 15.7852 18.3003 15.7295 17.7556 15.8379C17.2109 15.9462 16.7105 16.2137 16.3178 16.6064C15.9251 16.9991 15.6577 17.4994 15.5493 18.0441C15.441 18.5888 15.4966 19.1534 15.7091 19.6665C15.9216 20.1796 16.2816 20.6182 16.7433 20.9267C17.2051 21.2353 17.748 21.4 18.3034 21.4C19.0477 21.3986 19.7611 21.1024 20.2875 20.576C20.8138 20.0497 21.1101 19.3363 21.1114 18.5919ZM17.5166 18.5919C17.5166 18.4368 17.5626 18.2852 17.6488 18.1563C17.735 18.0273 17.8574 17.9268 18.0007 17.8674C18.144 17.8081 18.3017 17.7925 18.4538 17.8228C18.606 17.8531 18.7457 17.9277 18.8554 18.0374C18.965 18.1471 19.0397 18.2868 19.07 18.439C19.1003 18.5911 19.0847 18.7488 19.0254 18.8921C18.966 19.0354 18.8655 19.1578 18.7365 19.244C18.6076 19.3302 18.4559 19.3762 18.3008 19.3762C18.0948 19.3729 17.8983 19.2889 17.7536 19.1422C17.6088 18.9956 17.5274 18.798 17.5267 18.5919H17.5166Z" />
<path d="M5.44563 0H0.988281V2.36464H3.54505L6.33237 15.1101H21.6198L22.3174 4.89777H6.52155L5.44563 0ZM19.7872 7.26241L19.4118 12.7454H8.24478L7.03881 7.26241H19.7872Z" />
</g>
</symbol>


<symbol id="marker" viewBox="0 0 10 14">
<g>
<path d="M0.804665 8.12956L4.87935 13.9999L8.95403 8.12956C9.43862 7.43122 9.71503 6.62136 9.75394 5.78592C9.79284 4.95049 9.59279 4.12064 9.175 3.38442C8.75722 2.64821 8.13729 2.03309 7.38099 1.60435C6.62469 1.1756 5.76023 0.949219 4.87935 0.949219C3.99847 0.949219 3.13401 1.1756 2.37771 1.60435C1.62142 2.03309 1.00148 2.64821 0.583698 3.38442C0.165912 4.12064 -0.034142 4.95049 0.00476186 5.78592C0.0436657 6.62136 0.320077 7.43122 0.804665 8.12956ZM2.30972 3.13986C2.9466 2.53892 3.79528 2.18309 4.69214 2.14098C5.589 2.09887 6.47053 2.37346 7.16677 2.91181C7.863 3.45016 8.32464 4.21414 8.46269 5.05647C8.60073 5.8988 8.4054 6.75982 7.91435 7.47353L4.87935 11.8515L1.84435 7.47353C1.38771 6.80972 1.18479 6.01728 1.26949 5.22854C1.35419 4.43981 1.72137 3.70254 2.30972 3.13986Z" />
<path d="M4.87951 7.95679C5.38213 7.95679 5.87346 7.81532 6.2914 7.55026C6.70933 7.2852 7.0351 6.90845 7.22751 6.46765C7.41993 6.02684 7.47035 5.54177 7.37241 5.07377C7.27446 4.60576 7.03255 4.17583 6.67726 3.83833C6.32196 3.50083 5.86923 3.27091 5.37631 3.17765C4.88339 3.08438 4.3724 3.13195 3.90795 3.31435C3.44351 3.49674 3.04645 3.80577 2.76699 4.20237C2.48752 4.59897 2.3382 5.06532 2.33789 5.54247C2.3383 6.18241 2.60616 6.79605 3.08267 7.2487C3.55919 7.70135 4.20541 7.95601 4.87951 7.95679ZM4.87951 4.31167C5.13593 4.31167 5.3866 4.38385 5.5998 4.5191C5.81301 4.65434 5.97918 4.84656 6.07731 5.07146C6.17544 5.29636 6.20111 5.54384 6.15109 5.78259C6.10106 6.02134 5.97759 6.24065 5.79627 6.41278C5.61495 6.58491 5.38394 6.70213 5.13244 6.74962C4.88095 6.79711 4.62027 6.77274 4.38337 6.67958C4.14646 6.58643 3.94398 6.42867 3.80152 6.22627C3.65906 6.02386 3.58302 5.7859 3.58302 5.54247C3.58343 5.21616 3.72016 4.90333 3.96321 4.67259C4.20626 4.44186 4.53579 4.31206 4.87951 4.31167Z" />
</g>
</symbol>
<symbol id="menu-1" viewBox="0 0 35 24">
<g>
<path d="M33.0088 9.63832V2.74876C33.0088 2.11459 32.5056 1.6005 31.8849 1.6005H25.7035C25.6956 1.6005 25.6895 1.60452 25.6822 1.60509C25.6182 1.60593 25.5549 1.61817 25.495 1.64126L25.4849 1.64528L23.0393 2.64541C22.6111 2.81803 22.3303 3.24124 22.3318 3.71157V3.89702H19.5221C19.2118 3.89702 18.9602 4.15407 18.9602 4.47115C18.9602 4.78823 19.2118 5.04528 19.5221 5.04528H22.3318V5.23072C22.3303 5.70086 22.6109 6.12395 23.0388 6.29688L25.1416 7.15636V9.63832H19.5221C19.5221 9.32124 19.2705 9.06419 18.9602 9.06419H17.8363V5.61941C17.8363 5.30233 17.5847 5.04528 17.2743 5.04528H13.9027C13.5923 5.04528 13.3407 5.30233 13.3407 5.61941V9.06419H12.2168C11.9065 9.06419 11.6549 9.32124 11.6549 9.63832H7.72129V7.91593H8.84518C9.15554 7.91593 9.40713 7.65888 9.40713 7.3418H10.531C11.1517 7.3418 11.6549 6.82771 11.6549 6.19354V2.74876C11.6549 2.11459 11.1517 1.6005 10.531 1.6005H9.40713C9.40713 1.28341 9.15554 1.02637 8.84518 1.02637H1.5399C0.919198 1.02637 0.416016 1.54046 0.416016 2.17463V13.6572C0.416016 13.671 0.422759 13.6831 0.423883 13.6968C0.425007 13.7106 0.419387 13.7204 0.421073 13.733L1.48034 21.8461C1.55443 22.4167 2.03067 22.8431 2.59411 22.8433H6.5974C7.21811 22.8433 7.72129 22.3292 7.72129 21.6951H25.1416C25.1416 22.3292 25.6448 22.8433 26.2655 22.8433H31.9546C32.5178 22.8432 32.994 22.4171 33.0684 21.8466L34.1276 13.733C34.1276 13.7204 34.1243 13.7089 34.1248 13.6968C34.1254 13.6848 34.1327 13.671 34.1327 13.6572V10.7866C34.1327 10.1524 33.6295 9.63832 33.0088 9.63832ZM23.4557 5.23015V3.71215L25.1416 3.02319V5.91911L23.4557 5.23015ZM26.2655 6.76767V2.74876H31.8849V9.63832H26.2655V6.76767ZM25.7035 10.7866H33.0088V13.0831H19.5221V10.7866H25.7035ZM25.1416 15.9538H7.72129V14.2314H11.6549C11.6549 14.5484 11.9065 14.8055 12.2168 14.8055H18.9602C19.2705 14.8055 19.5221 14.5484 19.5221 14.2314H25.1416V15.9538ZM14.4646 6.19354H16.7124V9.06419H14.4646V6.19354ZM13.9027 10.2125H18.3982V13.6572H12.7788V10.2125H13.9027ZM11.6549 10.7866V13.0831H7.72129V10.7866H11.6549ZM10.531 2.74876V6.19354H9.40713V2.74876H10.531ZM1.5399 2.17463H8.28324V6.76767H3.22574C2.91538 6.76767 2.66379 7.02472 2.66379 7.3418C2.66379 7.65888 2.91538 7.91593 3.22574 7.91593H6.5974V13.0831H1.5399V2.17463ZM6.5974 21.6951H2.59411L1.62026 14.2314H6.5974V21.6951ZM7.72129 20.5468V17.102H25.1416V20.5468H7.72129ZM31.9551 21.6951H26.2655V14.2314H32.9284L31.9551 21.6951Z"   />
<path d="M23.4557 18.2502H12.7787C12.4684 18.2502 12.2168 18.5074 12.2168 18.8247C12.2168 19.142 12.4684 19.3992 12.7787 19.3992H23.4557C23.766 19.3992 24.0176 19.142 24.0176 18.8247C24.0176 18.5074 23.766 18.2502 23.4557 18.2502Z"   />
<path d="M10.531 18.2502H9.40716C9.09681 18.2502 8.84521 18.5074 8.84521 18.8247C8.84521 19.142 9.09681 19.3992 9.40716 19.3992H10.531C10.8414 19.3992 11.093 19.142 11.093 18.8247C11.093 18.5074 10.8414 18.2502 10.531 18.2502Z"   />
<path d="M14.4645 12.5098H16.7123C17.0227 12.5098 17.2743 12.2526 17.2743 11.9353C17.2743 11.618 17.0227 11.3608 16.7123 11.3608H14.4645C14.1542 11.3608 13.9026 11.618 13.9026 11.9353C13.9026 12.2526 14.1542 12.5098 14.4645 12.5098Z"   />
</g>
</symbol>
<symbol id="menu-2" viewBox="0 0 31 28">
<g>
<path d="M21.56 27.3689H3.38151C3.03923 27.3689 2.76172 27.0902 2.76172 26.7464V24.7456C2.76172 22.9756 4.19529 21.5356 5.95752 21.5356H19.0809C20.7895 21.5356 22.1798 22.9321 22.1798 24.6484V26.7464C22.1798 27.0902 21.9023 27.3689 21.56 27.3689ZM4.0013 26.1239H20.9403V24.6484C20.9403 23.6185 20.1062 22.7807 19.0809 22.7807H5.95752C4.87894 22.7807 4.0013 23.6623 4.0013 24.7456V26.1239Z"   />
<path d="M9.44981 22.7809C9.23555 22.7809 9.02733 22.6693 8.91233 22.4696L1.68547 9.89418C1.51479 9.59689 1.61556 9.21723 1.91093 9.04457L1.98538 9.0011C2.28105 8.82784 2.66025 8.92936 2.83275 9.22665C2.89086 9.32727 2.91779 9.43731 2.91658 9.54583L9.98607 21.8471C10.1571 22.145 10.0554 22.5256 9.7591 22.6976C9.66135 22.7541 9.55482 22.7809 9.44981 22.7809Z"   />
<path d="M16.5281 22.7809C16.3139 22.7809 16.1056 22.6693 15.9909 22.4696L8.38003 9.23421C8.20874 8.93662 8.31012 8.55574 8.6067 8.38399C8.90238 8.21073 9.28218 8.31378 9.45317 8.61167L17.0641 21.8471C17.2354 22.1446 17.134 22.5255 16.8374 22.6973C16.74 22.7541 16.6331 22.7809 16.5281 22.7809Z"   />
<path d="M5.03642 11.2585C3.85252 11.2585 2.72824 10.8089 1.87058 9.99212C0.938472 9.13005 0.400391 7.89439 0.400391 6.60828C0.400391 4.04394 2.48008 1.95776 5.03642 1.95776C6.72935 1.95776 8.2867 2.8858 9.10078 4.37953C9.4703 5.04949 9.6664 5.82098 9.6664 6.60828C9.6664 7.35119 9.49935 8.05276 9.16948 8.69324C9.06084 8.9194 8.93766 9.12397 8.80057 9.30332C7.95532 10.5192 6.54202 11.2585 5.03642 11.2585ZM5.03642 3.20284C3.16373 3.20284 1.63998 4.73062 1.63998 6.60828C1.63998 7.54756 2.03249 8.44915 2.71705 9.08263C3.34985 9.68511 4.1712 10.0134 5.03642 10.0134C6.13771 10.0134 7.1712 9.47294 7.80098 8.56739C7.90387 8.43213 7.98104 8.30233 8.06094 8.13636C8.30637 7.65942 8.42682 7.15026 8.42682 6.60828C8.42682 6.03163 8.28428 5.46867 8.01494 4.98019C7.41693 3.88284 6.27631 3.20284 5.03642 3.20284Z"   />
<path d="M14.8537 5.30096H8.5568C8.21453 5.30096 7.93701 5.02206 7.93701 4.67807C7.93701 4.33408 8.21453 4.05518 8.5568 4.05518H14.8537C15.196 4.05518 15.4735 4.33408 15.4735 4.67807C15.4735 5.02206 15.196 5.30096 14.8537 5.30096Z"   />
<path d="M14.8539 9.54633H8.91654C8.57427 9.54633 8.29675 9.26742 8.29675 8.92343C8.29675 8.57944 8.57427 8.30054 8.91654 8.30054H14.8539C15.1962 8.30054 15.4737 8.57944 15.4737 8.92343C15.4737 9.26742 15.1962 9.54633 14.8539 9.54633Z"   />
<path d="M18.4365 10.8653H15.4985C14.8013 10.8653 14.2341 10.2957 14.2341 9.59532V3.96145C14.2341 3.25775 14.8013 2.68506 15.4985 2.68506H18.4365C18.6726 2.68506 18.9041 2.75254 19.1065 2.87991C19.4794 3.1167 19.7009 3.52069 19.7009 3.96145V9.59532C19.7009 9.84883 19.6268 10.0911 19.4869 10.2963C19.2727 10.6437 18.8744 10.8653 18.4365 10.8653ZM15.4985 3.93014L15.4737 9.59532L18.4365 9.62025L18.4613 3.96145C18.4613 3.94777 18.4607 3.9426 18.4459 3.93348L15.4985 3.93014Z"   />
<path d="M29.4934 4.49765C29.4205 4.49765 29.3464 4.48458 29.2743 4.45722L22.5541 1.90376L19.0908 3.94464C18.796 4.11823 18.4156 4.01912 18.2428 3.7227C18.0694 3.42629 18.1683 3.04474 18.4637 2.87084L22.1824 0.679168C22.3444 0.583706 22.5402 0.567897 22.7151 0.633565L29.7125 3.29221C30.0327 3.41413 30.1943 3.77348 30.0733 4.09482C29.9795 4.34412 29.7437 4.49735 29.4934 4.49765Z"   />
<path d="M22.5704 12.6212C22.4641 12.6212 22.3585 12.5938 22.2638 12.5397L18.6691 10.4852C18.3716 10.3152 18.2678 9.9349 18.437 9.63605C18.6059 9.33751 18.9845 9.23292 19.2823 9.40287L22.62 11.3106L29.3048 8.68569C29.625 8.55983 29.983 8.71913 30.1077 9.03866C30.2324 9.35909 30.075 9.72026 29.7564 9.84522L22.7961 12.5783C22.7232 12.6069 22.6466 12.6212 22.5704 12.6212Z"   />
<path d="M5.03325 8.80461C3.82696 8.80461 2.84583 7.81912 2.84583 6.60778C2.84583 5.39613 3.82696 4.41064 5.03325 4.41064C6.23924 4.41064 7.22038 5.39613 7.22038 6.60778C7.22038 7.81912 6.23924 8.80461 5.03325 8.80461ZM5.03325 5.65573C4.51061 5.65573 4.08541 6.08281 4.08541 6.60778C4.08541 7.13244 4.51061 7.55953 5.03325 7.55953C5.55559 7.55953 5.98079 7.13244 5.98079 6.60778C5.98079 6.08281 5.55559 5.65573 5.03325 5.65573Z"   />
</g>
</symbol>
<symbol id="menu-3" viewBox="0 0 30 31">
<g>
<path d="M4.53038 6.91273H7.57991V8.77565H6.3129C6.06136 8.77565 5.85782 8.97854 5.85782 9.22877V12.444C5.85782 12.6942 6.06136 12.8971 6.3129 12.8971H8.34874V14.7673C8.34874 15.0175 8.55228 15.2204 8.80381 15.2204H11.0414V20.1184C11.0414 20.2428 11.0925 20.3616 11.1832 20.4472L14.8193 23.8808V27.7177H15.7295V23.8808L19.3652 20.4472C19.4558 20.3616 19.507 20.2428 19.507 20.1184V15.2204H21.7446C21.9961 15.2204 22.1996 15.0175 22.1996 14.7673V12.8971H24.2359C24.4874 12.8971 24.691 12.6942 24.691 12.444V9.22877C24.691 8.97854 24.4874 8.77565 24.2359 8.77565H22.9689V6.91273H26.0184C26.1873 6.91273 26.342 6.81981 26.4206 6.67135L29.112 1.60121L28.3076 1.17773L25.7442 6.0065C20.7477 6.0065 9.46455 6.0065 4.80458 6.0065L2.24078 1.17773L1.4364 1.60121L4.12819 6.67135C4.20685 6.81981 4.3615 6.91273 4.53038 6.91273ZM6.76797 9.68189C6.88738 9.68189 8.61012 9.68189 8.56339 9.68189V11.9908H6.76797V9.68189ZM21.0748 11.9908H19.483V9.68189H21.0748V11.9908ZM18.5728 11.9908H16.9805V9.68189H18.5728V11.9908ZM16.0703 11.9908H14.478V9.68189H16.0703V11.9908ZM13.5679 11.9908H11.976V9.68189H13.5679V11.9908ZM11.0659 11.9908H9.47353V9.68189H11.0659V11.9908ZM18.5968 19.9237L15.2744 23.0613L11.9516 19.9237V15.2204H18.5968V19.9237ZM21.2895 14.3142C17.6868 14.3142 12.8517 14.3142 9.25889 14.3142V12.8971H21.2895V14.3142ZM23.7808 11.9908H21.985V9.68189C22.6334 9.68189 23.8276 9.68189 23.7808 9.68189V11.9908ZM22.0587 6.91273V8.77565H8.49006V6.91273H22.0587Z"   stroke-width="0.8"/>
<path d="M29.1573 29.0298H1.39062V29.9366H29.1573V29.0298Z"   stroke-width="0.8"/>
</g>
</symbol>
<symbol id="menu-4" viewBox="0 0 31 27">
<g>
<path d="M29.6412 6.91824H0.909627C0.628407 6.91824 0.400391 6.68465 0.400391 6.39654V1.25022C0.400391 0.962112 0.628407 0.728516 0.909627 0.728516H29.6412C29.9224 0.728516 30.1504 0.962115 30.1504 1.25022V6.39654C30.1504 6.68465 29.9224 6.91824 29.6412 6.91824ZM1.41886 5.87484H29.1319V1.77192H1.41886V5.87484Z"   stroke-width="0.8"/>
<path d="M27.8932 26.5121H2.65767C2.37645 26.5121 2.14844 26.2785 2.14844 25.9904V6.39646C2.14844 6.10835 2.37645 5.87476 2.65767 5.87476H27.8932C28.1745 5.87476 28.4025 6.10835 28.4025 6.39646V25.9904C28.4025 26.2786 28.1745 26.5121 27.8932 26.5121ZM3.16691 25.4687H27.384V6.91816H3.16691V25.4687Z"   stroke-width="0.8"/>
<path d="M19.0851 12.9509H11.4653C10.4079 12.9509 9.54761 12.0773 9.54761 11.0036C9.54761 9.92999 10.4079 9.0564 11.4653 9.0564H19.0851C20.1334 9.0564 20.9859 9.92999 20.9859 11.0036C20.9859 12.0773 20.1334 12.9509 19.0851 12.9509ZM11.4653 10.0998C10.9695 10.0998 10.5661 10.5053 10.5661 11.0036C10.5661 11.502 10.9695 11.9075 11.4653 11.9075H19.0851C19.5634 11.9075 19.9674 11.4936 19.9674 11.0036C19.9674 10.5137 19.5634 10.0998 19.0851 10.0998H11.4653Z"   stroke-width="0.8"/>
<path d="M21.4273 23.3306H9.12349C8.84227 23.3306 8.61426 23.097 8.61426 22.8089V16.6545C8.61426 16.3664 8.84227 16.1328 9.12349 16.1328H21.4273C21.7085 16.1328 21.9366 16.3664 21.9366 16.6545V22.8089C21.9366 23.097 21.7085 23.3306 21.4273 23.3306ZM9.63273 22.2872H20.9181V17.1762H9.63273V22.2872Z"   stroke-width="0.8"/>
</g>
</symbol>

<symbol id="menu-5" viewBox="0 0 33 33">
<g>
<path d="M3.59014 16.7541C3.57209 16.8044 3.5513 16.8542 3.52832 16.9024C3.21974 17.5415 2.47072 17.9382 1.74851 17.8047C1.07882 17.6805 0.518018 17.0966 0.423364 16.4192C0.351144 15.9043 0.54045 15.3604 0.916327 15.002C1.21451 14.7174 1.62048 14.5527 2.03849 14.5484C2.04505 14.5484 2.05216 14.5484 2.05928 14.5484C2.66167 14.5544 3.24381 14.915 3.51464 15.4518C3.54364 15.5081 3.5688 15.5667 3.59014 15.6263H10.2563V13.454H7.97373C7.95403 13.5103 7.9316 13.5651 7.90534 13.6187C7.59731 14.2583 6.84829 14.6551 6.12608 14.521C5.4564 14.3968 4.89559 13.8135 4.80039 13.1355C4.72872 12.6239 4.91529 12.0838 5.28679 11.7254C5.58607 11.4365 5.99313 11.269 6.41551 11.2652C6.42262 11.2652 6.42974 11.2652 6.43685 11.2652C7.05018 11.2712 7.64053 11.6455 7.90534 12.1949C7.9316 12.2485 7.95403 12.3032 7.97373 12.3596H10.2563V10.718C10.2657 10.6365 10.2755 10.5539 10.3105 10.4805C10.3641 10.3689 10.4566 10.2775 10.5666 10.225C10.6656 10.1769 10.6962 10.1829 10.8035 10.1708H12.4454V7.88632C11.889 7.68221 11.4496 7.16184 11.367 6.56868C11.2953 6.05815 11.4808 5.51753 11.8529 5.15857C12.1521 4.86965 12.5592 4.70221 12.9821 4.69838C12.9887 4.69838 12.9958 4.69838 13.0029 4.69838C13.6092 4.70386 14.194 5.06938 14.4627 5.61C14.6848 6.05596 14.6881 6.60315 14.472 7.05185C14.2865 7.43598 13.9418 7.73255 13.5397 7.8792V10.1708H15.7282V3.50989C15.7008 3.50004 15.6729 3.48964 15.6456 3.47815C15.122 3.26037 14.7291 2.75422 14.6498 2.19061C14.5787 1.68227 14.7619 1.14548 15.1291 0.787613C15.4289 0.494319 15.8409 0.324143 16.2649 0.320312C16.272 0.320312 16.2791 0.320312 16.2862 0.320312C16.8925 0.325784 17.4773 0.691855 17.746 1.23193C17.9676 1.67789 17.9714 2.22508 17.7547 2.67378C17.5704 3.05736 17.2246 3.34956 16.823 3.49511V10.1708H19.0115V7.88632C18.4551 7.68221 18.0163 7.16184 17.9331 6.56868C17.862 6.06034 18.0453 5.52355 18.4118 5.16514C18.7122 4.87239 19.1258 4.70221 19.5482 4.69838C19.5553 4.69838 19.5619 4.69838 19.569 4.69838C20.1752 4.70386 20.7601 5.06938 21.0293 5.61C21.2509 6.05596 21.2542 6.60315 21.0381 7.05185C20.8526 7.43598 20.5079 7.73255 20.1057 7.8792V10.1708H21.7471L21.8691 10.1845C21.9857 10.225 22.0995 10.2819 22.175 10.3766C22.2264 10.4411 22.2625 10.5161 22.2806 10.596C22.2899 10.6359 22.2899 10.6775 22.2948 10.718V12.3596H24.5807C24.6644 12.1238 24.7996 11.9071 24.9785 11.7325C25.2783 11.4392 25.6919 11.269 26.1143 11.2652C26.1214 11.2652 26.1285 11.2652 26.1356 11.2652C26.7413 11.2707 27.3262 11.6362 27.5954 12.1768C27.817 12.6228 27.8208 13.17 27.6041 13.6187C27.2961 14.2583 26.5465 14.6551 25.8249 14.521C25.2624 14.417 24.7777 13.9891 24.5796 13.454H22.2948V15.6263H28.9643C29.0513 15.3883 29.1919 15.1694 29.3768 14.9954C29.6756 14.7142 30.0799 14.5527 30.4919 14.5484C30.499 14.5484 30.5056 14.5484 30.5127 14.5484C31.126 14.5544 31.7169 14.9287 31.9817 15.4786C32.1945 15.9202 32.1951 16.4597 31.9817 16.9024C31.6731 17.5415 30.9241 17.9382 30.2025 17.8047C29.646 17.7013 29.1651 17.2816 28.9632 16.7541H22.2948V18.9264H24.5807C24.6666 18.6851 24.8067 18.4624 24.9921 18.2857C25.2909 18.0011 25.6963 17.8359 26.1143 17.8321C26.1214 17.8321 26.1285 17.8321 26.1351 17.8321C26.7451 17.8381 27.3328 18.208 27.5998 18.753C27.8175 19.1973 27.8186 19.7407 27.6041 20.1855C27.2961 20.8252 26.5465 21.2219 25.8249 21.0878C25.2624 20.9839 24.7777 20.556 24.5796 20.0208H22.2948V21.6629C22.2806 21.7855 22.2505 21.9092 22.175 22.0038C22.1241 22.0684 22.059 22.1204 21.9846 22.156C21.8856 22.2036 21.8549 22.1981 21.7471 22.2101H20.1057V24.4979C20.5035 24.6435 20.8471 24.939 21.0337 25.3198C21.2509 25.7641 21.2525 26.3075 21.0381 26.7529C20.683 27.4889 19.7337 27.8916 18.9289 27.5567C18.4042 27.3389 18.0119 26.8311 17.9331 26.2697C17.8609 25.7548 18.0502 25.2109 18.4261 24.8525C18.5929 24.6933 18.7937 24.5712 19.0115 24.4941V22.2101H16.823V28.8765C17.2207 29.0215 17.5643 29.317 17.7504 29.6979C17.9681 30.1422 17.9692 30.6856 17.7547 31.1304C17.3997 31.8669 16.4504 32.2697 15.6456 31.9348C15.122 31.717 14.7291 31.2109 14.6498 30.6478C14.5792 30.1433 14.7587 29.6098 15.122 29.2508C15.2932 29.0817 15.5017 28.9526 15.7282 28.8722V22.2101H13.5397V24.4979C13.9374 24.6435 14.281 24.939 14.4676 25.3198C14.6848 25.7641 14.6864 26.3075 14.472 26.7529C14.1163 27.4894 13.1671 27.8921 12.3628 27.5567C11.8381 27.3389 11.4453 26.8311 11.367 26.2697C11.2948 25.7548 11.4841 25.2109 11.86 24.8525C12.0269 24.6933 12.2277 24.5712 12.4454 24.4941V22.2101H10.8035C10.6809 22.1959 10.5573 22.1663 10.4626 22.0908C10.3981 22.0394 10.3466 21.9743 10.3105 21.9004C10.2629 21.8008 10.2684 21.7702 10.2563 21.6629V20.0208H7.97373C7.95403 20.0772 7.9316 20.1324 7.90534 20.1861C7.59731 20.8252 6.84829 21.2219 6.12608 21.0878C5.4564 20.9636 4.89559 20.3803 4.80039 19.7029C4.72872 19.1874 4.91802 18.6441 5.2939 18.2857C5.59208 18.0011 5.99805 17.8359 6.41551 17.8321C6.42262 17.8321 6.42974 17.8321 6.43685 17.8321C7.04635 17.8381 7.63451 18.208 7.90096 18.753C7.92887 18.8093 7.95294 18.8673 7.97373 18.9264H10.2563V16.7541H3.59014ZM16.272 29.8713C15.912 29.8752 15.616 30.2998 15.7791 30.6494C15.8967 30.9006 16.2233 31.0314 16.4821 30.9258C16.7672 30.8092 16.9094 30.4267 16.7524 30.1499C16.6588 29.9857 16.4794 29.8757 16.2862 29.8713C16.2813 29.8713 16.2769 29.8713 16.272 29.8713ZM19.5548 25.4933C19.1948 25.4971 18.8971 25.9234 19.0635 26.2747C19.1822 26.5236 19.5072 26.6533 19.7649 26.5477C20.0488 26.4317 20.1916 26.0509 20.0368 25.7745C19.9438 25.6087 19.7632 25.4982 19.5696 25.4938C19.5646 25.4933 19.5597 25.4933 19.5548 25.4933ZM12.9887 25.4933C12.6292 25.4971 12.3327 25.9217 12.4963 26.2714C12.6134 26.5225 12.94 26.6533 13.1988 26.5477C13.4828 26.4317 13.625 26.0509 13.4707 25.7745C13.3777 25.6087 13.1966 25.4982 13.0035 25.4938C12.9986 25.4933 12.9936 25.4933 12.9887 25.4933ZM11.3512 11.2652V21.1157H21.2V11.2652H11.3512ZM6.42262 18.9264C6.06261 18.9297 5.76498 19.3565 5.9313 19.7073C6.04948 19.9568 6.37502 20.0859 6.63272 19.9809C6.91668 19.8649 7.05893 19.484 6.90464 19.2077C6.81163 19.0419 6.63053 18.9308 6.43685 18.9264C6.43247 18.9264 6.42755 18.9264 6.42262 18.9264ZM26.1214 18.9264C25.7609 18.9297 25.4632 19.3565 25.6301 19.7073C25.7483 19.9568 26.0738 20.0859 26.331 19.9809C26.6155 19.8649 26.7577 19.484 26.6029 19.2077C26.5104 19.0419 26.3293 18.9308 26.1356 18.9264C26.1307 18.9264 26.1258 18.9264 26.1214 18.9264ZM2.58726 16.1111C2.5796 16.0477 2.56045 15.9853 2.52871 15.9273C2.43625 15.7598 2.2546 15.6477 2.05982 15.6433C2.0549 15.6433 2.04998 15.6433 2.04505 15.6433C1.68504 15.6466 1.3874 16.0734 1.55373 16.4241C1.67246 16.6736 1.99745 16.8028 2.25515 16.6972C2.43953 16.6222 2.56428 16.4356 2.58726 16.2386C2.58233 16.1965 2.58233 16.1538 2.58726 16.1111ZM29.9601 16.2266C29.9617 16.2917 29.9765 16.3579 30.006 16.4208C30.1231 16.672 30.4498 16.8033 30.7085 16.6972C30.9931 16.5812 31.1353 16.2009 30.9805 15.9245C30.8875 15.7582 30.7069 15.6477 30.5132 15.6433C30.5083 15.6433 30.5034 15.6433 30.4984 15.6433C30.2161 15.646 29.9721 15.9092 29.9606 16.1916C29.9606 16.2031 29.9606 16.2151 29.9601 16.2266ZM6.42262 12.3596C6.06316 12.3629 5.76498 12.7897 5.9313 13.1404C6.04948 13.39 6.37502 13.5191 6.63272 13.414C6.91668 13.2975 7.05893 12.9172 6.90464 12.6409C6.81163 12.4751 6.63053 12.364 6.43685 12.3596C6.43247 12.3596 6.42755 12.3596 6.42262 12.3596ZM26.1214 12.3596C25.7614 12.3629 25.4632 12.7897 25.6301 13.1404C25.7483 13.39 26.0738 13.5191 26.331 13.414C26.6155 13.2975 26.7577 12.9172 26.6029 12.6409C26.5104 12.4751 26.3293 12.364 26.1356 12.3596C26.1307 12.3596 26.1258 12.3596 26.1214 12.3596ZM19.5548 5.79276C19.1948 5.79605 18.8971 6.22286 19.0635 6.57361C19.1822 6.82312 19.5072 6.95226 19.7649 6.84665C20.0488 6.73065 20.1916 6.35035 20.0368 6.07402C19.9438 5.90767 19.7632 5.79714 19.5696 5.79276C19.5646 5.79276 19.5597 5.79276 19.5548 5.79276ZM12.9887 5.79276C12.7469 5.79495 12.5165 5.97443 12.4602 6.21301C12.4005 6.46198 12.5428 6.74378 12.7797 6.84446C13.0817 6.97196 13.4789 6.76567 13.5326 6.42696C13.5812 6.12327 13.335 5.79988 13.0035 5.79276C12.9986 5.79276 12.9936 5.79276 12.9887 5.79276ZM16.272 1.41469C15.912 1.41798 15.6144 1.84479 15.7807 2.19553C15.8989 2.44505 16.2244 2.57419 16.4821 2.46913C16.7661 2.35258 16.9083 1.97228 16.754 1.69595C16.661 1.53015 16.4799 1.41907 16.2862 1.41469C16.2813 1.41469 16.2769 1.41469 16.272 1.41469Z"   />
</g>
</symbol>
<symbol id="menu-6" viewBox="0 0 29 29">
<g>
<path d="M14.2789 0.871094C6.62156 0.871094 0.390625 7.10651 0.390625 14.7694C0.390625 22.4323 6.62156 28.6381 14.2789 28.6381C21.9363 28.6381 28.1573 22.4323 28.1573 14.7694C28.1573 7.10651 21.9363 0.871094 14.2789 0.871094ZM14.2789 2.12381C21.2544 2.12381 26.8858 7.78886 26.8858 14.7694C26.8858 21.7499 21.2544 27.3854 14.2789 27.3854C7.30344 27.3854 1.66215 21.7499 1.66215 14.7694C1.66215 7.78886 7.30344 2.12381 14.2789 2.12381ZM14.2099 4.4517C14.0531 4.46895 13.9085 4.54434 13.8045 4.66302C13.7005 4.78169 13.6447 4.93505 13.648 5.09286V9.4034C13.6469 9.48706 13.6623 9.57011 13.6935 9.64774C13.7247 9.72537 13.7709 9.79602 13.8296 9.8556C13.8883 9.91517 13.9583 9.96248 14.0354 9.99477C14.1125 10.0271 14.1953 10.0437 14.2789 10.0437C14.3625 10.0437 14.4453 10.0271 14.5224 9.99477C14.5995 9.96248 14.6694 9.91517 14.7281 9.8556C14.7868 9.79602 14.8331 9.72537 14.8643 9.64774C14.8955 9.57011 14.9109 9.48706 14.9097 9.4034V5.09286C14.9117 5.00299 14.8944 4.91375 14.8591 4.83109C14.8238 4.74844 14.7712 4.67428 14.705 4.61359C14.6387 4.55289 14.5603 4.50705 14.4749 4.47913C14.3895 4.45121 14.2992 4.44186 14.2099 4.4517ZM16.3587 6.75987C16.2049 6.77224 16.061 6.84059 15.9541 6.95198C15.8473 7.06336 15.7849 7.21007 15.7788 7.36435C15.7728 7.51864 15.8234 7.6698 15.9212 7.78924C16.0189 7.90869 16.157 7.98815 16.3094 8.01259C19.207 8.88408 21.3167 11.5682 21.3167 14.7595C21.3167 18.6587 18.1752 21.8024 14.2789 21.8024C10.3825 21.8024 7.24112 18.6587 7.24112 14.7595C7.24112 11.5682 9.35075 8.88408 12.2484 8.01259C12.4017 7.96886 12.5327 7.86868 12.6152 7.73219C12.6977 7.5957 12.7256 7.43302 12.6931 7.27685C12.6606 7.12068 12.5703 6.98259 12.4403 6.89034C12.3102 6.7981 12.1501 6.75853 11.9921 6.7796C11.9585 6.78676 11.9255 6.79665 11.8935 6.80919C8.47341 7.83782 5.97944 11.0095 5.97944 14.7595C5.97944 19.3404 9.7013 23.065 14.2789 23.065C18.8565 23.065 22.5783 19.3404 22.5783 14.7595C22.5783 11.0095 20.0844 7.83782 16.6642 6.80919C16.5681 6.76761 16.463 6.75066 16.3587 6.75987Z"   />
</g>
</symbol>
<symbol id="menu-7" viewBox="0 0 40 24">
<g>
<path d="M15.9114 12.7871C15.9114 12.4267 16.2002 12.1354 16.556 12.1354H28.1585C28.5149 12.1354 28.8031 12.4267 28.8031 12.7871C28.8031 13.1475 28.5149 13.4388 28.1585 13.4388H16.556C16.2002 13.4388 15.9114 13.1475 15.9114 12.7871ZM16.556 5.61867H28.1585C28.5149 5.61867 28.8031 5.32737 28.8031 4.967C28.8031 4.60662 28.5149 4.31532 28.1585 4.31532H16.556C16.2002 4.31532 15.9114 4.60662 15.9114 4.967C15.9114 5.32737 16.2002 5.61867 16.556 5.61867ZM16.556 10.8321H28.1585C28.5149 10.8321 28.8031 10.5408 28.8031 10.1804C28.8031 9.82002 28.5149 9.52872 28.1585 9.52872H16.556C16.2002 9.52872 15.9114 9.82002 15.9114 10.1804C15.9114 10.5408 16.2002 10.8321 16.556 10.8321ZM16.556 8.22537H28.1585C28.5149 8.22537 28.8031 7.93407 28.8031 7.5737C28.8031 7.21332 28.5149 6.92202 28.1585 6.92202H16.556C16.2002 6.92202 15.9114 7.21332 15.9114 7.5737C15.9114 7.93407 16.2002 8.22537 16.556 8.22537ZM39.1164 4.31532V16.0455C39.1164 17.4792 37.9562 18.6522 36.5381 18.6522H32.026H28.1585L28.8031 19.9555H30.0922V23.2139H14.6222V19.9555H15.9114L16.556 18.6522H13.9777C13.9777 19.369 13.3975 19.9555 12.6885 19.9555H12.0439C11.3349 19.9555 10.7547 19.369 10.7547 18.6522H8.82099L6.24266 17.3488V13.4388H3.66432V12.1354H0.441406V8.22537H3.66432V6.92202H6.24266V3.01197L8.82099 1.70862H10.7547C10.7547 0.991781 11.3349 0.405273 12.0439 0.405273H12.6885C13.3975 0.405273 13.9777 0.991781 13.9777 1.70862H32.026H36.5381C37.9562 1.70862 39.1164 2.88164 39.1164 4.31532ZM3.66432 9.52872H1.73057V10.8321H3.66432V9.52872ZM6.24266 8.22537H4.95349V12.1354H6.24266V8.22537ZM10.7547 3.01197H9.12523L7.53182 3.81744V6.92202V13.4388V16.5434L8.82099 17.195V11.4837C8.82099 11.3039 8.96538 11.1579 9.14328 11.1579C9.32119 11.1579 9.46557 11.3039 9.46557 11.4837V17.3488H10.7547V3.01197ZM12.6885 1.70862H12.0439V18.6522H12.6885V1.70862ZM27.8362 21.2589L26.8693 18.6522V16.0455H17.8452V18.6522L16.8783 21.2589H15.9114V21.9105H28.8031V21.2589H27.8362ZM30.7368 3.01197H13.9777V17.3488H16.556V16.0455V14.7421H17.8452H26.8693H28.1585V16.0455V17.3488H30.7368V3.01197ZM37.8272 4.31532C37.8272 3.59653 37.2491 3.01197 36.5381 3.01197H32.026V17.3488H35.8935V12.7871C35.8935 12.6072 36.0379 12.4613 36.2158 12.4613C36.3937 12.4613 36.5381 12.6072 36.5381 12.7871V17.3488C37.2491 17.3488 37.8272 16.7643 37.8272 16.0455V4.31532ZM36.2158 9.20289C36.0379 9.20289 35.8935 9.34886 35.8935 9.52872V10.8321C35.8935 11.0119 36.0379 11.1579 36.2158 11.1579C36.3937 11.1579 36.5381 11.0119 36.5381 10.8321V9.52872C36.5381 9.34886 36.3937 9.20289 36.2158 9.20289Z"   stroke-width="0.3"/>
</g>
</symbol>
<symbol id="menu-8" viewBox="0 0 44 44">
<g>
<path d="M5.46413 26.848L5.4642 16.8149L38.8835 16.815L38.8835 26.8481L5.46413 26.848ZM6.42249 17.7751L6.42248 25.8877L37.9252 25.8879L37.9252 17.7752L6.42249 17.7751Z"   stroke-width="0.7"/>
<path d="M10.087 17.297L9.12915 17.293L9.12899 22.3738L10.0868 22.3779L10.087 17.297Z"   stroke-width="0.7"/>
<path d="M14.2755 17.297L13.3176 17.293L13.3175 22.3738L14.2753 22.3779L14.2755 17.297Z"   stroke-width="0.7"/>
<path d="M18.4645 17.2977L17.5066 17.2937L17.5064 22.3745L18.4643 22.3785L18.4645 17.2977Z"   stroke-width="0.7"/>
<path d="M22.6524 17.297L21.6946 17.293L21.6944 22.3738L22.6523 22.3779L22.6524 17.297Z"   stroke-width="0.7"/>
<path d="M26.841 17.2982L25.8832 17.2942L25.883 22.375L26.8409 22.3791L26.841 17.2982Z"   stroke-width="0.7"/>
<path d="M31.0295 17.2977L30.0717 17.2937L30.0715 22.3745L31.0293 22.3786L31.0295 17.2977Z"   stroke-width="0.7"/>
<path d="M35.2182 17.298L34.2604 17.2939L34.2602 22.3748L35.2181 22.3788L35.2182 17.298Z"   stroke-width="0.7"/>
</g>
</symbol>
<symbol id="menu-9" viewBox="0 0 36 35">
<g>
<path d="M18.0336 28.1245C17.5889 28.1245 17.1543 28.2564 16.7846 28.5034C16.4148 28.7505 16.1267 29.1016 15.9565 29.5124C15.7864 29.9233 15.7419 30.3753 15.8286 30.8115C15.9153 31.2476 16.1295 31.6482 16.4439 31.9626C16.7583 32.2771 17.1589 32.4912 17.595 32.578C18.0311 32.6647 18.4831 32.6202 18.8939 32.45C19.3047 32.2798 19.6558 31.9917 19.9029 31.6219C20.1499 31.2522 20.2818 30.8175 20.2818 30.3728C20.2818 29.7765 20.0449 29.2047 19.6233 28.783C19.2017 28.3614 18.6298 28.1245 18.0336 28.1245ZM18.0336 31.497C17.8113 31.497 17.5939 31.4311 17.4091 31.3075C17.2242 31.184 17.0801 31.0084 16.9951 30.803C16.91 30.5976 16.8877 30.3716 16.9311 30.1535C16.9745 29.9355 17.0815 29.7351 17.2387 29.5779C17.3959 29.4207 17.5962 29.3136 17.8143 29.2703C18.0323 29.2269 18.2584 29.2492 18.4638 29.3342C18.6692 29.4193 18.8447 29.5634 18.9682 29.7483C19.0917 29.9331 19.1577 30.1505 19.1577 30.3728C19.1577 30.671 19.0392 30.9569 18.8284 31.1677C18.6176 31.3786 18.3317 31.497 18.0336 31.497Z"   stroke-width="0.4"/>
<path d="M29.273 20.8193C29.94 20.8193 30.592 20.6215 31.1465 20.2509C31.7011 19.8803 32.1333 19.3536 32.3886 18.7374C32.6438 18.1211 32.7106 17.443 32.5805 16.7888C32.4504 16.1346 32.1292 15.5337 31.6576 15.062C31.1859 14.5904 30.5851 14.2692 29.9309 14.139C29.2768 14.0089 28.5987 14.0757 27.9825 14.3309C27.3663 14.5862 26.8396 15.0185 26.4691 15.5731C26.0985 16.1277 25.9008 16.7797 25.9008 17.4467C25.9016 18.3409 26.2572 19.1982 26.8895 19.8305C27.5217 20.4628 28.3789 20.8184 29.273 20.8193ZM29.273 15.1984C29.7177 15.1984 30.1523 15.3303 30.522 15.5773C30.8917 15.8244 31.1799 16.1755 31.3501 16.5863C31.5202 16.9972 31.5647 17.4492 31.478 17.8854C31.3912 18.3215 31.1771 18.7221 30.8627 19.0366C30.5483 19.351 30.1477 19.5651 29.7116 19.6519C29.2755 19.7387 28.8235 19.6941 28.4127 19.524C28.0019 19.3538 27.6508 19.0656 27.4037 18.6959C27.1567 18.3261 27.0248 17.8914 27.0248 17.4467C27.0248 16.8504 27.2617 16.2786 27.6833 15.8569C28.1049 15.4353 28.6768 15.1984 29.273 15.1984Z"   stroke-width="0.4"/>
<path d="M34.8924 17.4463C34.8908 15.9563 34.2982 14.5277 33.2447 13.4741C32.1911 12.4205 30.7627 11.8278 29.2727 11.8262C29.1665 11.8262 29.0637 11.8363 28.9592 11.8419L18.2019 5.56709C17.5275 4.21394 16.5226 3.05285 15.2803 2.19133C14.0379 1.32981 12.5983 0.79573 11.0947 0.638541C9.59109 0.481352 8.07212 0.706139 6.67847 1.29209C5.28482 1.87803 4.06155 2.80619 3.12193 3.99061C2.18231 5.17504 1.55672 6.57742 1.30311 8.0679C1.0495 9.55838 1.17605 11.0888 1.67106 12.5173C2.16607 13.9459 3.01352 15.2265 4.13494 16.2404C5.25635 17.2544 6.61548 17.9689 8.08644 18.318L14.2445 29.3294C14.0972 29.8622 14.0639 30.4201 14.1469 30.9666C14.2299 31.5131 14.4272 32.036 14.7259 32.5011C15.0247 32.9662 15.4182 33.363 15.8808 33.6656C16.3433 33.9683 16.8645 34.1699 17.4103 34.2574C17.9561 34.3449 18.5141 34.3163 19.0481 34.1734C19.5821 34.0305 20.0799 33.7765 20.509 33.4281C20.9382 33.0798 21.289 32.6447 21.5386 32.1515C21.7882 31.6583 21.931 31.118 21.9576 30.5658L29.8252 23.0383C31.2125 22.8997 32.4989 22.251 33.4352 21.2178C34.3714 20.1846 34.8907 18.8406 34.8924 17.4463ZM16.7178 26.6694L12.1006 18.3551C14.024 17.9275 15.7538 16.8804 17.0245 15.3745C18.2953 13.8687 19.0366 11.9873 19.1348 10.0193L25.2164 13.5684C24.6581 14.1491 24.2316 14.8434 23.966 15.604C23.7005 16.3645 23.6022 17.1735 23.6778 17.9755C23.7535 18.7775 24.0013 19.5538 24.4044 20.2513C24.8074 20.9488 25.3562 21.5511 26.0133 22.0171L20.4858 27.3034C19.9648 26.8827 19.3443 26.6034 18.684 26.4924C18.0237 26.3813 17.3459 26.4423 16.7161 26.6694H16.7178ZM27.0338 22.5982C27.4301 22.77 27.845 22.8953 28.2702 22.9714L21.7811 29.1794C21.6599 28.8035 21.483 28.4479 21.2562 28.1245L27.0338 22.5982ZM33.7685 17.4463C33.7685 18.3355 33.5048 19.2048 33.0108 19.9442C32.5168 20.6836 31.8147 21.2598 30.9932 21.6001C30.1717 21.9404 29.2678 22.0295 28.3957 21.856C27.5236 21.6825 26.7225 21.2543 26.0938 20.6255C25.465 19.9967 25.0368 19.1956 24.8634 18.3234C24.6899 17.4513 24.7789 16.5473 25.1192 15.7257C25.4595 14.9042 26.0357 14.202 26.775 13.7079C27.5144 13.2139 28.3836 12.9502 29.2727 12.9502C30.4647 12.9516 31.6074 13.4257 32.4502 14.2686C33.2931 15.1115 33.7672 16.2543 33.7685 17.4463ZM27.3148 12.1853C26.8944 12.3403 26.4941 12.545 26.1223 12.7951L19.1129 8.70592C19.0627 8.21047 18.9708 7.72015 18.8381 7.2402L27.3148 12.1853ZM2.29815 9.57816C2.29815 8.02199 2.75957 6.50076 3.62407 5.20685C4.48858 3.91295 5.71733 2.90447 7.15494 2.30895C8.59255 1.71343 10.1745 1.55761 11.7006 1.8612C13.2268 2.1648 14.6287 2.91417 15.729 4.01454C16.8293 5.11492 17.5786 6.51689 17.8822 8.04316C18.1857 9.56943 18.0299 11.1514 17.4344 12.5892C16.839 14.0269 15.8306 15.2557 14.5367 16.1203C13.2429 16.9848 11.7218 17.4463 10.1657 17.4463C8.07981 17.4441 6.07995 16.6144 4.60497 15.1393C3.13 13.6642 2.30038 11.6642 2.29815 9.57816ZM9.49755 18.5366C9.71897 18.5529 9.94039 18.5703 10.1657 18.5703C10.4181 18.5703 10.6665 18.5529 10.9137 18.5327L15.7242 27.1949C15.3829 27.443 15.0837 27.7443 14.838 28.0874L9.49755 18.5366ZM18.0333 33.1826C17.4776 33.1826 16.9343 33.0178 16.4723 32.709C16.0102 32.4002 15.65 31.9613 15.4374 31.4479C15.2247 30.9344 15.169 30.3694 15.2775 29.8243C15.3859 29.2792 15.6535 28.7785 16.0465 28.3855C16.4394 27.9925 16.9401 27.7249 17.4851 27.6165C18.0302 27.508 18.5952 27.5637 19.1086 27.7764C19.622 27.9891 20.0609 28.3492 20.3696 28.8113C20.6784 29.2734 20.8432 29.8167 20.8432 30.3725C20.8423 31.1175 20.546 31.8317 20.0192 32.3585C19.4925 32.8853 18.7783 33.1817 18.0333 33.1826Z"   stroke-width="0.4"/>
<path d="M16.9095 9.57834C16.9095 8.24448 16.514 6.94058 15.773 5.83151C15.032 4.72245 13.9788 3.85804 12.7466 3.3476C11.5143 2.83715 10.1584 2.70359 8.85027 2.96382C7.54213 3.22404 6.34053 3.86635 5.39741 4.80954C4.4543 5.75272 3.81203 6.9544 3.55182 8.26263C3.29162 9.57086 3.42516 10.9269 3.93557 12.1592C4.44598 13.3915 5.31033 14.4448 6.41932 15.1859C7.52831 15.9269 8.83212 16.3224 10.1659 16.3224C11.9538 16.3205 13.668 15.6094 14.9322 14.345C16.1965 13.0807 16.9076 11.3664 16.9095 9.57834ZM4.54618 9.57834C4.54618 8.46679 4.87577 7.3802 5.49328 6.45599C6.11078 5.53177 6.98845 4.81142 8.01532 4.38605C9.04219 3.96068 10.1721 3.84939 11.2622 4.06624C12.3524 4.28309 13.3537 4.81835 14.1396 5.60434C14.9255 6.39032 15.4608 7.39172 15.6776 8.48191C15.8944 9.57211 15.7832 10.7021 15.3578 11.7291C14.9325 12.756 14.2122 13.6337 13.288 14.2513C12.3639 14.8688 11.2774 15.1984 10.1659 15.1984C8.67595 15.1968 7.24751 14.6042 6.19396 13.5505C5.14042 12.4969 4.54782 11.0684 4.54618 9.57834Z"   stroke-width="0.4"/>
<path d="M11.853 9.57858C11.853 9.24503 11.7541 8.91896 11.5688 8.64162C11.3835 8.36428 11.1202 8.14811 10.8121 8.02047C10.504 7.89282 10.165 7.85942 9.8379 7.9245C9.51082 7.98957 9.21038 8.15019 8.97457 8.38605C8.73876 8.62191 8.57817 8.92242 8.51311 9.24956C8.44805 9.57671 8.48144 9.91581 8.60906 10.224C8.73668 10.5321 8.9528 10.7955 9.23008 10.9809C9.50737 11.1662 9.83336 11.2651 10.1668 11.2651C10.614 11.2651 11.0429 11.0874 11.3591 10.7711C11.6753 10.4548 11.853 10.0259 11.853 9.57858ZM10.1668 10.1407C10.0557 10.1407 9.94702 10.1078 9.85459 10.046C9.76216 9.98423 9.69013 9.89644 9.64759 9.79371C9.60505 9.69099 9.59392 9.57796 9.6156 9.46891C9.63729 9.35986 9.69082 9.25969 9.76942 9.18107C9.84803 9.10245 9.94817 9.04891 10.0572 9.02722C10.1662 9.00553 10.2792 9.01666 10.3819 9.05921C10.4846 9.10176 10.5724 9.17381 10.6342 9.26626C10.6959 9.35871 10.7289 9.4674 10.7289 9.57858C10.7289 9.72768 10.6697 9.87067 10.5643 9.97609C10.4589 10.0815 10.3159 10.1407 10.1668 10.1407Z"   stroke-width="0.4"/>
<path d="M11.853 6.20703C11.853 5.87347 11.7541 5.5474 11.5688 5.27005C11.3835 4.9927 11.1202 4.77654 10.8121 4.64889C10.504 4.52124 10.165 4.48784 9.8379 4.55291C9.51082 4.61799 9.21038 4.77862 8.97457 5.01448C8.73876 5.25034 8.57817 5.55085 8.51311 5.87801C8.44805 6.20516 8.48144 6.54426 8.60906 6.85244C8.73668 7.16061 8.9528 7.42401 9.23008 7.60932C9.50737 7.79464 9.83336 7.89355 10.1668 7.89355C10.614 7.89355 11.0429 7.71587 11.3591 7.39958C11.6753 7.0833 11.853 6.65433 11.853 6.20703ZM10.1668 6.76921C10.0557 6.76921 9.94702 6.73624 9.85459 6.67446C9.76216 6.61269 9.69013 6.52489 9.64759 6.42217C9.60505 6.31944 9.59392 6.20641 9.6156 6.09736C9.63729 5.98831 9.69082 5.88814 9.76942 5.80951C9.84803 5.73089 9.94817 5.67735 10.0572 5.65566C10.1662 5.63397 10.2792 5.6451 10.3819 5.68765C10.4846 5.7302 10.5724 5.80226 10.6342 5.8947C10.6959 5.98715 10.7289 6.09584 10.7289 6.20703C10.7289 6.35613 10.6697 6.49912 10.5643 6.60455C10.4589 6.70998 10.3159 6.76921 10.1668 6.76921Z"   stroke-width="0.4"/>
<path d="M6.79466 7.89209C6.46117 7.89209 6.13517 7.991 5.85789 8.17632C5.58061 8.36163 5.36449 8.62502 5.23687 8.93319C5.10925 9.24136 5.07586 9.58045 5.14092 9.9076C5.20598 10.2347 5.36657 10.5353 5.60238 10.7711C5.83819 11.007 6.13863 11.1676 6.46571 11.2327C6.79278 11.2977 7.13181 11.2643 7.43991 11.1367C7.74801 11.0091 8.01135 10.7929 8.19662 10.5155C8.3819 10.2382 8.48079 9.91214 8.48079 9.57858C8.48079 9.1313 8.30314 8.70233 7.98693 8.38605C7.67072 8.06977 7.24185 7.89209 6.79466 7.89209ZM6.79466 10.1407C6.68349 10.1407 6.57483 10.1078 6.4824 10.046C6.38997 9.98423 6.31793 9.89644 6.27539 9.79371C6.23285 9.69099 6.22172 9.57796 6.24341 9.46891C6.2651 9.35986 6.31863 9.25969 6.39723 9.18107C6.47583 9.10245 6.57598 9.04891 6.68501 9.02722C6.79403 9.00553 6.90704 9.01666 7.00974 9.05921C7.11244 9.10176 7.20022 9.17381 7.26198 9.26626C7.32374 9.35871 7.3567 9.4674 7.3567 9.57858C7.3567 9.72768 7.29748 9.87067 7.19208 9.97609C7.08668 10.0815 6.94372 10.1407 6.79466 10.1407Z"   stroke-width="0.4"/>
<path d="M11.852 12.9507C11.852 12.6171 11.7531 12.291 11.5678 12.0137C11.3826 11.7363 11.1192 11.5202 10.8111 11.3925C10.503 11.2649 10.164 11.2315 9.83692 11.2966C9.50984 11.3616 9.2094 11.5223 8.97359 11.7581C8.73778 11.994 8.5772 12.2945 8.51214 12.6216C8.44708 12.9488 8.48047 13.2879 8.60809 13.596C8.73571 13.9042 8.95182 14.1676 9.2291 14.3529C9.50639 14.5382 9.83238 14.6371 10.1659 14.6371C10.6131 14.6371 11.0419 14.4595 11.3581 14.1432C11.6744 13.8269 11.852 13.3979 11.852 12.9507ZM9.60382 12.9507C9.60382 12.8395 9.63679 12.7308 9.69854 12.6383C9.7603 12.5459 9.84808 12.4738 9.95078 12.4313C10.0535 12.3887 10.1665 12.3776 10.2755 12.3993C10.3845 12.421 10.4847 12.4745 10.5633 12.5531C10.6419 12.6318 10.6954 12.7319 10.7171 12.841C10.7388 12.95 10.7277 13.0631 10.6851 13.1658C10.6426 13.2685 10.5705 13.3563 10.4781 13.4181C10.3857 13.4798 10.277 13.5128 10.1659 13.5128C10.0168 13.5128 9.87385 13.4536 9.76844 13.3482C9.66304 13.2427 9.60382 13.0997 9.60382 12.9507Z"   stroke-width="0.4"/>
<path d="M13.5378 11.2641C13.8713 11.2641 14.1973 11.1652 14.4746 10.9799C14.7519 10.7946 14.968 10.5312 15.0956 10.223C15.2232 9.91483 15.2566 9.57574 15.1915 9.24859C15.1265 8.92144 14.9659 8.62094 14.7301 8.38508C14.4943 8.14922 14.1938 7.98859 13.8668 7.92352C13.5397 7.85845 13.2007 7.89184 12.8926 8.01949C12.5845 8.14714 12.3211 8.3633 12.1358 8.64064C11.9506 8.91798 11.8517 9.24405 11.8517 9.57761C11.8517 10.0249 12.0293 10.4539 12.3455 10.7701C12.6618 11.0864 13.0906 11.2641 13.5378 11.2641ZM13.5378 9.01544C13.649 9.01544 13.7576 9.04841 13.8501 9.11018C13.9425 9.17196 14.0145 9.25975 14.0571 9.36248C14.0996 9.4652 14.1107 9.57823 14.0891 9.68728C14.0674 9.79633 14.0138 9.8965 13.9352 9.97512C13.8566 10.0537 13.7565 10.1073 13.6475 10.129C13.5384 10.1507 13.4254 10.1395 13.3227 10.097C13.22 10.0544 13.1323 9.98238 13.0705 9.88993C13.0087 9.79748 12.9758 9.68879 12.9758 9.57761C12.9758 9.42851 13.035 9.28552 13.1404 9.1801C13.2458 9.07467 13.3888 9.01544 13.5378 9.01544Z"   stroke-width="0.4"/>
<path d="M20.8435 6.20734H21.9676C21.9667 5.46213 21.6703 4.74769 21.1435 4.22075C20.6167 3.69381 19.9024 3.39738 19.1573 3.39648V4.52083C19.6045 4.52083 20.0334 4.69851 20.3496 5.01479C20.6658 5.33107 20.8435 5.76005 20.8435 6.20734Z"   stroke-width="0.4"/>
<path d="M23.0917 6.20795H24.2157C24.2142 4.86673 23.6808 3.58088 22.7325 2.63249C21.7842 1.68411 20.4985 1.15066 19.1573 1.14917V2.27334C20.2004 2.27468 21.2003 2.68965 21.9378 3.42724C22.6754 4.16483 23.0903 5.16484 23.0917 6.20795Z"   stroke-width="0.4"/>
<path d="M6.23212 18.5703H5.10803C5.10892 19.3155 5.40529 20.0299 5.93211 20.5569C6.45894 21.0838 7.17321 21.3802 7.91825 21.3811V20.2568C7.47106 20.2568 7.04219 20.0791 6.72598 19.7628C6.40977 19.4466 6.23212 19.0176 6.23212 18.5703Z"   stroke-width="0.4"/>
<path d="M3.98407 18.5703H2.85999C2.86147 19.9115 3.39489 21.1974 4.3432 22.1458C5.29151 23.0941 6.57727 23.6276 7.91838 23.6291V22.5049C6.87535 22.5036 5.87542 22.0886 5.13788 21.351C4.40035 20.6134 3.98541 19.6134 3.98407 18.5703Z"   stroke-width="0.4"/>
</g>
</symbol>
<symbol id="menu-10" viewBox="0 0 29 28">
<g>
<path d="M14.274 27.7671C6.6064 27.7671 0.390625 21.5512 0.390625 13.8835C0.390625 6.21587 6.6064 0 14.274 0C21.9415 0 28.1573 6.21587 28.1573 13.8835C28.1573 21.5512 21.9415 27.7671 14.274 27.7671ZM14.274 26.1337C21.0394 26.1337 26.524 20.6491 26.524 13.8835C26.524 7.11795 21.0394 1.63336 14.274 1.63336C7.50847 1.63336 2.02396 7.11795 2.02396 13.8835C2.02396 20.6491 7.50847 26.1337 14.274 26.1337ZM14.274 18.7836C11.5678 18.7836 9.37396 16.5898 9.37396 13.8835C9.37396 11.1773 11.5678 8.98347 14.274 8.98347C16.9802 8.98347 19.174 11.1773 19.174 13.8835C19.174 16.5898 16.9802 18.7836 14.274 18.7836ZM14.274 17.1503C16.0781 17.1503 17.5406 15.6877 17.5406 13.8835C17.5406 12.0794 16.0781 10.6168 14.274 10.6168C12.4698 10.6168 11.0073 12.0794 11.0073 13.8835C11.0073 15.6877 12.4698 17.1503 14.274 17.1503ZM14.274 7.75845C12.9209 7.75845 11.824 6.66153 11.824 5.30841C11.824 3.9553 12.9209 2.85838 14.274 2.85838C15.6271 2.85838 16.724 3.9553 16.724 5.30841C16.724 6.66153 15.6271 7.75845 14.274 7.75845ZM14.274 6.12509C14.725 6.12509 15.0906 5.75945 15.0906 5.30841C15.0906 4.85738 14.725 4.49173 14.274 4.49173C13.8229 4.49173 13.4573 4.85738 13.4573 5.30841C13.4573 5.75945 13.8229 6.12509 14.274 6.12509ZM18.605 6.08758C19.5618 5.13078 21.113 5.13078 22.0698 6.08758C23.0266 7.04438 23.0266 8.59564 22.0698 9.55244C21.113 10.5092 19.5618 10.5092 18.605 9.55244C17.6482 8.59564 17.6482 7.04438 18.605 6.08758ZM20.9149 8.39748C21.2338 8.07855 21.2338 7.56148 20.9149 7.24254C20.5959 6.92361 20.0789 6.92361 19.7599 7.24254C19.441 7.56148 19.441 8.07855 19.7599 8.39748C20.0789 8.71641 20.5959 8.71641 20.9149 8.39748ZM20.399 13.8835C20.399 12.5304 21.4959 11.4335 22.849 11.4335C24.2021 11.4335 25.299 12.5304 25.299 13.8835C25.299 15.2367 24.2021 16.3336 22.849 16.3336C21.4959 16.3336 20.399 15.2367 20.399 13.8835ZM22.0323 13.8835C22.0323 14.3346 22.3979 14.7002 22.849 14.7002C23.3 14.7002 23.6656 14.3346 23.6656 13.8835C23.6656 13.4325 23.3 13.0669 22.849 13.0669C22.3979 13.0669 22.0323 13.4325 22.0323 13.8835ZM18.605 18.2147C19.5618 17.2579 21.113 17.2579 22.0698 18.2147C23.0266 19.1714 23.0266 20.7227 22.0698 21.6795C21.113 22.6363 19.5618 22.6363 18.605 21.6795C17.6482 20.7227 17.6482 19.1714 18.605 18.2147ZM19.7599 19.3696C19.441 19.6885 19.441 20.2056 19.7599 20.5245C20.0789 20.8435 20.5959 20.8435 20.9149 20.5245C21.2338 20.2056 21.2338 19.6885 20.9149 19.3696C20.5959 19.0507 20.0789 19.0507 19.7599 19.3696ZM14.274 20.0086C15.6271 20.0086 16.724 21.1056 16.724 22.4587C16.724 23.8118 15.6271 24.9087 14.274 24.9087C12.9209 24.9087 11.824 23.8118 11.824 22.4587C11.824 21.1056 12.9209 20.0086 14.274 20.0086ZM14.274 21.642C13.8229 21.642 13.4573 22.0076 13.4573 22.4587C13.4573 22.9097 13.8229 23.2754 14.274 23.2754C14.725 23.2754 15.0906 22.9097 15.0906 22.4587C15.0906 22.0076 14.725 21.642 14.274 21.642ZM9.94293 21.6795C8.98615 22.6363 7.43489 22.6363 6.47811 21.6795C5.52132 20.7227 5.52132 19.1714 6.47811 18.2147C7.43489 17.2579 8.98615 17.2579 9.94293 18.2147C10.8997 19.1714 10.8997 20.7227 9.94293 21.6795ZM7.63305 19.3696C7.31412 19.6885 7.31412 20.2056 7.63305 20.5245C7.95197 20.8435 8.46906 20.8435 8.78799 20.5245C9.10692 20.2056 9.10692 19.6885 8.78799 19.3696C8.46906 19.0507 7.95197 19.0507 7.63305 19.3696ZM8.14896 13.8835C8.14896 15.2367 7.05205 16.3336 5.69896 16.3336C4.34586 16.3336 3.24896 15.2367 3.24896 13.8835C3.24896 12.5304 4.34586 11.4335 5.69896 11.4335C7.05205 11.4335 8.14896 12.5304 8.14896 13.8835ZM6.51562 13.8835C6.51562 13.4325 6.14999 13.0669 5.69896 13.0669C5.24792 13.0669 4.88229 13.4325 4.88229 13.8835C4.88229 14.3346 5.24792 14.7002 5.69896 14.7002C6.14999 14.7002 6.51562 14.3346 6.51562 13.8835ZM6.47811 9.55244C5.52132 8.59564 5.52132 7.04438 6.47811 6.08758C7.43489 5.13078 8.98615 5.13078 9.94293 6.08758C10.8997 7.04438 10.8997 8.59564 9.94293 9.55244C8.98615 10.5092 7.43489 10.5092 6.47811 9.55244ZM8.78799 7.24254C8.46906 6.92361 7.95197 6.92361 7.63305 7.24254C7.31412 7.56148 7.31412 8.07855 7.63305 8.39748C7.95197 8.71641 8.46906 8.71641 8.78799 8.39748C9.10692 8.07855 9.10692 7.56148 8.78799 7.24254Z" />
</g>
</symbol>
<symbol id="menu-11" viewBox="0 0 29 29">
<g>
<path d="M14.2734 0.699219C21.9366 0.699219 28.1573 6.91911 28.1573 14.5827C28.1573 22.2459 21.9366 28.4662 14.2734 28.4662C6.61057 28.4662 0.390625 22.2459 0.390625 14.5827C0.390625 6.91911 6.61057 0.699219 14.2734 0.699219ZM26.2713 15.5033H24.1132V13.6518H26.2701C26.0696 11.025 25.0296 8.63481 23.4152 6.75172L21.8833 8.28254L20.5812 6.97503L22.1108 5.44726C20.2248 3.82895 17.832 2.78469 15.1993 2.58421V4.75261H13.3486V2.58421C10.7189 2.78355 8.32619 3.8259 6.44206 5.44231L7.97546 6.97503L6.6741 8.28254L5.13766 6.74678C3.52133 8.63215 2.47713 11.022 2.27666 13.6518H4.44419V15.5033H2.2759C2.34703 16.4487 2.5281 17.3628 2.80465 18.2336H25.7425C26.0198 17.3628 26.1997 16.4487 26.2713 15.5033ZM16.6182 12.2013C19.7576 15.2895 15.0365 20.0688 11.9065 16.9919C10.9011 16.0017 8.8907 11.5374 7.88492 9.55011L9.11133 8.3027C11.1149 9.27544 15.6116 11.2118 16.6182 12.2013ZM15.3195 13.5209C14.9939 13.201 12.6734 12.0693 10.7596 11.1513C11.7091 13.05 12.8796 15.3512 13.2041 15.6722C14.6002 17.0448 16.7559 14.9331 15.3195 13.5209ZM13.1367 14.5827C13.1367 13.9554 13.6446 13.4468 14.2715 13.4468C14.8988 13.4468 15.4074 13.9554 15.4074 14.5827C15.4074 15.2096 14.8988 15.7183 14.2715 15.7183C13.6446 15.7183 13.1367 15.2096 13.1367 14.5827ZM24.9775 20.084H3.5704C5.61735 24.0773 9.72987 26.6154 14.2734 26.6154C18.8184 26.6154 22.9306 24.0773 24.9775 20.084Z" />
</g>
</symbol>
<symbol id="menu-12" viewBox="0 0 29 29">
<g>
<path d="M26.4926 20.3491L20.2656 15.5038C20.1423 14.8248 19.7724 14.2076 19.2175 13.8373L20.8821 12.1707C21.3137 12.2633 21.7453 12.325 22.146 12.325C22.6701 12.325 23.1941 12.2633 23.7182 12.109C25.2596 11.7078 26.5543 10.6894 27.3558 9.30061C28.4964 7.2946 28.4039 4.79481 27.1092 2.88138C26.955 2.66535 26.7084 2.54191 26.431 2.54191C26.1535 2.54191 25.9377 2.69621 25.7836 2.91225L24.3656 5.35032L22.6084 5.47376L21.8378 3.86896L23.225 1.43089C23.3483 1.21486 23.3483 0.906239 23.225 0.690207C23.1017 0.443314 22.855 0.289006 22.6084 0.289006C20.2964 0.103836 18.0769 1.27658 16.9363 3.28259C16.1656 4.57878 15.9498 6.12186 16.2889 7.57236L13.422 10.4425L7.19494 4.20844V2.7888C7.19494 2.51104 7.04081 2.23329 6.76336 2.10984L3.27991 0.350729C2.97164 0.196421 2.63255 0.258144 2.38593 0.505038L0.628793 2.26415C0.382177 2.51104 0.320523 2.85052 0.474658 3.15914L2.2318 6.64651C2.3551 6.8934 2.63255 7.07857 2.90999 7.07857H4.32803L10.5859 13.2818L7.719 16.1519C6.79419 15.9359 5.80773 15.9667 4.88292 16.2136C3.34157 16.6148 2.04683 17.6333 1.24533 19.022C0.104734 21.028 0.197215 23.5278 1.49195 25.4413C1.64608 25.6573 1.8927 25.7807 2.17014 25.7807C2.44759 25.7807 2.66337 25.6264 2.81751 25.4104L4.23555 22.9723L5.99269 22.8489L6.76336 24.4537L5.34532 26.8609C5.22201 27.0769 5.22201 27.3855 5.34532 27.6016C5.46863 27.8176 5.71525 28.0028 5.96186 28.0028C6.116 28.0028 6.27013 28.0336 6.42427 28.0336C8.55133 28.0336 10.5551 26.8918 11.634 25.0401C12.4047 23.6821 12.5897 22.1699 12.2814 20.7503L13.9461 19.0838C14.316 19.6393 14.9325 20.0405 15.6107 20.133L20.4505 26.3671C21.2829 27.4164 22.5159 28.0336 23.8415 28.0336C26.246 28.0336 28.1573 26.1202 28.1573 23.7439C28.1573 22.4168 27.5407 21.1823 26.4926 20.3491ZM18.2618 4.05413C18.8784 2.97397 19.9573 2.20243 21.1596 1.92467L20.2656 3.46776C20.1423 3.68379 20.1423 3.96154 20.2656 4.20844L21.4678 6.61564C21.5911 6.8934 21.8994 7.07857 22.2077 7.04771L24.8896 6.86254C25.1362 6.83168 25.3829 6.70823 25.5062 6.4922L26.4002 4.94912C26.7701 6.12186 26.6468 7.44891 25.9994 8.52907C25.4137 9.57836 24.4272 10.319 23.2866 10.6277C22.146 10.9363 20.9438 10.782 19.8957 10.1956C18.8475 9.60922 18.1077 8.62165 17.7994 7.47977C17.522 6.27617 17.6761 5.07256 18.2618 4.05413ZM16.8746 9.1463C17.3987 10.103 18.1693 10.9054 19.1558 11.4918C19.1866 11.5226 19.2483 11.5535 19.2791 11.5535L17.2445 13.5904L16.9054 13.9299L14.5009 11.5226L16.8746 9.1463ZM10.3085 24.2685C9.69193 25.3487 8.61298 26.1202 7.41073 26.398L8.30471 24.8549C8.42802 24.6388 8.42802 24.3611 8.33554 24.1142L7.13329 21.707C7.00998 21.4292 6.73254 21.2749 6.45509 21.2749C6.42427 21.2749 6.42427 21.2749 6.39344 21.2749L3.71149 21.4601C3.46488 21.491 3.21826 21.6144 3.09495 21.8304L2.20097 23.3735C1.83105 22.2008 1.95435 20.8737 2.60172 19.7936C3.18743 18.7443 4.1739 18.0036 5.31449 17.695C6.45509 17.3864 7.65734 17.5407 8.70546 18.127C10.8017 19.3615 11.5415 22.1082 10.3085 24.2685ZM13.7303 17.1086L11.6957 19.1455C11.1716 18.1888 10.4318 17.3864 9.41448 16.8C9.38366 16.7691 9.322 16.7691 9.29117 16.7383L11.6649 14.3619L14.0694 16.7691L13.7303 17.1086ZM5.22201 5.72066C5.06788 5.56635 4.88292 5.50462 4.66713 5.50462H3.40322L2.10849 2.94311L3.06413 1.9864L5.62276 3.28259V4.54791C5.62276 4.76395 5.71525 4.94912 5.83855 5.10342L15.8265 15.01L15.1483 15.689L5.22201 5.72066ZM15.0866 17.911L18.046 14.9483C18.3543 15.0409 18.6009 15.2878 18.6934 15.5964L15.734 18.5591C15.4257 18.4974 15.1791 18.2505 15.0866 17.911ZM23.8723 26.4905C23.0092 26.4905 22.2385 26.0893 21.7144 25.4413L17.0596 19.4541L19.5874 16.9234L25.5678 21.5527C26.246 22.0773 26.6159 22.8797 26.6159 23.713C26.6159 25.2561 25.3829 26.4905 23.8723 26.4905Z"   stroke-width="0.2"/>
</g>
</symbol>
<symbol id="menu-13" viewBox="0 0 29 37">
<g>
<path d="M18.9024 26.9216H22.7451C23.6414 26.9211 24.4339 26.4831 24.8995 25.824C25.1112 25.5249 25.0288 25.1191 24.717 24.9171C24.4043 24.7146 23.9805 24.7934 23.7688 25.0916C23.5431 25.409 23.168 25.6158 22.7451 25.6154H18.9024C18.525 25.6154 18.2196 25.9076 18.2196 26.2685C18.2196 26.629 18.5246 26.9216 18.9024 26.9216Z" />
<path d="M27.3523 9.13143C28.107 9.13143 28.7178 8.54629 28.7178 7.82531C28.7178 7.67163 28.7178 6.08383 28.7178 6.08383C28.7178 3.21038 26.2598 0.859375 23.2555 0.859375H6.41347C3.4092 0.859375 0.951172 3.21038 0.951172 6.08383V24.8048C0.951172 27.6782 3.4092 30.0292 6.41347 30.0292H16.4277V34.8183H14.1517C13.651 34.8183 13.2413 35.2102 13.2413 35.6891C13.2413 36.1684 13.651 36.5598 14.1517 36.5598H24.1659C24.6671 36.5598 25.0763 36.1684 25.0763 35.6891C25.0763 35.2102 24.6671 34.8183 24.1659 34.8183H21.89V30.0292H23.2555C26.2598 30.0292 28.7178 27.6782 28.7178 24.8048C28.7178 24.8048 28.7178 23.217 28.7178 23.0633C28.7178 22.3423 28.107 21.7572 27.3523 21.7572C27.2935 21.7572 24.8992 21.7572 21.89 21.7572V16.0974H22.3452C22.8463 16.0974 23.2555 15.706 23.2555 15.2266C23.2555 14.7477 22.8463 14.3559 22.3452 14.3559H15.9725C15.4718 14.3559 15.0621 14.7477 15.0621 15.2266C15.0621 15.706 15.4718 16.0974 15.9725 16.0974H16.4277V21.7572C12.7688 21.7572 9.59981 21.7572 9.59981 21.7572V9.13143C9.59981 9.13143 27.192 9.13143 27.3523 9.13143ZM20.0692 34.8183H18.2484V30.0292H20.0692V34.8183ZM18.2484 21.4947L19.4137 20.9378C19.6946 20.8033 19.8084 20.4763 19.6682 20.2077C19.5275 19.9386 19.1857 19.8298 18.9048 19.9639L18.2484 20.2782V19.3182L19.4137 18.7614C19.6946 18.6269 19.8084 18.2999 19.6682 18.0313C19.5275 17.7622 19.1857 17.6534 18.9048 17.7875L18.2484 18.1014V16.0974H20.0692V21.7572C19.4688 21.7572 18.8579 21.7572 18.2484 21.7572V21.4947ZM9.59981 23.4987H26.8971V24.8048C26.8971 26.7252 25.2639 28.2878 23.2555 28.2878H6.41347C4.40562 28.2878 2.77194 26.7252 2.77194 24.8048V6.08383C2.77194 4.16341 4.40562 2.60086 6.41347 2.60086H23.2555C25.2639 2.60086 26.8971 4.16341 26.8971 6.08383V7.38994H9.59981C8.59429 7.38994 7.77904 8.16969 7.77904 9.13143V21.7572C7.77904 22.7189 8.59429 23.4987 9.59981 23.4987Z" />
</g>
</symbol>
<symbol id="menu-14" viewBox="0 0 21 35">
<g>
<path d="M17.547 14.877C19.0006 14.877 20.1914 15.9615 20.1914 17.2854V31.7355C20.1914 33.0592 19.0006 34.1439 17.547 34.1439H3.00251C1.54899 34.1439 0.358063 33.0592 0.358063 31.7355V17.2854C0.358063 15.9615 1.54899 14.877 3.00251 14.877H17.547ZM17.547 16.0812H3.00251C2.25863 16.0812 1.68029 16.6078 1.68029 17.2854V31.7355C1.68029 32.413 2.25863 32.9397 3.00251 32.9397H17.547C18.291 32.9397 18.8692 32.413 18.8692 31.7355V17.2854C18.8692 16.6078 18.291 16.0812 17.547 16.0812Z"   />
<path fill-rule="evenodd" clip-rule="evenodd" d="M14.9024 11.8665C15.6249 11.8665 16.2246 12.4127 16.2246 13.0708V15.4795H14.9024V13.0708H5.64684V15.4795H4.32462V13.0708C4.32462 12.4127 4.92451 11.8665 5.64684 11.8665H14.9024Z"   />
<path fill-rule="evenodd" clip-rule="evenodd" d="M13.5803 11.8665V15.4795H12.2581V11.8665H13.5803Z"   />
<path fill-rule="evenodd" clip-rule="evenodd" d="M10.9355 11.8665V15.4795H9.61333V11.8665H10.9355Z"   />
<path fill-rule="evenodd" clip-rule="evenodd" d="M8.29175 11.8665V15.4795H6.96954V11.8665H8.29175Z"   />
<path fill-rule="evenodd" clip-rule="evenodd" d="M11.5968 0.426759C11.7603 0.426505 11.918 0.481345 12.0396 0.58079C12.1613 0.680235 12.2381 0.817221 12.2554 0.965244L13.5776 12.4048L12.2631 12.5319L11.0029 1.63082H9.54895L8.28874 12.5319L6.97418 12.4048L8.29641 0.965244C8.31363 0.817634 8.39012 0.681012 8.51119 0.581624C8.63226 0.482235 8.78937 0.4271 8.95236 0.426759H11.5968Z"   />
<path d="M10.2983 19.0917C10.4014 19.0947 10.5022 19.1197 10.5928 19.1646C10.6833 19.2095 10.7611 19.273 10.8199 19.3501C10.8199 19.3501 11.6594 20.4558 12.5011 21.7773C12.922 22.4381 13.3452 23.1553 13.671 23.8305C13.9967 24.5057 14.2417 25.1171 14.2417 25.7145C14.2417 27.7025 12.4579 29.327 10.275 29.327C8.09217 29.327 6.30836 27.7025 6.30836 25.7145C6.30836 25.1171 6.55601 24.5057 6.88167 23.8305C7.20747 23.1553 7.63071 22.4381 8.05158 21.7773C8.89331 20.4558 9.73279 19.3501 9.73279 19.3501C9.79581 19.2674 9.88059 19.2004 9.97938 19.1553C10.0782 19.1101 10.1878 19.0883 10.2983 19.0917ZM10.2772 20.8202C9.97556 21.233 9.73492 21.5344 9.19505 22.3819C8.78952 23.0185 8.38638 23.7056 8.09232 24.3151C7.79826 24.9247 7.63007 25.4807 7.63007 25.7146C7.63007 27.0517 8.80619 28.1229 10.2745 28.1229C11.7428 28.1229 12.919 27.0517 12.919 25.7146C12.919 25.4807 12.7534 24.9247 12.4594 24.3151C12.1653 23.7056 11.7622 23.0185 11.3566 22.3819C10.8172 21.5349 10.5788 21.2332 10.2772 20.8202H10.2772Z"   />
</g>
</symbol>
<symbol id="menu-15" viewBox="0 0 29 25">
<g>
<path d="M28.1573 0.952148H0.390625V24.7524H28.1573V0.952148ZM26.3925 2.84607V7.51773H2.15546V2.84607H26.3925ZM2.15546 22.8585V9.41165H26.3925V22.8585H2.15546Z" />
<path d="M4.92028 6.69745C5.70003 6.69745 6.33215 6.019 6.33215 5.1821C6.33215 4.34519 5.70003 3.66675 4.92028 3.66675C4.14053 3.66675 3.50842 4.34519 3.50842 5.1821C3.50842 6.019 4.14053 6.69745 4.92028 6.69745Z" />
<path d="M8.56762 6.69745C9.34737 6.69745 9.97948 6.019 9.97948 5.1821C9.97948 4.34519 9.34737 3.66675 8.56762 3.66675C7.78787 3.66675 7.15576 4.34519 7.15576 5.1821C7.15576 6.019 7.78787 6.69745 8.56762 6.69745Z" />
<path d="M12.3915 6.69745C13.1712 6.69745 13.8034 6.019 13.8034 5.1821C13.8034 4.34519 13.1712 3.66675 12.3915 3.66675C11.6117 3.66675 10.9796 4.34519 10.9796 5.1821C10.9796 6.019 11.6117 6.69745 12.3915 6.69745Z" />
<path d="M6.86157 12.1264L10.1853 16.0089L6.86157 19.8915L8.15578 21.1541L12.5679 16.0089L8.15578 10.8638L6.86157 12.1264Z" />
<path d="M21.7744 18.8181H12.8326V20.7117H21.7744V18.8181Z" />
</g>
</symbol>
<symbol id="menu-16" viewBox="0 0 32 31">
<g>
<path d="M29.6688 7.15864H25.4131C25.986 6.41179 26.3256 5.48742 26.3256 4.48755C26.3256 2.01312 24.2476 0 21.6934 0H21.6069C19.7525 0 18.0817 1.06665 17.3502 2.71734L15.9999 5.76455L14.6496 2.71734C13.9182 1.06665 12.2474 0 10.393 0H10.3065C7.75224 0 5.67424 2.01312 5.67424 4.48755C5.67424 5.48748 6.01387 6.41179 6.5868 7.15864H2.33105V14.381H3.9018V31H28.0981V14.381H29.6688V7.15864ZM5.7768 29.1836V14.381H26.2231V29.1836H5.7768ZM7.54918 4.48755C7.54918 3.01469 8.78605 1.81641 10.3064 1.81641H10.3929C11.4967 1.81641 12.4912 2.4513 12.9266 3.43386L14.5772 7.15864H10.3064C8.78612 7.15864 7.54918 5.96036 7.54918 4.48755ZM21.6069 1.81641H21.6934C23.2137 1.81641 24.4506 3.01469 24.4506 4.48755C24.4506 5.96042 23.2137 7.15864 21.6934 7.15864H17.4226L19.0732 3.43386C19.5086 2.4513 20.5031 1.81641 21.6069 1.81641ZM18.3957 12.5646H13.6041V8.97505H18.3957V12.5646ZM4.20605 8.97505H11.7291V12.5646H4.20605V8.97505ZM27.7938 12.5646H20.2707V8.97505H27.7938V12.5646Z" />
<path d="M17.8998 17.5942L12.0211 25.9342H14.0996L19.9783 17.5942H17.8998Z" />
<path d="M19.1544 21.4067C17.8508 21.4067 16.8668 22.2526 16.8668 23.73C16.8668 25.2193 17.8507 26.0533 19.1544 26.0533C20.458 26.0533 21.4419 25.2194 21.4419 23.73C21.4419 22.2527 20.458 21.4067 19.1544 21.4067ZM19.1544 24.7666C18.8838 24.7666 18.6133 24.5283 18.6133 23.73C18.6133 22.9318 18.8838 22.6935 19.1544 22.6935C19.4249 22.6935 19.6955 22.9318 19.6955 23.73C19.6955 24.5283 19.4249 24.7666 19.1544 24.7666Z" />
<path d="M15.1327 19.7984C15.1327 18.3211 14.1489 17.4751 12.8452 17.4751C11.5415 17.4751 10.5576 18.321 10.5576 19.7984C10.5576 21.2877 11.5415 22.1217 12.8452 22.1217C14.1489 22.1217 15.1327 21.2877 15.1327 19.7984ZM12.3041 19.7984C12.3041 19.0002 12.5746 18.7618 12.8452 18.7618C13.1157 18.7618 13.3863 19.0001 13.3863 19.7984C13.3863 20.5967 13.1157 20.835 12.8452 20.835C12.5746 20.835 12.3041 20.5967 12.3041 19.7984Z" />
</g>
</symbol>
<symbol id="menu-17" viewBox="0 0 25 23">
<g>
<path fill-rule="evenodd" clip-rule="evenodd" d="M10.8823 15.1834C10.7925 15.4355 10.6472 15.6664 10.4561 15.8608C10.2649 16.0551 10.0324 16.2083 9.774 16.3102C9.51561 16.4121 9.23735 16.4603 8.95782 16.4515C8.6783 16.4428 8.40396 16.3773 8.15316 16.2595L4.10149 20.1127C4.30694 20.5097 4.35763 20.9632 4.24451 21.3925C4.13139 21.8217 3.86181 22.1988 3.48383 22.4565C3.10584 22.7142 2.644 22.8357 2.18062 22.7995C1.71723 22.7633 1.28241 22.5717 0.953649 22.2587C0.624884 21.9458 0.423536 21.5319 0.38549 21.0909C0.347444 20.6498 0.47517 20.2102 0.745907 19.8505C1.01664 19.4907 1.4128 19.2341 1.86377 19.1264C2.31474 19.0188 2.79123 19.067 3.20832 19.2626L7.25578 15.4101C7.13389 15.1804 7.06312 14.9293 7.04789 14.6723C7.03267 14.4154 7.07332 14.1582 7.1673 13.917C7.26128 13.6757 7.40657 13.4554 7.59407 13.27C7.78157 13.0846 8.00726 12.9381 8.25701 12.8395C8.50675 12.7409 8.77519 12.6925 9.04551 12.6972C9.31583 12.7019 9.58222 12.7597 9.82801 12.8668C10.0738 12.974 10.2937 13.1284 10.474 13.3202C10.6542 13.512 10.791 13.7371 10.8756 13.9815H13.8329C13.9306 13.7091 14.0929 13.4618 14.3072 13.2588C14.5215 13.0558 14.7821 12.9025 15.0687 12.8109V10.0065C14.8076 9.93005 14.5662 9.80268 14.3597 9.63245C14.1533 9.46223 13.9864 9.25291 13.8697 9.01785C13.753 8.78279 13.6891 8.52716 13.682 8.26727C13.675 8.00738 13.7249 7.74894 13.8287 7.50845C13.9324 7.26797 14.0878 7.05072 14.2847 6.87057C14.4816 6.69042 14.7158 6.55133 14.9724 6.46218C15.229 6.37303 15.5023 6.33578 15.7748 6.35281C16.0474 6.36983 16.3132 6.44076 16.5554 6.56106L20.6112 2.70061C20.4054 2.30405 20.3542 1.85083 20.4668 1.42169C20.5793 0.992551 20.8482 0.615377 21.2257 0.357373C21.6031 0.0993684 22.0645 -0.0227071 22.5277 0.0128972C22.9909 0.0485015 23.4258 0.239473 23.7548 0.551784C24.0839 0.864096 24.2857 1.27746 24.3244 1.71822C24.3632 2.15899 24.2362 2.59852 23.9662 2.9585C23.6962 3.31848 23.3007 3.57553 22.8502 3.68385C22.3996 3.79216 21.9233 3.74471 21.5061 3.54994L17.4367 7.42402C17.5545 7.65964 17.6192 7.91608 17.6267 8.1769C17.6342 8.43771 17.5843 8.69714 17.4804 8.93855C17.3764 9.17996 17.2205 9.39802 17.0228 9.57875C16.8251 9.75948 16.5899 9.89889 16.3323 9.98804V12.8181C16.6479 12.9213 16.9306 13.0994 17.1539 13.3354C17.3771 13.5715 17.5335 13.8578 17.6084 14.1673C17.6832 14.4768 17.674 14.7994 17.5815 15.1046C17.4891 15.4098 17.3165 15.6876 17.0801 15.9117C16.8437 16.1358 16.5511 16.299 16.2301 16.3857C15.9091 16.4724 15.5702 16.4799 15.2453 16.4074C14.9204 16.335 14.6202 16.1849 14.3731 15.9715C14.126 15.758 13.9401 15.4882 13.8329 15.1874L10.8823 15.1834Z" />
<path fill-rule="evenodd" clip-rule="evenodd" d="M4.30293 1.86933C4.30293 2.23905 4.18774 2.60047 3.97194 2.90788C3.75614 3.21529 3.44941 3.45489 3.09054 3.59637C2.73167 3.73786 2.33679 3.77488 1.95581 3.70275C1.57484 3.63062 1.2249 3.45258 0.950233 3.19115C0.675568 2.92972 0.488518 2.59664 0.412738 2.23402C0.336958 1.87141 0.375851 1.49555 0.524499 1.15397C0.673146 0.812395 0.924872 0.520445 1.24784 0.31504C1.57082 0.109635 1.95053 0 2.33896 0C2.85984 0 3.35938 0.196946 3.7277 0.547514C4.09601 0.898082 4.30293 1.37355 4.30293 1.86933ZM4.30293 8.22491C4.30293 8.59466 4.18772 8.95611 3.97188 9.26354C3.75604 9.57096 3.44926 9.81056 3.09035 9.95202C2.73143 10.0935 2.3365 10.1305 1.95551 10.0583C1.57451 9.98607 1.22457 9.80795 0.949935 9.54644C0.675303 9.28493 0.48832 8.95177 0.412635 8.5891C0.336951 8.22643 0.375963 7.85055 0.52474 7.50899C0.673517 7.16743 0.925375 6.87553 1.24846 6.67022C1.57154 6.46491 1.95134 6.35542 2.33981 6.35557C2.86047 6.356 3.35967 6.55311 3.72775 6.90361C4.09583 7.25411 4.30271 7.72933 4.30293 8.22491ZM10.9811 8.22491C10.9811 8.59463 10.8659 8.95604 10.6501 9.26345C10.4343 9.57086 10.1276 9.81046 9.76869 9.95195C9.40983 10.0934 9.01494 10.1304 8.63397 10.0583C8.25299 9.98619 7.90305 9.80816 7.62838 9.54672C7.35372 9.28529 7.16667 8.95221 7.09089 8.58959C7.01511 8.22698 7.054 7.85112 7.20265 7.50954C7.3513 7.16797 7.60302 6.87602 7.926 6.67061C8.24897 6.46521 8.62868 6.35557 9.01712 6.35557C9.53792 6.35579 10.0373 6.5528 10.4056 6.90332C10.7739 7.25385 10.9809 7.72919 10.9811 8.22491ZM10.9811 1.86933C10.9811 2.23905 10.8659 2.60047 10.6501 2.90788C10.4343 3.21529 10.1276 3.45489 9.76869 3.59637C9.40983 3.73786 9.01494 3.77488 8.63397 3.70275C8.25299 3.63062 7.90305 3.45258 7.62838 3.19115C7.35372 2.92972 7.16667 2.59664 7.09089 2.23402C7.01511 1.87141 7.054 1.49555 7.20265 1.15397C7.3513 0.812395 7.60302 0.520445 7.926 0.31504C8.24897 0.109635 8.62868 0 9.01712 0C9.53792 0.000212342 10.0373 0.197227 10.4056 0.547749C10.7739 0.898271 10.9809 1.37362 10.9811 1.86933ZM17.6314 1.86933C17.6314 2.23891 17.5163 2.60021 17.3007 2.90755C17.085 3.21489 16.7785 3.45448 16.4198 3.59606C16.0612 3.73764 15.6665 3.77485 15.2856 3.70298C14.9047 3.63111 14.5547 3.45339 14.2799 3.19228C14.0051 2.93117 13.8178 2.59839 13.7417 2.23598C13.6655 1.87358 13.7039 1.49782 13.8521 1.15619C14.0002 0.814558 14.2514 0.522385 14.5739 0.316595C14.8964 0.110806 15.2758 0.000633661 15.6641 0C16.185 0 16.6845 0.196946 17.0529 0.547514C17.4212 0.898082 17.6281 1.37355 17.6281 1.86933H17.6314ZM24.3399 8.22491C24.3399 8.59466 24.2247 8.95611 24.0089 9.26354C23.793 9.57096 23.4862 9.81056 23.1273 9.95202C22.7684 10.0935 22.3735 10.1305 21.9925 10.0583C21.6115 9.98607 21.2615 9.80795 20.9869 9.54644C20.7123 9.28493 20.5253 8.95177 20.4496 8.5891C20.3739 8.22643 20.4129 7.85055 20.5617 7.50899C20.7105 7.16743 20.9623 6.87553 21.2854 6.67022C21.6085 6.46491 21.9883 6.35542 22.3768 6.35557C22.8969 6.35664 23.3954 6.55405 23.7628 6.9045C24.1302 7.25495 24.3365 7.72982 24.3365 8.22491H24.3399ZM24.3399 14.5813C24.3399 14.951 24.2247 15.3125 24.0089 15.6199C23.793 15.9273 23.4862 16.1669 23.1273 16.3084C22.7684 16.4499 22.3735 16.4868 21.9925 16.4146C21.6115 16.3424 21.2615 16.1643 20.9869 15.9028C20.7123 15.6413 20.5253 15.3081 20.4496 14.9455C20.3739 14.5828 20.4129 14.2069 20.5617 13.8654C20.7105 13.5238 20.9623 13.2319 21.2854 13.0266C21.6085 12.8213 21.9883 12.7118 22.3768 12.7119C22.8972 12.713 23.3959 12.9106 23.7634 13.2614C24.1308 13.6122 24.337 14.0875 24.3365 14.5829L24.3399 14.5813ZM24.3399 20.9377C24.3402 21.3073 24.2254 21.6688 24.0099 21.9764C23.7944 22.284 23.488 22.5238 23.1293 22.6656C22.7706 22.8074 22.3758 22.8448 21.9948 22.773C21.6137 22.7013 21.2636 22.5236 20.9887 22.2625C20.7138 22.0014 20.5264 21.6685 20.4501 21.306C20.3739 20.9435 20.4124 20.5676 20.5606 20.2259C20.7088 19.8842 20.9601 19.592 21.2828 19.3862C21.6055 19.1805 21.985 19.0704 22.3734 19.0699C22.8939 19.0699 23.3931 19.2667 23.7613 19.6169C24.1294 19.9672 24.3363 20.4422 24.3365 20.9377H24.3399ZM17.6314 20.9377C17.6318 21.3073 17.517 21.6688 17.3015 21.9763C17.0861 22.2839 16.7796 22.5237 16.421 22.6655C16.0624 22.8074 15.6676 22.8448 15.2866 22.7731C14.9056 22.7014 14.5555 22.5238 14.2805 22.2628C14.0056 22.0017 13.8181 21.6689 13.7418 21.3065C13.6655 20.944 13.7038 20.5682 13.8519 20.2265C14 19.8848 14.2512 19.5925 14.5737 19.3866C14.8963 19.1808 15.2758 19.0706 15.6641 19.0699C16.1847 19.0699 16.684 19.2667 17.0523 19.6169C17.4205 19.9671 17.6276 20.4422 17.6281 20.9377H17.6314ZM10.9811 20.9377C10.9814 21.3074 10.8665 21.669 10.6509 21.9766C10.4353 22.2843 10.1287 22.5241 9.76986 22.6658C9.41102 22.8076 9.01608 22.8448 8.635 22.7729C8.25392 22.7009 7.90381 22.523 7.62898 22.2616C7.35415 22.0003 7.16693 21.6672 7.09101 21.3045C7.0151 20.9419 7.05389 20.5659 7.20249 20.2243C7.35109 19.8826 7.60281 19.5906 7.92582 19.3851C8.24883 19.1796 8.62861 19.0699 9.01712 19.0699C9.53763 19.0701 10.0368 19.2669 10.405 19.6171C10.7732 19.9673 10.9804 20.4422 10.9811 20.9377ZM4.30293 14.5829C4.30293 14.9526 4.18772 15.3141 3.97188 15.6215C3.75604 15.9289 3.44926 16.1685 3.09035 16.31C2.73143 16.4515 2.3365 16.4884 1.95551 16.4162C1.57451 16.344 1.22457 16.1659 0.949935 15.9044C0.675303 15.6429 0.48832 15.3097 0.412635 14.9471C0.336951 14.5844 0.375963 14.2085 0.52474 13.867C0.673517 13.5254 0.925375 13.2335 1.24846 13.0282C1.57154 12.8229 1.95134 12.7134 2.33981 12.7136C2.86047 12.714 3.35967 12.9111 3.72775 13.2616C4.09583 13.6121 4.30271 14.0873 4.30293 14.5829Z" />
</g>
</symbol>
<symbol id="submenu-1" viewBox="0 0 31 31">
<g>
<path d="M18.4062 9.6875H24.2188C24.7537 9.6875 25.1875 9.2538 25.1875 8.71875V6.29688C25.1875 6.03997 25.0854 5.79355 24.9038 5.61191L23.4507 4.15878C23.269 3.97708 23.0226 3.875 22.7656 3.875H19.8594C19.6024 3.875 19.356 3.97708 19.1743 4.15878L17.7212 5.61191C17.5396 5.79361 17.4375 6.03997 17.4375 6.29688V8.71875C17.4375 9.2538 17.8713 9.6875 18.4062 9.6875ZM19.375 6.69812L20.2606 5.8125H22.3643L23.25 6.69812V7.75H19.375V6.69812Z" />
<path d="M18.4062 17.4375H24.2188C24.7537 17.4375 25.1875 17.0038 25.1875 16.4688V14.0469C25.1875 13.79 25.0854 13.5435 24.9038 13.3619L23.4507 11.9088C23.269 11.7271 23.0226 11.625 22.7656 11.625H19.8594C19.6024 11.625 19.356 11.7271 19.1743 11.9088L17.7212 13.3619C17.5396 13.5436 17.4375 13.79 17.4375 14.0469V16.4688C17.4375 17.0038 17.8713 17.4375 18.4062 17.4375ZM19.375 14.4481L20.2606 13.5625H22.3643L23.25 14.4481V15.5H19.375V14.4481Z" />
<path d="M3.87696 9.67872C3.8729 12.912 6.50469 15.5001 9.68849 15.5001C12.8155 15.5001 15.4759 12.9965 15.5017 9.69628C15.5058 6.45999 12.8705 3.875 9.68934 3.875C6.5673 3.875 3.90275 6.37462 3.87696 9.67872ZM6.24434 11.4583C7.39358 11.7894 8.38086 11.6168 9.40283 11.0288C9.78421 11.7271 9.85947 12.3954 9.18407 13.5285C7.90163 13.3606 6.81493 12.5638 6.24434 11.4583ZM11.4608 13.1321C11.8447 11.7993 11.5008 10.791 11.0306 9.97395C11.7289 9.59256 12.3972 9.51742 13.5303 10.1927C13.3625 11.475 12.566 12.5614 11.4608 13.1321ZM13.134 7.91608C11.8012 7.53209 10.7928 7.87606 9.97578 8.34621C9.5944 7.64792 9.5192 6.97966 10.1945 5.84653C11.4768 6.0143 12.5633 6.81086 13.134 7.91608ZM7.91792 6.24287C7.53393 7.57569 7.8779 8.58403 8.34804 9.40099C7.64975 9.78238 6.98144 9.85752 5.84836 9.18224C6.01614 7.90003 6.81269 6.81358 7.91792 6.24287Z" />
<path d="M30.0312 28.0938H28.0938V26.1562H30.0312C30.5662 26.1562 31 25.7226 31 25.1875C31 24.6524 30.5662 24.2188 30.0312 24.2188H28.0938C28.0938 23.6837 27.66 23.25 27.125 23.25H25.248C23.6527 23.25 22.3418 24.5453 22.3418 26.1593C22.265 26.1546 23.0078 26.1562 8.23438 26.1562C6.89895 26.1562 5.8125 25.0698 5.8125 23.7344V21.3125H28.0938C28.6287 21.3125 29.0625 20.8788 29.0625 20.3438V0.96875C29.0625 0.433697 28.6287 0 28.0938 0H0.96875C0.433758 0 0 0.433697 0 0.96875V20.3438C0 20.8788 0.433758 21.3125 0.96875 21.3125H3.875V23.7344C3.875 26.1381 5.8306 28.0938 8.23438 28.0938C20.5345 28.0938 22.3418 28.0875 22.3418 28.0938C22.3418 29.6963 23.6456 31 25.248 31H27.125C27.66 31 28.0938 30.5663 28.0938 30.0312H30.0312C30.5662 30.0312 31 29.5976 31 29.0625C31 28.5274 30.5662 28.0938 30.0312 28.0938ZM1.9375 19.375V1.9375H27.125V19.375H5.8125V17.4375C5.8125 16.9024 5.37874 16.4688 4.84375 16.4688C4.30876 16.4688 3.875 16.9024 3.875 17.4375V19.375H1.9375ZM25.248 29.0625C24.7139 29.0625 24.2793 28.6279 24.2793 28.0938V26.1562C24.2793 25.6221 24.7139 25.1875 25.248 25.1875H26.1562V29.0625H25.248Z" />
</g>
</symbol>
<symbol id="submenu-2" viewBox="0 0 28 28">
<g>
<path d="M22.6041 9.69785H21.5447V8.13007C21.5447 6.62253 20.3181 5.39569 18.8104 5.39569H9.18942C7.68188 5.39569 6.45505 6.62253 6.45505 8.13007V18.3019C6.45505 18.9061 6.94489 19.3957 7.5488 19.3957H8.58978V22.6041C8.58978 23.2082 9.07962 23.6978 9.68353 23.6978C10.2877 23.6978 10.7773 23.2082 10.7773 22.6041V19.3957H12.9103V22.6041C12.9103 23.2082 13.3999 23.6978 14.0041 23.6978C14.6082 23.6978 15.0978 23.2082 15.0978 22.6041V19.3957H16.1674C16.7713 19.3957 17.2612 18.9061 17.2612 18.3019V16.1875H20.4512C21.0551 16.1875 21.545 15.6979 21.545 15.0938V11.8853H22.6043C24.3733 11.8853 25.8125 13.3247 25.8125 15.0938V22.6041C25.8125 24.3733 24.3733 25.8125 22.6041 25.8125H5.39185C3.62497 25.8125 2.1875 24.375 2.1875 22.6082V5.39185C2.1875 3.62497 3.62497 2.1875 5.39185 2.1875H22.6082C24.375 2.1875 25.8125 3.62497 25.8125 5.3959C25.8125 6.00003 26.3021 6.48752 26.9062 6.48752C27.5104 6.48752 28 5.99597 28 5.39185C28 2.41885 25.5811 0 22.6082 0H5.39185C2.41885 0 0 2.41885 0 5.39185V22.6082C0 25.5811 2.41885 28 5.39185 28H22.6041C25.5794 28 28 25.5794 28 22.6041V15.0938C28 12.1184 25.5794 9.69785 22.6041 9.69785ZM19.3575 14H11.8612C11.2571 14 10.7675 14.4896 10.7675 15.0938C10.7675 15.6979 11.2571 16.1875 11.8612 16.1875H15.0737V17.2084H8.64255C8.64255 16.0066 8.64255 8.93222 8.64255 8.13028C8.64255 7.82864 8.888 7.5834 9.18942 7.5834H18.8106C19.112 7.5834 19.3575 7.82864 19.3575 8.13028V14Z" />
</g>
</symbol>
<symbol id="submenu-3" viewBox="0 0 30 30">
<g>
<path d="M18.3285 15.0761H11.6726C11.1871 15.0761 10.7937 14.6824 10.7937 14.1972V10.7354C10.7937 10.2499 11.1871 9.85645 11.6726 9.85645H18.3285C18.814 9.85645 19.2074 10.2499 19.2074 10.7354V14.1972C19.2074 14.6824 18.814 15.0761 18.3285 15.0761ZM12.5515 13.3183H17.4496V11.6143H12.5515V13.3183Z" />
<path d="M27.3633 4.86328H2.63672C1.18286 4.86328 0 6.04614 0 7.5V22.5128C0 23.9667 1.18286 25.1495 2.63672 25.1495H27.3633C28.8171 25.1495 30 23.9667 30 22.5128V7.5C30 6.04614 28.8171 4.86328 27.3633 4.86328ZM28.2422 22.5126C28.2422 22.9974 27.8478 23.3915 27.3633 23.3915H2.63672C2.15218 23.3915 1.75781 22.9974 1.75781 22.5126V7.5C1.75781 7.01546 2.15218 6.62109 2.63672 6.62109H27.3633C27.8478 6.62109 28.2422 7.01546 28.2422 7.5V22.5126Z" />
<path d="M25.3258 21.0405C25.7856 21.0405 26.226 20.6363 26.2047 20.1616C26.1834 19.6853 25.8186 19.2827 25.3258 19.2827C24.8662 19.2827 24.4256 19.6869 24.4469 20.1616C24.4682 20.6377 24.833 21.0405 25.3258 21.0405Z" />
<path d="M22.3679 21.0405C22.8275 21.0405 23.2681 20.6363 23.2468 20.1616C23.2256 19.6853 22.8607 19.2827 22.3679 19.2827C21.9081 19.2827 21.4677 19.6869 21.489 20.1616C21.5103 20.6377 21.8751 21.0405 22.3679 21.0405Z" />
<path d="M25.3258 18.7124C25.7856 18.7124 26.226 18.3082 26.2047 17.8335C26.1834 17.3572 25.8186 16.9546 25.3258 16.9546C24.8662 16.9546 24.4256 17.3588 24.4469 17.8335C24.4682 18.3096 24.833 18.7124 25.3258 18.7124Z" />
<path d="M22.3679 18.7124C22.8275 18.7124 23.2681 18.3082 23.2468 17.8335C23.2256 17.3572 22.8607 16.9546 22.3679 16.9546C21.9081 16.9546 21.4677 17.3588 21.489 17.8335C21.5103 18.3096 21.8751 18.7124 22.3679 18.7124Z" />
<path d="M17.3441 19.9346H12.6566C12.1712 19.9346 11.7777 19.5411 11.7777 19.0557C11.7777 18.5704 12.1712 18.1768 12.6566 18.1768H17.3441C17.8296 18.1768 18.223 18.5704 18.223 19.0557C18.223 19.5411 17.8296 19.9346 17.3441 19.9346Z" />
<path d="M23.8467 15.4309C22.3929 15.4309 21.21 14.2483 21.21 12.7942C21.21 11.3403 22.3929 10.1575 23.8467 10.1575C25.3006 10.1575 26.4835 11.3403 26.4835 12.7942C26.4835 14.2483 25.3006 15.4309 23.8467 15.4309ZM23.8467 11.9153C23.3622 11.9153 22.9678 12.3096 22.9678 12.7942C22.9678 13.279 23.3622 13.6731 23.8467 13.6731C24.3313 13.6731 24.7256 13.279 24.7256 12.7942C24.7256 12.3096 24.3315 11.9153 23.8467 11.9153Z" />
<path d="M7.63044 21.0405C8.09027 21.0405 8.53063 20.6363 8.50935 20.1616C8.48806 19.6853 8.12322 19.2827 7.63044 19.2827C7.17085 19.2827 6.73025 19.6869 6.75153 20.1616C6.77282 20.6377 7.13766 21.0405 7.63044 21.0405Z" />
<path d="M4.67353 21.0405C5.13313 21.0405 5.57373 20.6363 5.55244 20.1616C5.53115 19.6853 5.16632 19.2827 4.67353 19.2827C4.21371 19.2827 3.77334 19.6869 3.79463 20.1616C3.81591 20.6377 4.18075 21.0405 4.67353 21.0405Z" />
<path d="M7.63044 18.7124C8.09027 18.7124 8.53063 18.3082 8.50935 17.8335C8.48806 17.3572 8.12322 16.9546 7.63044 16.9546C7.17085 16.9546 6.73025 17.3588 6.75153 17.8335C6.77282 18.3096 7.13766 18.7124 7.63044 18.7124Z" />
<path d="M4.67353 18.7124C5.13313 18.7124 5.57373 18.3082 5.55244 17.8335C5.53115 17.3572 5.16632 16.9546 4.67353 16.9546C4.21371 16.9546 3.77334 17.3588 3.79463 17.8335C3.81591 18.3096 4.18075 18.7124 4.67353 18.7124Z" />
<path d="M6.15326 15.4309C4.6994 15.4309 3.51654 14.2483 3.51654 12.7942C3.51654 11.3403 4.6994 10.1575 6.15326 10.1575C7.60712 10.1575 8.78998 11.3403 8.78998 12.7942C8.78998 14.2483 7.60712 15.4309 6.15326 15.4309ZM6.15326 11.9153C5.66872 11.9153 5.27435 12.3096 5.27435 12.7942C5.27435 13.279 5.66872 13.6731 6.15326 13.6731C6.6378 13.6731 7.03217 13.279 7.03217 12.7942C7.03217 12.3096 6.6378 11.9153 6.15326 11.9153Z" />
</g>
</symbol>
<symbol id="arrow-back" viewBox="0 0 19 8">
<g>
<path d="M0.646446 3.64645C0.451185 3.84171 0.451185 4.15829 0.646446 4.35355L3.82843 7.53553C4.02369 7.7308 4.34027 7.7308 4.53553 7.53553C4.7308 7.34027 4.7308 7.02369 4.53553 6.82843L1.70711 4L4.53553 1.17157C4.7308 0.976311 4.7308 0.659728 4.53553 0.464466C4.34027 0.269204 4.02369 0.269204 3.82843 0.464466L0.646446 3.64645ZM19 3.5L1 3.5V4.5L19 4.5V3.5Z" fill="#AEAEAE"/>
</g>
</symbol>
<symbol id="close" viewBox="0 0 16 15">
<g>
<line x1="1.35355" y1="0.646447" x2="15.3536" y2="14.6464" stroke="#3C3C3B"/>
<line x1="0.646446" y1="14.6464" x2="14.6464" y2="0.646454" stroke="#3C3C3B"/>
</g>
</symbol>
<symbol id="slider-arrow" viewBox="0 43 43">
<g>
<path fill-rule="evenodd" clip-rule="evenodd" d="M9.73376 4.96468C9.73376 5.91309 9.45405 6.84021 8.93 7.62878C8.40595 8.41736 7.6611 9.03198 6.78964 9.39492C5.91818 9.75786 4.95925 9.85283 4.03411 9.6678C3.10897 9.48277 2.25918 9.02607 1.59219 8.35544C0.9252 7.68482 0.470976 6.83038 0.286955 5.9002C0.102933 4.97001 0.197379 4.00584 0.55835 3.12962C0.919321 2.25341 1.5306 1.50449 2.3149 0.977581C3.09919 0.450672 4.02127 0.169434 4.96453 0.169434C6.22941 0.169434 7.44249 0.674645 8.33689 1.57393C9.23129 2.47321 9.73376 3.6929 9.73376 4.96468ZM9.73376 21.2681C9.73376 22.2166 9.45399 23.1438 8.92986 23.9324C8.40572 24.7211 7.66074 25.3357 6.78916 25.6986C5.91758 26.0614 4.95855 26.1563 4.03336 25.9711C3.10816 25.7859 2.25837 25.329 1.59146 24.6582C0.924558 23.9873 0.470496 23.1327 0.286705 22.2024C0.102915 21.2721 0.197652 20.3078 0.558936 19.4316C0.920221 18.5555 1.53182 17.8067 2.31639 17.28C3.10095 16.7534 4.02323 16.4725 4.96658 16.4729C6.23094 16.474 7.44317 16.9796 8.33701 17.8787C9.23086 18.7778 9.73322 19.9969 9.73376 21.2681ZM25.9507 4.96468C25.9507 5.91309 25.671 6.84021 25.147 7.62878C24.6229 8.41736 23.8781 9.03198 23.0066 9.39492C22.1352 9.75786 21.1762 9.85283 20.2511 9.6678C19.326 9.48277 18.4762 9.02607 17.8092 8.35544C17.1422 7.68482 16.688 6.83038 16.5039 5.9002C16.3199 4.97001 16.4144 4.00584 16.7753 3.12962C17.1363 2.25341 17.7476 1.50449 18.5319 0.977581C19.3162 0.450672 20.2383 0.169434 21.1815 0.169434C22.4462 0.169978 23.659 0.675365 24.5533 1.57453C25.4476 2.4737 25.9502 3.69307 25.9507 4.96468ZM42.1003 4.96468C42.1003 5.91274 41.8208 6.83953 41.2971 7.62793C40.7734 8.41633 40.029 9.03095 39.158 9.39413C38.287 9.75731 37.3285 9.85275 36.4036 9.66839C35.4787 9.48403 34.6289 9.02814 33.9616 8.35834C33.2943 7.68853 32.8394 6.83487 32.6545 5.90522C32.4695 4.97557 32.5628 4.01167 32.9225 3.13531C33.2822 2.25895 33.8922 1.50947 34.6755 0.981571C35.4587 0.453674 36.38 0.171059 37.3229 0.169434C38.5877 0.169434 39.8008 0.674645 40.6952 1.57393C41.5896 2.47321 42.0921 3.6929 42.0921 4.96468H42.1003ZM9.73376 37.5777C9.73376 38.5262 9.45399 39.4534 8.92986 40.2421C8.40572 41.0307 7.66074 41.6453 6.78916 42.0082C5.91758 42.3711 4.95855 42.4659 4.03336 42.2807C3.10816 42.0955 2.25837 41.6386 1.59146 40.9678C0.924558 40.2969 0.470496 39.4423 0.286705 38.512C0.102915 37.5817 0.197652 36.6174 0.558936 35.7413C0.920221 34.8651 1.53182 34.1163 2.31639 33.5896C3.10095 33.063 4.02323 32.7821 4.96658 32.7825C6.23094 32.7836 7.44317 33.2892 8.33701 34.1883C9.23086 35.0874 9.73322 36.3065 9.73376 37.5777Z"/>
</g>
</symbol>
<symbol id="telegram" viewBox="0 25 23">
<g>
<path d="M19.7457 22.7457C19.5541 22.7457 19.3638 22.6882 19.2006 22.5759L13.0333 18.3301L9.7255 20.7457C9.46607 20.935 9.13169 20.9827 8.83045 20.8734C8.5296 20.7638 8.30112 20.5109 8.21956 20.1973L6.55867 13.8092L0.624119 11.5062C0.250516 11.3612 0.00274112 10.9984 2.25906e-05 10.5925C-0.00269594 10.1865 0.240159 9.82034 0.611951 9.67018L23.1773 0.557503C23.2797 0.513359 23.388 0.48787 23.4973 0.481038C23.5364 0.478674 23.5756 0.478674 23.6146 0.480907C23.8409 0.494571 24.0631 0.588115 24.2366 0.760751C24.2546 0.778619 24.2717 0.796881 24.2879 0.815932C24.4316 0.982525 24.5105 1.18564 24.5254 1.39257C24.5291 1.4446 24.5288 1.49728 24.5243 1.54996C24.5212 1.58754 24.5158 1.62498 24.5083 1.66216L20.6994 21.9448C20.6382 22.2707 20.4197 22.5434 20.1178 22.6704C19.998 22.7209 19.8716 22.7457 19.7457 22.7457ZM13.5748 16.3215L19.0684 20.1034L22.0321 4.32121L11.328 14.7748L13.5489 16.3038C13.5578 16.3094 13.5664 16.3155 13.5748 16.3215ZM9.00159 15.4806L9.73715 18.3092L11.3219 17.1519L9.24678 15.7232C9.15033 15.657 9.06774 15.5745 9.00159 15.4806ZM3.64233 10.5674L7.71728 12.1486C8.0092 12.2618 8.22953 12.5109 8.30927 12.8176L8.82605 14.8053C8.84974 14.576 8.95214 14.3603 9.11849 14.1977L19.318 4.23713L3.64233 10.5674Z" fill="#95B03C"/>
</g>
</symbol>
<symbol id="whatsup" viewBox="0 25 25">
<g>
<path d="M8.65449 5.55664C8.6173 5.5595 8.57868 5.56804 8.54292 5.58091C7.39721 5.93278 6.58477 6.55639 6.14708 7.36597C5.70796 8.17555 5.65075 9.12531 5.83956 10.0922C6.21717 12.0203 7.55169 14.0958 9.24236 15.8237C10.9316 17.5515 12.967 18.9347 14.9109 19.3381C15.8821 19.5398 16.849 19.4868 17.6843 19.0477C18.5196 18.6086 19.1862 17.7933 19.5981 16.6289C19.6768 16.403 19.591 16.1541 19.3893 16.0253L15.7219 13.7268L15.7147 13.7167C15.6947 13.7067 15.6775 13.6953 15.6575 13.6853C15.6046 13.651 15.5445 13.6252 15.4816 13.6138C15.4758 13.6138 15.4687 13.6138 15.4644 13.6138C15.4501 13.6109 15.4372 13.6081 15.4258 13.6066C15.4229 13.6066 15.4201 13.6066 15.4158 13.6066C15.3314 13.6024 15.2456 13.6167 15.1683 13.6553C15.1383 13.6681 15.1111 13.6839 15.0854 13.7025C15.0696 13.7111 15.0553 13.7239 15.0382 13.7339C15.0324 13.7425 15.0281 13.7511 15.0224 13.7597C14.9995 13.7769 14.9824 13.7954 14.9666 13.8169L14.1628 14.6279C12.7052 13.8941 11.5839 12.6626 10.5755 11.002L11.3164 10.271C11.3307 10.2581 11.345 10.2453 11.3564 10.2296C11.3679 10.221 11.3793 10.2096 11.3893 10.1981C11.3893 10.1953 11.3893 10.1924 11.3893 10.191C11.3979 10.1795 11.4093 10.1709 11.4194 10.1581C11.4194 10.1552 11.4194 10.1537 11.4194 10.1523C11.4265 10.1423 11.4294 10.1352 11.4351 10.1266C11.4422 10.1209 11.4465 10.1151 11.4523 10.1108C11.458 10.098 11.4651 10.0837 11.468 10.0708C11.468 10.068 11.468 10.0665 11.468 10.0622C11.4709 10.0579 11.4737 10.0522 11.478 10.0465C11.4823 10.035 11.4866 10.0264 11.4937 10.0136C11.4966 10.0007 11.4995 9.98786 11.5009 9.97498C11.5009 9.97212 11.5009 9.97072 11.5009 9.96643C11.5052 9.95069 11.508 9.93496 11.5095 9.9178C11.5095 9.91637 11.5095 9.91345 11.5095 9.90916C11.5095 9.89628 11.5095 9.88196 11.5095 9.86909C11.5095 9.86622 11.5095 9.86484 11.5095 9.86341C11.5095 9.84911 11.5095 9.83482 11.5095 9.82194C11.5095 9.81622 11.5095 9.81195 11.5095 9.80623C11.5066 9.79192 11.5052 9.77755 11.5009 9.76467C11.5009 9.76181 11.5009 9.75894 11.5009 9.75751C11.4937 9.72748 11.4823 9.69751 11.4694 9.6689C11.4694 9.66747 11.4694 9.66457 11.4694 9.66314C11.4594 9.64169 11.4494 9.61877 11.438 9.59732L11.4308 9.5816C11.4265 9.57874 11.4251 9.5773 11.4222 9.57444L9.12937 5.81121C9.04068 5.66246 8.87906 5.56804 8.70312 5.56232C8.68739 5.55659 8.66879 5.55664 8.65449 5.55664ZM8.46854 6.69087L10.3452 9.78475L9.56419 10.5571C9.40113 10.7216 9.36824 10.9747 9.48409 11.1764C10.6741 13.239 12.0845 14.841 14.0584 15.7121C14.2515 15.7994 14.4775 15.7564 14.6276 15.6091L15.4558 14.7795L18.4796 16.6704C18.1449 17.4214 17.7086 17.872 17.208 18.1323C16.6301 18.4355 15.925 18.4913 15.1183 18.3254C13.5048 17.9907 11.5581 16.7234 9.97041 15.1013C8.38558 13.4793 7.15691 11.5026 6.84223 9.89772C6.68776 9.09529 6.75498 8.40443 7.0525 7.85661C7.30996 7.38459 7.74336 6.9798 8.46854 6.69087Z" fill="#95B03C" stroke="#95B03C" stroke-width="0.5"/>
<path d="M15.9545 19.6272C15.6083 19.6272 15.2436 19.5885 14.8717 19.5113C13.0294 19.128 10.984 17.8635 9.11165 15.9469C7.27507 14.0702 6.01779 11.949 5.66164 10.1253C5.44851 9.02966 5.55722 8.07277 5.98776 7.27893C6.45548 6.41356 7.31941 5.76564 8.48801 5.40805C8.53378 5.39231 8.58671 5.38079 8.6382 5.37793H8.6997C8.94286 5.38651 9.15742 5.51245 9.279 5.71413L11.5904 9.50599C11.6019 9.52888 11.6148 9.55457 11.6248 9.57889L11.6419 9.62184C11.6534 9.65188 11.6648 9.68187 11.672 9.71334L11.6849 9.91509C11.6834 9.94942 11.6791 9.97369 11.6734 9.99515C11.672 10.0209 11.6691 10.0352 11.6648 10.0495L11.6305 10.1354C11.6248 10.1568 11.6205 10.1668 11.6162 10.1768L11.5661 10.264L11.5132 10.3241C11.4975 10.3398 11.4817 10.3556 11.466 10.3684C11.4689 10.367 11.456 10.3827 11.4331 10.4028L10.7995 11.0293C11.8136 12.6699 12.8763 13.7484 14.125 14.4092L14.8373 13.6912C14.8445 13.6797 14.8631 13.6612 14.8845 13.6411L14.9446 13.5811L15.0605 13.7184L14.9918 13.5496C15.0118 13.5324 15.0519 13.5096 15.0948 13.491C15.1763 13.4509 15.2779 13.428 15.3809 13.428L15.441 13.4294C15.4624 13.4309 15.481 13.4351 15.5039 13.4409C15.594 13.4552 15.677 13.4895 15.7499 13.5352L15.8114 13.5782L15.8128 13.5753L19.4803 15.8754C19.752 16.0484 19.8679 16.3817 19.762 16.6878C19.3444 17.8678 18.6535 18.7403 17.7638 19.2066C17.2318 19.4841 16.621 19.6272 15.9545 19.6272ZM8.69398 5.73272H8.65107C8.64392 5.73415 8.62104 5.73846 8.59815 5.74704C7.51537 6.07888 6.72296 6.66671 6.301 7.44768C5.91195 8.16572 5.81468 9.04395 6.01207 10.0552C6.35536 11.8117 7.57831 13.8685 9.36768 15.6951C11.1914 17.5617 13.1724 18.7918 14.9446 19.1609C15.9487 19.3668 16.8613 19.2738 17.5979 18.8876C18.4075 18.4614 19.0397 17.6604 19.4259 16.5662C19.4774 16.4188 19.4216 16.2572 19.29 16.1743L15.5582 13.8328C15.5225 13.8099 15.4824 13.7942 15.4438 13.7856L15.3823 13.7812C15.3337 13.7812 15.2865 13.7913 15.2436 13.8114C15.2193 13.8214 15.2035 13.8314 15.1906 13.8414L15.0919 13.9372L14.1951 14.8412L14.0793 14.7825C12.6875 14.0816 11.5247 12.9088 10.4204 11.0894L10.3475 10.9693L11.2872 10.0238V9.97943L11.3258 9.91509L11.3273 9.81775L11.3187 9.7906V9.76633C11.3172 9.76633 11.3115 9.75345 11.3058 9.74057L11.2872 9.69474C11.2844 9.68902 11.2829 9.6848 11.2801 9.68051L11.2829 9.67903L8.97433 5.8972C8.91426 5.79851 8.80984 5.73702 8.69398 5.73272ZM15.963 18.593C15.687 18.593 15.3909 18.5616 15.0819 18.4972C13.4814 18.1654 11.5232 16.9409 9.84256 15.2245C8.16761 13.5095 6.98185 11.5313 6.66717 9.92932C6.50268 9.07826 6.57992 8.35023 6.89603 7.76808C7.19497 7.2131 7.68702 6.80544 8.39933 6.5208L8.54094 6.46501L10.5677 9.80919L9.68665 10.6803C9.58223 10.7861 9.56078 10.9521 9.63659 11.0822C10.9468 13.3522 12.3743 14.7697 14.1293 15.5435C14.2581 15.6022 14.4054 15.5706 14.5012 15.4762L15.4281 14.5465L18.705 16.5977L18.6421 16.7393C18.3131 17.4788 17.8697 17.9851 17.2904 18.2869C16.9042 18.49 16.4579 18.593 15.963 18.593ZM8.39361 6.91269C7.8372 7.16015 7.44958 7.49634 7.21071 7.93832C6.93465 8.44609 6.87028 9.0926 7.01761 9.8607C7.31369 11.3726 8.49373 13.3322 10.0972 14.9742C11.7306 16.642 13.6201 17.8292 15.1535 18.1482C15.9244 18.3069 16.5952 18.2469 17.1245 17.9723C17.5936 17.7262 17.9627 17.3214 18.2487 16.7349L15.4796 15.0043L14.7515 15.7323C14.547 15.9311 14.2352 15.9854 13.9806 15.8739C12.154 15.0686 10.6736 13.604 9.32477 11.2639C9.16886 10.9936 9.2132 10.6503 9.43205 10.43L10.1143 9.7548L8.39361 6.91269Z" fill="#95B03C" stroke="#95B03C" stroke-width="0.5"/>
<path d="M12.6843 1.17603C6.44079 1.17603 1.36304 6.24945 1.36304 12.4972C1.36304 14.7686 2.0353 16.8898 3.22249 18.7107L1.95663 22.9345C1.87367 23.2077 2.02815 23.4938 2.30135 23.5753C2.40433 23.6053 2.51447 23.6039 2.61603 23.5681L6.75117 22.1421C8.47475 23.2034 10.5116 23.8184 12.6843 23.8184C18.9306 23.8184 24.0055 18.7436 24.0055 12.4972C24.0055 6.25088 18.9306 1.17603 12.6843 1.17603ZM12.6843 2.20444C18.3756 2.20444 22.9771 6.80586 22.9771 12.4972C22.9771 18.1886 18.3742 22.79 12.6843 22.79C10.6217 22.79 8.70217 22.1836 7.09875 21.1437C6.9643 21.055 6.79981 21.0378 6.65105 21.0879L3.23108 22.268L4.27666 18.7736C4.32101 18.6249 4.29669 18.4646 4.20801 18.3359C3.04656 16.6309 2.39289 14.6428 2.39289 12.4972C2.39432 6.80586 6.99576 2.20444 12.6843 2.20444Z" fill="#95B03C" stroke="#95B03C" stroke-width="0.5"/>
<path d="M12.6835 24C10.5766 24 8.51975 23.4279 6.72752 22.3422L2.67247 23.7412C2.53658 23.7869 2.3864 23.7898 2.24908 23.7512C2.07029 23.6968 1.92439 23.5781 1.83571 23.4165C1.74846 23.2534 1.72987 23.066 1.78279 22.8873L3.02434 18.7435C1.81998 16.864 1.18347 14.707 1.18347 12.5C1.18347 6.15925 6.34275 1 12.6835 1C19.0257 1 24.1835 6.15925 24.1835 12.5C24.1835 18.8422 19.0257 24 12.6835 24ZM6.77186 21.9489L6.84338 21.9933C8.59556 23.0732 10.6152 23.6424 12.6835 23.6424C18.8283 23.6424 23.8259 18.6448 23.8259 12.5C23.8259 6.35664 18.8283 1.35759 12.6835 1.35759C6.54014 1.35759 1.54106 6.35664 1.54106 12.5C1.54106 14.6656 2.17328 16.7796 3.37048 18.6148L3.41625 18.6848L2.1275 22.9888C2.10176 23.076 2.11034 23.1662 2.15325 23.2448C2.19616 23.3235 2.26768 23.3821 2.3535 23.4064C2.41787 23.4279 2.49367 23.4265 2.55804 23.4022L6.77186 21.9489ZM12.6835 22.9716C10.6553 22.9716 8.68996 22.3923 7.00071 21.2952C6.91346 21.2394 6.80333 21.228 6.70606 21.2595L2.95854 22.5525L4.10425 18.7235C4.13429 18.6276 4.11712 18.5232 4.05991 18.4388C2.85269 16.668 2.21333 14.6126 2.21333 12.5C2.21333 6.72567 6.90917 2.02841 12.6821 2.02841C18.4564 2.02841 23.1537 6.72567 23.1537 12.5C23.1551 18.2743 18.4578 22.9716 12.6835 22.9716ZM6.81763 20.8847C6.95208 20.8847 7.08367 20.9233 7.19524 20.9977C8.82584 22.0547 10.7239 22.6155 12.6835 22.6155C18.2604 22.6155 22.7975 18.0783 22.7975 12.5014C22.7975 6.92445 18.2604 2.3874 12.6835 2.3874C7.10799 2.3874 2.57234 6.92445 2.57234 12.5014C2.57234 14.5439 3.18883 16.5264 4.35599 18.24C4.47471 18.4131 4.50761 18.6276 4.44754 18.8293L3.50064 21.9904L6.5902 20.9219C6.66601 20.8962 6.74039 20.8847 6.81763 20.8847Z" fill="#95B03C" stroke="#95B03C" stroke-width="0.5"/>
</g>
</symbol>
</svg>

































