<svg width="20" height="20" viewBox="0 0 20 20" fill="none" xmlns="http://www.w3.org/2000/svg">
<path d="M9.93121 5.07397C6.9811 5.07397 4.58032 7.37037 4.58032 10.1922C4.58032 13.0141 6.9811 15.3092 9.93121 15.3092C12.8813 15.3092 15.2808 13.0141 15.2808 10.1922C15.2808 7.37037 12.8813 5.07397 9.93121 5.07397ZM9.93121 13.8509C7.82163 13.8509 6.10624 12.2089 6.10624 10.1922C6.10624 8.17435 7.82163 6.53355 9.93121 6.53355C12.0395 6.53355 13.7562 8.17435 13.7562 10.1922C13.7549 12.2089 12.0395 13.8509 9.93121 13.8509Z" fill="#95B03C"/>
<path d="M15.8646 5.56886C16.2543 5.56886 16.5703 5.26662 16.5703 4.8938C16.5703 4.52098 16.2543 4.21875 15.8646 4.21875C15.4748 4.21875 15.1588 4.52098 15.1588 4.8938C15.1588 5.26662 15.4748 5.56886 15.8646 5.56886Z" fill="#95B03C"/>
<path d="M15.2592 0.691406H4.60191C2.05999 0.691406 0 2.66305 0 5.09445V15.2884C0 17.7198 2.06126 19.6914 4.60191 19.6914H15.2592C17.8011 19.6914 19.8624 17.7198 19.8624 15.2884V5.09567C19.8624 2.66305 17.8011 0.691406 15.2592 0.691406ZM18.3364 15.2884C18.3364 16.9109 16.9555 18.2318 15.2592 18.2318H4.60191C2.9056 18.2318 1.52592 16.9109 1.52592 15.2884V5.09567C1.52592 3.47311 2.9056 2.1522 4.60191 2.1522H15.2592C16.9555 2.1522 18.3364 3.47189 18.3364 5.09567V15.2884Z" fill="#95B03C"/>
</svg>
