<svg width="43" height="33" viewBox="0 0 43 33" fill="none" xmlns="http://www.w3.org/2000/svg">
<path d="M43 26.2363C43 29.8875 40.0037 32.8606 36.324 32.8606H0V6.62429C0 2.9731 2.99633 0 6.67604 0H43V26.2363Z" fill="white"/>
<path d="M31.1724 19.5078H33.9321C34.011 19.5078 34.195 19.4817 34.2738 19.4817C34.7995 19.3774 35.2463 18.908 35.2463 18.256C35.2463 17.6301 34.7995 17.1606 34.2738 17.0302C34.195 17.0042 34.0373 17.0042 33.9321 17.0042H31.1724V19.5078Z" fill="#BCBCBC"/>
<path d="M33.6165 2.2168C30.9882 2.2168 28.8329 4.32927 28.8329 6.96333V11.8924H35.5878C35.7455 11.8924 35.9295 11.8924 36.0609 11.9185C37.5854 11.9967 38.7156 12.7791 38.7156 14.1353C38.7156 15.2046 37.9533 16.1174 36.534 16.2999V16.3521C38.0848 16.4564 39.2675 17.317 39.2675 18.6471C39.2675 20.0815 37.9533 21.0204 36.2186 21.0204H28.8066V30.6699H35.8244C38.4527 30.6699 40.608 28.5575 40.608 25.9234V2.2168H33.6165Z" fill="url(#paint0_linear)"/>
<path d="M34.9046 14.4483C34.9046 13.8224 34.4578 13.4051 33.9321 13.3269C33.8796 13.3269 33.7482 13.3008 33.6693 13.3008H31.1724V15.5958H33.6693C33.7482 15.5958 33.9059 15.5958 33.9321 15.5697C34.4578 15.4915 34.9046 15.0742 34.9046 14.4483Z" fill="#BCBCBC"/>
<path d="M7.17538 2.2168C4.54702 2.2168 2.39176 4.32927 2.39176 6.96333V18.6732C3.73223 19.3252 5.12526 19.7425 6.51829 19.7425C8.17416 19.7425 9.0678 18.7514 9.0678 17.3953V11.8663H13.168V17.3692C13.168 19.5077 11.8276 21.2551 7.28052 21.2551C4.52074 21.2551 2.36548 20.6553 2.36548 20.6553V30.6439H9.38321C12.0116 30.6439 14.1668 28.5314 14.1668 25.8973V2.2168H7.17538Z" fill="url(#paint1_linear)"/>
<path d="M20.3959 2.2168C17.7676 2.2168 15.6123 4.32927 15.6123 6.96333V13.1703C16.8214 12.1532 18.924 11.5012 22.3146 11.6577C24.1282 11.7359 26.0732 12.2315 26.0732 12.2315V14.2396C25.1007 13.7441 23.9442 13.3007 22.446 13.1964C19.8703 13.0139 18.3195 14.2657 18.3195 16.4564C18.3195 18.6732 19.8703 19.925 22.446 19.7164C23.9442 19.6121 25.1007 19.1426 26.0732 18.6732V20.6813C26.0732 20.6813 24.1545 21.1769 22.3146 21.2551C18.924 21.4116 16.8214 20.7596 15.6123 19.7425V30.696H22.63C25.2584 30.696 27.4136 28.5835 27.4136 25.9495V2.2168H20.3959Z" fill="url(#paint2_linear)"/>
<defs>
<linearGradient id="paint0_linear" x1="28.8282" y1="16.432" x2="40.6403" y2="16.432" gradientUnits="userSpaceOnUse">
<stop stop-color="#B2B2B2"/>
<stop offset="0.2285" stop-color="#B9B9B9"/>
<stop offset="0.7433" stop-color="#C5C5C5"/>
<stop offset="1" stop-color="#CECECE"/>
</linearGradient>
<linearGradient id="paint1_linear" x1="2.3862" y1="16.432" x2="14.3802" y2="16.432" gradientUnits="userSpaceOnUse">
<stop stop-color="#999999"/>
<stop offset="0.4751" stop-color="#A0A0A0"/>
<stop offset="0.8261" stop-color="#ADADAD"/>
<stop offset="1" stop-color="#B4B4B4"/>
</linearGradient>
<linearGradient id="paint2_linear" x1="15.5443" y1="16.432" x2="27.1933" y2="16.432" gradientUnits="userSpaceOnUse">
<stop stop-color="#A0A0A0"/>
<stop offset="0.1735" stop-color="#A7A7A7"/>
<stop offset="0.5731" stop-color="#B2B2B2"/>
<stop offset="0.8585" stop-color="#B4B4B4"/>
<stop offset="1" stop-color="#B8B8B8"/>
</linearGradient>
</defs>
</svg>
