<svg width="220" height="48" viewBox="0 0 220 48" fill="none" xmlns="http://www.w3.org/2000/svg">
<path fill-rule="evenodd" clip-rule="evenodd" d="M135.514 45.9899V42.5612C135.521 42.2823 135.475 42.0046 135.379 41.741C135.272 41.4745 135.104 41.2342 134.886 41.0379C134.721 40.881 134.52 40.761 134.3 40.6864C134.048 40.6021 133.782 40.5593 133.515 40.5598C133.298 40.5582 133.082 40.5818 132.872 40.6301C132.677 40.6806 132.491 40.7597 132.321 40.8645C132.14 40.9722 131.975 41.1014 131.828 41.2488C131.66 41.026 131.435 40.8484 131.173 40.7333C130.907 40.6182 130.618 40.5614 130.326 40.5669C130.153 40.568 129.981 40.5892 129.814 40.6301C129.646 40.6727 129.484 40.7365 129.334 40.82C129.183 40.9028 129.043 41.0045 128.92 41.1223V40.6278H127.549V45.9899H128.957V42.7487C128.952 42.5888 128.981 42.4295 129.041 42.28C129.088 42.1648 129.163 42.0619 129.26 41.98C129.348 41.9053 129.451 41.8486 129.563 41.8136C129.671 41.78 129.784 41.7634 129.898 41.7644C130.011 41.7647 130.123 41.7813 130.23 41.8136C130.34 41.8493 130.442 41.9059 130.528 41.98C130.623 42.0629 130.696 42.1656 130.742 42.28C130.802 42.4295 130.831 42.5888 130.826 42.7487V45.9899H132.232V42.7089C132.229 42.5565 132.258 42.405 132.318 42.2636C132.369 42.1524 132.444 42.0532 132.54 41.973C132.628 41.9006 132.731 41.8456 132.843 41.8113C132.949 41.778 133.06 41.7614 133.172 41.7621C133.286 41.7622 133.399 41.7788 133.507 41.8113C133.617 41.8464 133.718 41.9031 133.803 41.9777C133.899 42.0597 133.974 42.1626 134.019 42.2777C134.078 42.4274 134.107 42.5865 134.103 42.7464V45.9875L135.514 45.9899ZM123.41 43.3041C123.414 43.5085 123.403 43.7129 123.378 43.9158C123.363 44.0835 123.321 44.248 123.252 44.4033C123.193 44.537 123.092 44.6505 122.964 44.729C122.809 44.8074 122.635 44.8484 122.459 44.8484C122.283 44.8484 122.11 44.8074 121.955 44.729C121.826 44.6505 121.726 44.537 121.667 44.4033C121.599 44.2478 121.555 44.0835 121.539 43.9158C121.516 43.7127 121.505 43.5084 121.507 43.3041C121.505 43.1006 121.516 42.8972 121.539 42.6948C121.555 42.5279 121.599 42.3644 121.667 42.2097C121.726 42.0771 121.826 41.965 121.955 41.8886C122.108 41.8046 122.283 41.764 122.459 41.7715C122.632 41.7673 122.802 41.8078 122.952 41.8886C123.08 41.965 123.181 42.0771 123.24 42.2097C123.308 42.3642 123.351 42.5279 123.366 42.6948C123.395 42.8967 123.41 43.1003 123.41 43.3041ZM124.816 43.3041C124.816 43.1003 124.816 42.8987 124.816 42.6901C124.809 42.4842 124.787 42.2791 124.749 42.0761C124.718 41.8833 124.661 41.6951 124.579 41.516C124.443 41.2045 124.195 40.9488 123.88 40.7942C123.733 40.7186 123.575 40.6618 123.412 40.6254C123.238 40.5867 123.06 40.567 122.88 40.5669C122.614 40.5605 122.349 40.6043 122.1 40.6958C121.859 40.794 121.645 40.944 121.475 41.134V40.6278H120.093V47.9515H121.497V45.5165C121.661 45.6975 121.868 45.8395 122.1 45.9313C122.343 46.0166 122.602 46.0572 122.861 46.0508C123.04 46.0518 123.218 46.0322 123.393 45.9922C123.556 45.9567 123.713 45.9007 123.86 45.8258C124.177 45.6724 124.426 45.4153 124.56 45.1017C124.64 44.9207 124.697 44.731 124.73 44.5369C124.767 44.3339 124.789 44.1287 124.796 43.9229C124.816 43.7119 124.818 43.4987 124.816 43.3041ZM115.952 43.3041C115.952 43.4893 115.952 43.6651 115.932 43.8291C115.921 43.9796 115.891 44.1283 115.843 44.272C115.798 44.3986 115.725 44.5144 115.629 44.6119C115.547 44.6879 115.45 44.7476 115.344 44.7876C115.224 44.8293 115.097 44.8499 114.969 44.8486C114.843 44.8504 114.716 44.8297 114.598 44.7876C114.493 44.7481 114.398 44.6882 114.319 44.6119C114.222 44.5157 114.148 44.3994 114.105 44.272C114.056 44.1284 114.026 43.9797 114.014 43.8291C113.999 43.6651 113.992 43.4893 113.994 43.3041C113.997 43.119 113.994 42.9456 114.014 42.7839C114.026 42.6341 114.056 42.4861 114.105 42.3433C114.148 42.2173 114.222 42.1026 114.319 42.0082C114.399 41.9318 114.493 41.8713 114.598 41.83C114.717 41.7897 114.843 41.7699 114.969 41.7715C115.097 41.7703 115.223 41.7901 115.344 41.83C115.45 41.8709 115.547 41.9314 115.629 42.0082C115.725 42.1042 115.798 42.2185 115.843 42.3433C115.891 42.4862 115.921 42.6342 115.932 42.7839C115.949 42.9432 115.957 43.119 115.954 43.3041H115.952ZM117.358 43.3041C117.36 43.0175 117.343 42.731 117.306 42.4464C117.274 42.2147 117.209 41.9883 117.112 41.7738C117.015 41.5708 116.883 41.3853 116.72 41.2254C116.594 41.1002 116.452 40.9908 116.297 40.8996C116.115 40.7958 115.92 40.7169 115.715 40.6653C115.227 40.5403 114.712 40.5403 114.223 40.6653C114.021 40.7169 113.827 40.7958 113.647 40.8996C113.494 40.9907 113.353 41.1001 113.229 41.2254C113.065 41.3846 112.932 41.5703 112.837 41.7738C112.737 41.9875 112.672 42.2142 112.643 42.4464C112.604 42.7308 112.586 43.0174 112.588 43.3041C112.586 43.5932 112.604 43.8822 112.643 44.1689C112.672 44.4026 112.737 44.6309 112.837 44.8462C112.933 45.0489 113.065 45.2338 113.229 45.3923C113.352 45.5189 113.493 45.6292 113.647 45.7204C113.827 45.8233 114.021 45.9021 114.223 45.9547C114.464 46.0169 114.713 46.0476 114.962 46.0461C115.211 46.0485 115.46 46.0177 115.701 45.9547C115.905 45.9021 116.1 45.8233 116.282 45.7204C116.437 45.6292 116.58 45.5189 116.705 45.3923C116.868 45.2332 117 45.0484 117.097 44.8462C117.195 44.6302 117.26 44.4022 117.291 44.1689C117.334 43.8824 117.357 43.5935 117.36 43.3041H117.358ZM110.518 45.9899V44.8579H109.976C109.907 44.8644 109.837 44.8568 109.772 44.8358C109.706 44.8148 109.645 44.7808 109.594 44.7361C109.509 44.634 109.468 44.5051 109.479 44.3752V38.6615H108.078V44.4572C108.076 44.6475 108.108 44.8367 108.171 45.0173C108.232 45.198 108.332 45.3648 108.464 45.5071C108.604 45.6607 108.779 45.7811 108.976 45.8586C109.21 45.9503 109.462 45.995 109.715 45.9899H110.518ZM104.045 42.8097H101.905C101.906 42.739 101.912 42.6685 101.925 42.5987C101.934 42.5378 101.947 42.4776 101.964 42.4183C101.984 42.3552 102.007 42.2933 102.035 42.2331C102.085 42.1267 102.154 42.0299 102.24 41.9472C102.329 41.8627 102.435 41.7965 102.552 41.7527C102.824 41.6528 103.125 41.6528 103.397 41.7527C103.514 41.7965 103.621 41.8627 103.71 41.9472C103.796 42.0304 103.866 42.1271 103.917 42.2331C103.943 42.2936 103.966 42.3554 103.985 42.4183C104.005 42.477 104.018 42.5374 104.025 42.5987C104.038 42.6684 104.045 42.7389 104.047 42.8097H104.045ZM105.431 43.726V43.1307C105.435 42.7838 105.379 42.4386 105.266 42.1089C105.165 41.8109 105.003 41.5346 104.791 41.2957C104.579 41.0644 104.316 40.8818 104.02 40.7614C103.69 40.6293 103.334 40.5631 102.976 40.5669C102.633 40.5639 102.292 40.626 101.974 40.7497C101.677 40.8677 101.413 41.0489 101.201 41.2793C100.977 41.5315 100.81 41.824 100.708 42.1394C100.586 42.5189 100.526 42.9142 100.531 43.3112C100.525 43.6891 100.573 44.066 100.674 44.4314C100.754 44.7129 100.885 44.9788 101.063 45.2165C101.222 45.417 101.419 45.5872 101.644 45.718C101.864 45.8414 102.103 45.9308 102.353 45.9828C102.61 46.035 102.873 46.0602 103.136 46.0578C103.432 46.0632 103.728 46.0308 104.015 45.9618C104.255 45.9012 104.484 45.8047 104.692 45.6758C104.905 45.541 105.1 45.3838 105.276 45.2071L104.424 44.4127C104.316 44.5179 104.197 44.6121 104.069 44.6939C103.948 44.7702 103.814 44.8272 103.673 44.8626C103.5 44.9018 103.323 44.9207 103.146 44.9189C102.912 44.9235 102.681 44.8694 102.476 44.7619C102.297 44.6623 102.152 44.5159 102.058 44.34C101.96 44.148 101.911 43.9369 101.915 43.7237L105.431 43.726ZM98.6721 40.6278H97.1947L96.0597 43.9416L94.9123 40.6278H93.4349L95.5106 45.9899H96.6136L98.6721 40.6278ZM90.2021 42.8097H88.0624C88.0639 42.7391 88.0696 42.6687 88.0796 42.5987C88.0887 42.5378 88.1019 42.4776 88.119 42.4183C88.1387 42.3597 88.1609 42.2988 88.1904 42.2331C88.2405 42.1272 88.3097 42.0305 88.3948 41.9472C88.4849 41.8627 88.5921 41.7965 88.71 41.7527C88.9808 41.6527 89.2812 41.6527 89.552 41.7527C89.6692 41.7965 89.7756 41.8627 89.8647 41.9472C89.9514 42.0298 90.0215 42.1266 90.0716 42.2331C90.0989 42.2936 90.1227 42.3554 90.143 42.4183C90.1604 42.4775 90.1735 42.5378 90.1824 42.5987C90.1971 42.662 90.2021 42.7347 90.207 42.8097H90.2021ZM91.5858 43.726V43.1307C91.5898 42.784 91.5349 42.439 91.4233 42.1089C91.3215 41.8107 91.1592 41.5344 90.9456 41.2957C90.7345 41.0644 90.471 40.8818 90.175 40.7614C89.8446 40.6293 89.4893 40.5631 89.131 40.5669C88.7883 40.5639 88.4485 40.626 88.1313 40.7497C87.8338 40.8677 87.5685 41.0488 87.3558 41.2793C87.1324 41.5315 86.9649 41.824 86.8633 42.1394C86.7408 42.5189 86.681 42.9142 86.686 43.3112C86.6802 43.6892 86.7291 44.0661 86.8313 44.4314C86.9101 44.7133 87.0419 44.9793 87.2203 45.2165C87.3776 45.4174 87.5741 45.5877 87.7989 45.718C88.02 45.8414 88.2602 45.9308 88.5105 45.9828C88.767 46.0352 89.0288 46.0603 89.291 46.0578C89.588 46.0631 89.8845 46.0308 90.1725 45.9618C90.4125 45.9008 90.641 45.8043 90.8496 45.6758C91.0616 45.5404 91.2573 45.3832 91.4332 45.2071L90.5788 44.4127C90.4723 44.519 90.3533 44.6134 90.2242 44.6939C90.103 44.771 89.969 44.8281 89.8278 44.8626C89.6561 44.9018 89.4799 44.9207 89.3034 44.9189C89.0694 44.9242 88.8382 44.87 88.6336 44.7619C88.4539 44.663 88.3085 44.5164 88.2151 44.34C88.1155 44.1486 88.0657 43.9372 88.0698 43.7237L91.5858 43.726ZM82.5717 43.3041C82.5749 43.5084 82.5651 43.7127 82.5421 43.9158C82.5226 44.0835 82.4778 44.2477 82.4092 44.4033C82.3479 44.5373 82.2458 44.6508 82.1162 44.729C81.962 44.8127 81.7864 44.8541 81.609 44.8486C81.4364 44.8525 81.266 44.8111 81.1165 44.729C80.9874 44.6514 80.8868 44.5376 80.8284 44.4033C80.7596 44.2479 80.7156 44.0836 80.6979 43.9158C80.6762 43.7126 80.6664 43.5084 80.6684 43.3041C80.6675 43.1007 80.6774 42.8973 80.6979 42.6948C80.7156 42.5278 80.7595 42.3642 80.8284 42.2097C80.8876 42.0771 80.9882 41.965 81.1165 41.8886C81.266 41.8067 81.4365 41.7661 81.609 41.7715C81.7862 41.7652 81.9617 41.8058 82.1162 41.8886C82.2496 41.964 82.356 42.0759 82.4215 42.2097C82.4901 42.3645 82.5349 42.5279 82.5544 42.6948C82.575 42.8973 82.5824 43.1008 82.5766 43.3041H82.5717ZM83.9776 45.9899V38.6615H82.5717V41.1012C82.4057 40.9197 82.1974 40.7777 81.9635 40.6864C81.7192 40.6014 81.4603 40.5609 81.2002 40.5669C81.0212 40.5667 80.8427 40.5864 80.6684 40.6254C80.5045 40.6618 80.3464 40.7185 80.1981 40.7942C80.0608 40.8611 79.9353 40.9481 79.8263 41.052C79.687 41.1871 79.5759 41.3462 79.4988 41.5207C79.4195 41.7005 79.3624 41.8884 79.3289 42.0808C79.2939 42.284 79.2725 42.4891 79.2649 42.6948C79.2649 42.9011 79.2502 43.1073 79.2526 43.3088C79.2551 43.5104 79.2526 43.7166 79.2649 43.9275C79.2725 44.1333 79.2939 44.3384 79.3289 44.5416C79.3625 44.7354 79.4195 44.925 79.4988 45.1064C79.577 45.2803 79.688 45.4392 79.8263 45.5751C79.9373 45.6772 80.0634 45.7632 80.2006 45.8305C80.3509 45.9051 80.5106 45.961 80.6758 45.9969C80.8508 46.0367 81.0302 46.0564 81.2101 46.0555C81.3914 46.0579 81.5724 46.0398 81.7493 46.0016C81.9094 45.9645 82.0623 45.9036 82.2023 45.8211C82.3527 45.7306 82.4879 45.6192 82.6037 45.4907V45.9946L83.9776 45.9899ZM70.9525 40.3395C70.9525 40.4649 70.9073 40.5865 70.8245 40.684C70.7357 40.7911 70.6293 40.8837 70.5093 40.9582L70.4502 40.9981L70.3173 41.0848L70.1868 41.1645C70.0932 41.0637 70.012 40.97 69.9406 40.8786C69.8697 40.7944 69.8086 40.7033 69.7584 40.6067C69.7122 40.5252 69.6869 40.4345 69.6845 40.3419C69.6806 40.2359 69.7061 40.1308 69.7584 40.0372C69.8031 39.9464 69.8774 39.8716 69.9701 39.824C70.0777 39.7675 70.1994 39.7399 70.3222 39.7443C70.4426 39.7405 70.5618 39.7681 70.6669 39.824C70.7607 39.8726 70.837 39.9469 70.886 40.0372C70.9358 40.1308 70.9603 40.2347 70.9575 40.3395H70.9525ZM71.3219 44.4056C71.1636 44.5441 70.9811 44.6552 70.7826 44.7337C70.5888 44.8052 70.3824 44.841 70.1745 44.8392C69.9692 44.8397 69.7667 44.7939 69.5835 44.7056C69.4121 44.6238 69.2674 44.499 69.165 44.3447C69.0611 44.1832 69.0065 43.9974 69.0074 43.808C69.0056 43.6515 69.0392 43.4965 69.1059 43.3534C69.1729 43.2208 69.2646 43.1008 69.3767 42.9995C69.5032 42.8845 69.6399 42.7802 69.7854 42.6878L71.3219 44.4056ZM74.5227 45.9899L73.1414 44.4361C73.4102 44.1464 73.6124 43.8063 73.7348 43.4377C73.8707 43.0244 73.9477 42.5956 73.9638 42.1628H72.6342C72.6273 42.406 72.5901 42.6475 72.5234 42.8823C72.4676 43.0859 72.3733 43.278 72.2452 43.4494L70.9476 41.9871L71.115 41.8769L71.2972 41.7504C71.3563 41.7105 71.4006 41.6754 71.44 41.6472L71.4991 41.6074C71.6504 41.5044 71.7898 41.3866 71.9152 41.2559C72.0298 41.1329 72.1222 40.9928 72.1886 40.8411C72.2563 40.6786 72.2898 40.505 72.287 40.3302C72.2919 40.0175 72.2067 39.7095 72.0408 39.4396C71.882 39.1777 71.6468 38.9652 71.3637 38.8279C71.0388 38.671 70.6791 38.5906 70.3148 38.5936C69.934 38.5863 69.5566 38.6624 69.2117 38.8162C68.9208 38.9469 68.6761 39.1554 68.5076 39.4162C68.3418 39.6844 68.2566 39.9909 68.2613 40.302C68.2621 40.4687 68.2878 40.6344 68.3377 40.7942C68.3846 40.941 68.4481 41.0824 68.5273 41.216C68.6016 41.3387 68.6838 41.4569 68.7735 41.5699C68.8621 41.6777 68.9483 41.7715 69.0197 41.8558C68.849 41.9652 68.6846 42.0834 68.5273 42.2097C68.3643 42.3402 68.2158 42.4863 68.0841 42.6456C67.951 42.8082 67.8432 42.9881 67.764 43.1799C67.6836 43.3854 67.6428 43.6029 67.6433 43.8221C67.6313 44.2342 67.7278 44.6427 67.924 45.0103C68.1143 45.3444 68.4107 45.6127 68.771 45.7766C69.2147 45.9668 69.698 46.0581 70.1843 46.0438C70.4276 46.0459 70.6704 46.0223 70.9082 45.9735C71.0977 45.9342 71.282 45.8744 71.4573 45.7954C71.6005 45.7288 71.7373 45.6504 71.866 45.561L72.1738 45.3267L72.7352 45.9641L74.5227 45.9899ZM62.3619 45.9899V42.5214C62.3651 42.2561 62.3244 41.9919 62.2412 41.7386C62.1678 41.5114 62.0463 41.3008 61.8842 41.1199C61.7232 40.9432 61.5219 40.8038 61.2957 40.7122C61.037 40.6124 60.7599 40.563 60.4808 40.5669C60.2338 40.5665 59.9893 40.6136 59.7618 40.7051C59.5244 40.8038 59.3095 40.9454 59.129 41.1223V38.6615H57.7256V45.9899H59.129V42.7089C59.1258 42.5569 59.1534 42.4057 59.2103 42.2636C59.2519 42.1582 59.3178 42.0629 59.4029 41.9846C59.4881 41.9064 59.5905 41.8472 59.7027 41.8113C59.8091 41.7777 59.9206 41.761 60.0326 41.7621C60.1452 41.7627 60.2571 41.7785 60.365 41.8089C60.4731 41.8425 60.5728 41.8967 60.658 41.9683C60.7523 42.0484 60.8249 42.1489 60.8698 42.2613C60.928 42.4038 60.9557 42.556 60.951 42.7089V45.9899H62.3619ZM55.2215 45.322L54.2834 44.4361C54.1987 44.5243 54.1037 44.6029 54.0002 44.6705C53.911 44.7299 53.8131 44.7765 53.7097 44.8087C53.6007 44.8378 53.488 44.852 53.3748 44.8509C53.2206 44.8535 53.0676 44.8239 52.9267 44.7642C52.791 44.7027 52.6715 44.613 52.5771 44.5017C52.4578 44.3606 52.3736 44.1955 52.3309 44.0189C52.2759 43.7883 52.2503 43.5523 52.2545 43.3159C52.2497 43.0794 52.2753 42.8433 52.3309 42.6128C52.3756 42.4412 52.4597 42.2811 52.5771 42.1441C52.671 42.0323 52.7906 41.9425 52.9267 41.8816C53.0676 41.8219 53.2206 41.7923 53.3748 41.7949C53.488 41.7938 53.6007 41.808 53.7097 41.8371C53.8136 41.8683 53.9116 41.915 54.0002 41.9753C54.1037 42.0429 54.1987 42.1215 54.2834 42.2097L55.2363 41.3051C55.0059 41.0675 54.7235 40.8811 54.409 40.759C54.0803 40.6345 53.7285 40.5747 53.3748 40.5833C53.1419 40.5822 52.9097 40.6074 52.6829 40.6583C52.4442 40.7139 52.2153 40.8023 52.0034 40.9207C51.7786 41.051 51.5808 41.2194 51.4198 41.4176C51.2334 41.6528 51.0948 41.919 51.0111 42.2027C50.8043 42.9357 50.8043 43.7077 51.0111 44.4408C51.0954 44.7242 51.2339 44.9904 51.4198 45.2259C51.5807 45.4254 51.7785 45.5954 52.0034 45.7274C52.2142 45.8486 52.4434 45.9379 52.6829 45.9922C52.9097 46.0431 53.1419 46.0683 53.3748 46.0672C53.7285 46.0739 54.0801 46.0133 54.409 45.8891C54.7238 45.7579 55.0058 45.5646 55.2363 45.322H55.2215ZM49.2556 41.0707C49.1382 40.9565 49.0058 40.8573 48.8616 40.7754C48.7268 40.7011 48.5805 40.6474 48.4283 40.6161C48.2665 40.5826 48.1014 40.5661 47.9358 40.5669C47.7408 40.5677 47.5469 40.5945 47.3597 40.6465C47.1864 40.6957 47.0208 40.7667 46.8672 40.8575C46.7331 40.9332 46.6132 41.0299 46.5127 41.1434V40.6278H45.1387V45.9899H46.5447V42.7581C46.5436 42.6078 46.5711 42.4585 46.6259 42.3175C46.6735 42.2024 46.7456 42.0979 46.8377 42.0105C46.9208 41.9324 47.0196 41.8711 47.1282 41.83C47.2314 41.7901 47.3419 41.7702 47.4532 41.7715C47.5546 41.7698 47.6557 41.7816 47.7536 41.8066C47.8362 41.8326 47.9149 41.8688 47.9875 41.9144C48.0629 41.9676 48.1337 42.0264 48.1993 42.0902L49.2556 41.0707ZM40.8323 44.0143C40.8358 44.1539 40.8201 44.2933 40.7856 44.4291C40.7595 44.5299 40.704 44.6217 40.6255 44.6939C40.5543 44.7633 40.471 44.8204 40.3793 44.8626C40.2885 44.9 40.1921 44.9237 40.0937 44.9329C39.9786 44.947 39.8626 44.9533 39.7465 44.9517C39.5274 44.9651 39.3103 44.9045 39.1334 44.7806C39.0674 44.7248 39.0155 44.6556 38.9814 44.5782C38.9473 44.5007 38.9319 44.4169 38.9364 44.333C38.932 44.249 38.9479 44.1651 38.9829 44.0879C39.0179 44.0107 39.0711 43.9422 39.1384 43.8877C39.3095 43.7718 39.5171 43.7148 39.7268 43.726H40.8397L40.8323 44.0143ZM42.2358 45.9899V42.4605C42.2557 42.1958 42.2115 41.9302 42.1064 41.6844C42.0014 41.4385 41.8384 41.219 41.6301 41.0426C41.2238 40.7262 40.628 40.5739 39.8376 40.5739C39.562 40.5698 39.2866 40.591 39.0152 40.6372C38.7867 40.679 38.5676 40.7583 38.3677 40.8715C38.1571 40.9919 37.9669 41.142 37.8038 41.3168L38.7025 42.1511C38.7871 42.0543 38.8839 41.9677 38.9906 41.8933C39.0923 41.8274 39.2058 41.7797 39.3255 41.7527C39.4757 41.7202 39.6295 41.7053 39.7834 41.7082C40.0679 41.6833 40.3525 41.7556 40.5861 41.9121C40.6752 41.9942 40.7436 42.0943 40.7862 42.2051C40.8288 42.3159 40.8446 42.4345 40.8323 42.5519V42.819H39.5028C39.2128 42.8163 38.9243 42.8582 38.6484 42.9432C38.4265 43.0128 38.2226 43.1262 38.0501 43.276C37.894 43.4136 37.7721 43.5825 37.693 43.7705C37.6155 43.9627 37.5762 44.167 37.5773 44.3728C37.5753 44.6003 37.6153 44.8264 37.6955 45.0407C37.7709 45.2413 37.8891 45.4248 38.0427 45.5798C38.2139 45.7398 38.421 45.8608 38.6484 45.9336C39.1012 46.0632 39.5804 46.0857 40.0444 45.9993C40.1985 45.9639 40.3462 45.9071 40.4827 45.8305C40.6214 45.7473 40.7495 45.649 40.8644 45.5376V46.0063L42.2358 45.9899ZM33.8938 42.8097H31.7542C31.7552 42.739 31.7618 42.6685 31.7739 42.5987C31.7806 42.5375 31.7938 42.477 31.8133 42.4183C31.8305 42.3597 31.8551 42.2988 31.8822 42.2331C31.9332 42.1271 32.0032 42.0304 32.0891 41.9472C32.1782 41.8627 32.2846 41.7965 32.4018 41.7527C32.6735 41.6528 32.9746 41.6528 33.2463 41.7527C33.3634 41.7965 33.4699 41.8627 33.559 41.9472C33.6449 42.0304 33.7149 42.1271 33.7658 42.2331C33.7924 42.2936 33.8154 42.3554 33.8348 42.4183C33.8533 42.4772 33.8665 42.5376 33.8741 42.5987C33.8861 42.6685 33.8927 42.739 33.8938 42.8097ZM35.2776 43.726V43.1307C35.2815 42.784 35.2267 42.439 35.1151 42.1089C35.0143 41.8103 34.8519 41.5338 34.6374 41.2957C34.4277 41.064 34.1649 40.8812 33.8692 40.7614C33.5388 40.6296 33.1835 40.5634 32.8253 40.5669C32.4818 40.5636 32.141 40.6258 31.8231 40.7497C31.5263 40.8677 31.2619 41.0489 31.05 41.2793C30.8266 41.5315 30.6591 41.824 30.5576 42.1394C30.4339 42.5187 30.3741 42.9141 30.3803 43.3112C30.3738 43.6891 30.4218 44.066 30.5231 44.4314C30.6019 44.7133 30.7337 44.9793 30.9121 45.2165C31.0709 45.417 31.2681 45.5872 31.4932 45.718C31.7134 45.8414 31.9527 45.9308 32.2023 45.9828C32.4596 46.0352 32.7222 46.0603 32.9853 46.0578C33.2815 46.063 33.5771 46.0307 33.8643 45.9618C34.1045 45.9012 34.3331 45.8047 34.5414 45.6758C34.7534 45.5404 34.9491 45.3832 35.125 45.2071L34.2706 44.4127C34.1644 44.5184 34.0463 44.6127 33.9185 44.6939C33.7968 44.7702 33.6629 44.8272 33.5221 44.8626C33.3503 44.9016 33.1742 44.9205 32.9976 44.9189C32.7629 44.9238 32.531 44.8697 32.3254 44.7619C32.1457 44.663 32.0003 44.5164 31.9068 44.34C31.8093 44.148 31.7604 43.9369 31.764 43.7237L35.2776 43.726ZM28.0707 44.3025C28.0811 44.1038 28.0494 43.9051 27.9775 43.7183C27.9056 43.5315 27.795 43.3604 27.6522 43.2151C27.3058 42.9171 26.8605 42.7446 26.394 42.7276L25.5076 42.6456C25.3783 42.6386 25.2518 42.6067 25.1358 42.5519C25.0629 42.5118 25.0039 42.4523 24.9659 42.3808C24.9379 42.3186 24.9236 42.2516 24.924 42.1839C24.9229 42.0932 24.9523 42.0046 25.0077 41.9308C25.0734 41.8452 25.1642 41.7799 25.2687 41.7433C25.4139 41.6899 25.5687 41.6644 25.7242 41.6683C25.889 41.6661 26.0536 41.6763 26.2167 41.6988C26.3709 41.7196 26.5221 41.7574 26.6673 41.8113C26.8052 41.8612 26.9321 41.9351 27.0415 42.0292L27.9082 41.1949C27.7313 41.0372 27.5273 40.9096 27.305 40.8176C27.0744 40.7227 26.8319 40.6565 26.5836 40.6208C26.3097 40.5819 26.0331 40.5639 25.7563 40.5669C25.478 40.5658 25.201 40.6029 24.9339 40.677C24.684 40.7467 24.4489 40.8578 24.2395 41.0051C24.0392 41.1459 23.8758 41.3287 23.7619 41.5394C23.6399 41.781 23.5785 42.0462 23.5823 42.3141C23.5862 42.5821 23.6552 42.8456 23.784 43.0839C23.9162 43.2963 24.114 43.4649 24.3503 43.5666C24.6269 43.6862 24.9238 43.7577 25.2269 43.7776L26.1133 43.8596C26.282 43.8638 26.4446 43.9206 26.5762 44.0213C26.6216 44.0647 26.6568 44.1168 26.6793 44.1742C26.7018 44.2316 26.7112 44.293 26.7067 44.3541C26.709 44.446 26.6787 44.5361 26.6205 44.6095C26.5601 44.6842 26.4815 44.7437 26.3915 44.7829C26.2906 44.8282 26.1837 44.8605 26.0739 44.879C25.9545 44.8998 25.8333 44.91 25.7119 44.9095C25.552 44.9117 25.3922 44.9007 25.2343 44.8767C25.0543 44.8517 24.8787 44.8036 24.7123 44.7337C24.5288 44.6534 24.3619 44.5423 24.2198 44.4056L23.3014 45.2798C23.4654 45.4384 23.6509 45.5756 23.853 45.6876C24.036 45.7894 24.2321 45.8682 24.4365 45.9219C24.6376 45.976 24.8438 46.0113 25.0521 46.0274C25.268 46.0479 25.4851 46.0565 25.7021 46.0532C26.0166 46.0553 26.3301 46.0199 26.6353 45.9477C26.9067 45.8827 27.1641 45.7733 27.3961 45.6243C27.6087 45.4829 27.7833 45.2959 27.9058 45.0782C28.0249 44.8358 28.0814 44.5699 28.0707 44.3025ZM19.7509 42.8097H17.6088C17.6088 42.7323 17.6088 42.662 17.6285 42.5987C17.6376 42.5378 17.6508 42.4776 17.6679 42.4183C17.6876 42.3597 17.7098 42.2988 17.7393 42.2331C17.7885 42.1267 17.8578 42.0299 17.9437 41.9472C18.0332 41.8632 18.1396 41.7971 18.2564 41.7527C18.5281 41.6528 18.8292 41.6528 19.1009 41.7527C19.218 41.7965 19.3245 41.8627 19.4136 41.9472C19.5003 42.0298 19.5703 42.1266 19.6204 42.2331C19.6478 42.2936 19.6716 42.3554 19.6918 42.4183C19.7092 42.4775 19.7224 42.5378 19.7312 42.5987C19.7411 42.662 19.746 42.7347 19.7509 42.8097ZM21.1347 43.726V43.1307C21.1386 42.784 21.0838 42.439 20.9722 42.1089C20.8704 41.8107 20.7081 41.5344 20.4945 41.2957C20.2834 41.0644 20.0199 40.8818 19.7238 40.7614C19.3935 40.6293 19.0382 40.5631 18.6799 40.5669C18.3372 40.5636 17.9973 40.6258 17.6802 40.7497C17.3823 40.8671 17.1169 41.0483 16.9046 41.2793C16.6802 41.5308 16.5126 41.8236 16.4122 42.1394C16.2874 42.5185 16.2268 42.914 16.2324 43.3112C16.2266 43.6892 16.2755 44.0661 16.3777 44.4314C16.4555 44.7137 16.5874 44.9798 16.7667 45.2165C16.9243 45.4181 17.1217 45.5884 17.3478 45.718C17.5678 45.8418 17.8072 45.9312 18.0569 45.9828C18.3134 46.0352 18.5752 46.0603 18.8375 46.0578C19.1336 46.0632 19.4292 46.0308 19.7165 45.9618C19.9574 45.9012 20.1868 45.8047 20.396 45.6758C20.6075 45.5398 20.8031 45.3827 20.9796 45.2071L20.1276 44.415C20.0206 44.5208 19.9017 44.6151 19.7731 44.6962C19.6526 44.773 19.5194 44.83 19.3791 44.865C19.2065 44.904 19.0296 44.9229 18.8522 44.9212C18.6175 44.9262 18.3857 44.872 18.18 44.7642C18.0011 44.6652 17.8564 44.5186 17.7639 44.3424C17.6643 44.1509 17.6145 43.9396 17.6187 43.726H21.1347ZM155.884 45.9899V44.8579H155.377C155.309 44.8634 155.242 44.8552 155.178 44.8337C155.114 44.8123 155.056 44.7782 155.007 44.7337C154.921 44.6331 154.879 44.5047 154.889 44.3752V41.7972H155.874V40.7778H154.889V39.1935H153.483V40.7778H152.887V41.7972H153.483V44.4525C153.483 44.6427 153.515 44.8318 153.577 45.0126C153.639 45.193 153.738 45.3596 153.87 45.5024C154.008 45.6549 154.182 45.7751 154.377 45.854C154.611 45.9458 154.863 45.9905 155.116 45.9852L155.884 45.9899ZM150.437 45.9899V42.5612C150.441 42.3736 150.426 42.1862 150.393 42.0011C150.358 41.8256 150.298 41.6554 150.216 41.4949C150.126 41.3224 150.008 41.1643 149.866 41.0262C149.703 40.8764 149.508 40.7607 149.295 40.6864C149.052 40.6012 148.795 40.5584 148.537 40.5598C148.363 40.56 148.19 40.5812 148.022 40.6231C147.681 40.7016 147.372 40.8726 147.131 41.1153V40.6208H145.757V45.9828H147.163V42.7487C147.159 42.5889 147.188 42.4298 147.246 42.28C147.293 42.1648 147.368 42.0619 147.466 41.98C147.554 41.9047 147.658 41.848 147.771 41.8136C147.878 41.78 147.99 41.7634 148.103 41.7644C148.216 41.7647 148.328 41.7813 148.436 41.8136C148.552 41.8509 148.659 41.9123 148.748 41.9933C148.837 42.0743 148.906 42.173 148.95 42.2824C149.009 42.432 149.037 42.5913 149.032 42.7511V45.9922L150.437 45.9899ZM141.674 42.8097H139.545C139.545 42.7323 139.545 42.662 139.564 42.5987C139.573 42.5378 139.587 42.4776 139.604 42.4183C139.623 42.3597 139.646 42.2988 139.675 42.2331C139.725 42.1266 139.795 42.0298 139.882 41.9472C139.971 41.8627 140.078 41.7965 140.195 41.7527C140.328 41.7012 140.472 41.6757 140.616 41.6777C140.76 41.6752 140.903 41.7007 141.037 41.7527C141.155 41.7965 141.262 41.8627 141.352 41.9472C141.438 42.0299 141.507 42.1267 141.556 42.2331C141.585 42.2932 141.609 42.355 141.628 42.4183C141.645 42.4775 141.658 42.5378 141.667 42.5987C141.674 42.6688 141.676 42.7393 141.674 42.8097ZM143.058 43.726V43.1307C143.062 42.784 143.007 42.439 142.896 42.1089C142.794 41.8107 142.632 41.5344 142.418 41.2957C142.207 41.065 141.945 40.8824 141.65 40.7614C141.319 40.6293 140.963 40.5631 140.603 40.5669C140.261 40.5636 139.921 40.6258 139.604 40.7497C139.307 40.8683 139.041 41.0494 138.828 41.2793C138.604 41.5308 138.436 41.8236 138.336 42.1394C138.211 42.5185 138.15 42.914 138.156 43.3112C138.15 43.6892 138.199 44.0661 138.301 44.4314C138.379 44.7137 138.511 44.9798 138.69 45.2165C138.848 45.4174 139.044 45.5877 139.269 45.718C139.49 45.841 139.73 45.9304 139.98 45.9828C140.238 46.0352 140.5 46.0603 140.763 46.0578C141.06 46.063 141.355 46.0307 141.642 45.9618C141.883 45.9012 142.111 45.8047 142.32 45.6758C142.532 45.5404 142.727 45.3832 142.903 45.2071L142.049 44.4127C141.943 44.5184 141.824 44.6127 141.697 44.6939C141.575 44.7702 141.441 44.8272 141.3 44.8626C141.128 44.9016 140.951 44.9205 140.773 44.9189C140.539 44.9242 140.308 44.87 140.104 44.7619C139.924 44.663 139.778 44.5164 139.685 44.34C139.59 44.1507 139.542 43.9429 139.545 43.733L143.058 43.726ZM14.6394 41.0707C14.5215 40.9571 14.3892 40.8579 14.2454 40.7754C14.1104 40.7015 13.9643 40.6478 13.8121 40.6161C13.6503 40.5826 13.4852 40.5661 13.3196 40.5669C12.9433 40.5659 12.5745 40.6667 12.256 40.8575C12.123 40.9338 12.0041 41.0304 11.9039 41.1434V40.6278H10.525V45.9899H11.931V42.7581C11.9279 42.6115 11.9521 42.4655 12.0024 42.3269C12.0491 42.2119 12.1204 42.1074 12.2117 42.0199C12.2957 41.9417 12.3953 41.8803 12.5047 41.8394C12.6078 41.7993 12.7183 41.7794 12.8297 41.7808C12.9302 41.7792 13.0305 41.791 13.1276 41.816C13.2146 41.8406 13.2976 41.8769 13.3738 41.9238C13.4487 41.9776 13.5194 42.0363 13.5856 42.0996L14.6394 41.0707ZM19.5343 18.7529H6.73078V30.9395H19.5343V18.7529ZM161.249 18.8912H173.932V30.9465H161.249V18.8912ZM154.67 37.0445H173.932V40.1286H161.17V46.1914H180.339V12.601H154.67V37.0445ZM193.846 37.2484V12.6549H219.453V18.7482H200.248V30.9348H219.453V37.0281L193.846 37.2484ZM190.18 3.47282H183.778V9.5661H190.18V3.47282ZM190.18 37.0164H183.778V12.6432H190.18V37.0164ZM144.6 18.7248H131.821V30.9465H144.6V18.7248ZM125.414 12.6549H151.021V37.0445H125.51V12.6549H125.414ZM115.541 37.0281H121.942V0.423828H115.541V37.0281ZM105.977 18.0194H93.1567V22.5214H105.977V18.0194ZM86.75 37.0468V12.601H112.384V27.935H93.1567V30.9465H105.904V37.0398L86.75 37.0468ZM64.9521 37.0281L58.5504 37.082V12.6713H84.1795V18.7529H64.9521V37.0281ZM29.3757 37.082V12.601H35.7774V30.9465H48.6203V12.6666H55.022V37.0398L29.3757 37.082ZM6.72339 46.1938H0.321655V12.6807H25.9385V37.0796H6.73324L6.72339 46.1938Z" />
</svg>
