<svg width="30" height="41" viewBox="0 0 30 41" fill="none" xmlns="http://www.w3.org/2000/svg">
<path d="M2.39986 22.5578L14.5523 41L26.7048 22.5578C28.15 20.3639 28.9744 17.8196 29.0904 15.195C29.2065 12.5704 28.6098 9.96334 27.3638 7.65044C26.1178 5.33755 24.2689 3.4051 22.0133 2.05815C19.7577 0.711206 17.1795 0 14.5523 0C11.9251 0 9.34697 0.711206 7.09136 2.05815C4.83576 3.4051 2.98685 5.33755 1.74084 7.65044C0.494822 9.96334 -0.101826 12.5704 0.0142019 15.195C0.13023 17.8196 0.954606 20.3639 2.39986 22.5578ZM6.88856 6.88214C8.78801 4.99421 11.3192 3.87633 13.994 3.74404C16.6688 3.61174 19.2979 4.4744 21.3744 6.16568C23.4508 7.85696 24.8277 10.2571 25.2394 12.9034C25.6511 15.5496 25.0685 18.2546 23.604 20.4968L14.5523 34.2507L5.50064 20.4968C4.13874 18.4114 3.53355 15.9218 3.78616 13.4439C4.03876 10.9661 5.13386 8.64984 6.88856 6.88214Z" fill="#3C3C3B"/>
<path d="M14.5524 22.0147C16.0514 22.0147 17.5168 21.5702 18.7632 20.7375C20.0097 19.9048 20.9813 18.7212 21.5551 17.3363C22.129 15.9515 22.2794 14.4276 21.9873 12.9573C21.6951 11.487 20.9737 10.1364 19.914 9.07608C18.8544 8.01579 17.5041 7.29348 16.034 7.00047C14.5639 6.70746 13.0399 6.85691 11.6548 7.42993C10.2696 8.00294 9.0854 8.97379 8.25192 10.2197C7.41844 11.4657 6.97309 12.9308 6.97217 14.4298C6.9734 16.4403 7.77227 18.3681 9.19343 19.7901C10.6146 21.2121 12.5419 22.0122 14.5524 22.0147ZM14.5524 10.5631C15.3171 10.5631 16.0647 10.7899 16.7006 11.2148C17.3365 11.6397 17.8321 12.2435 18.1247 12.9501C18.4174 13.6566 18.494 14.4341 18.3448 15.1842C18.1956 15.9342 17.8273 16.6232 17.2865 17.164C16.7458 17.7047 16.0568 18.073 15.3067 18.2222C14.5567 18.3714 13.7792 18.2948 13.0727 18.0022C12.3661 17.7095 11.7622 17.2139 11.3373 16.578C10.9125 15.9422 10.6857 15.1946 10.6857 14.4298C10.6869 13.4047 11.0947 12.4219 11.8196 11.697C12.5444 10.9721 13.5272 10.5643 14.5524 10.5631Z" fill="#3C3C3B"/>
</svg>
