<svg width="60" height="48" viewBox="0 0 60 48" fill="none" xmlns="http://www.w3.org/2000/svg">
<path d="M14.858 41.9609V39.5691C14.8723 39.3679 14.8425 39.1661 14.7706 38.9771C14.6986 38.788 14.5862 38.6161 14.4408 38.4728C14.2954 38.3295 14.1203 38.218 13.9273 38.1458C13.7342 38.0736 13.5276 38.0424 13.3213 38.0542C13.0511 38.037 12.7812 38.0907 12.5396 38.2099C12.2981 38.3291 12.0937 38.5094 11.948 38.7319C11.8151 38.5161 11.625 38.3392 11.3977 38.2199C11.1704 38.1007 10.9143 38.0434 10.6564 38.0542C10.4316 38.0432 10.2078 38.0896 10.007 38.1888C9.8063 38.2881 9.63565 38.4369 9.512 38.6203V38.1499H8.66187V41.9609H9.52018V39.8641C9.50192 39.7337 9.51341 39.6011 9.55382 39.4756C9.59422 39.3501 9.66256 39.2349 9.75393 39.1381C9.84531 39.0414 9.95747 38.9655 10.0824 38.916C10.2073 38.8664 10.3419 38.8444 10.4766 38.8515C11.0406 38.8515 11.3267 39.2103 11.3267 39.8561V41.9768H12.185V39.8641C12.1675 39.7339 12.1795 39.6015 12.2202 39.4763C12.2609 39.3512 12.3293 39.2362 12.4205 39.1397C12.5117 39.0431 12.6235 38.9672 12.7481 38.9174C12.8727 38.8677 13.007 38.8451 13.1414 38.8515C13.7218 38.8515 13.9997 39.2103 13.9997 39.8561V41.9768L14.858 41.9609ZM27.557 38.1499H26.1591V36.9939H25.3008V38.1499H24.5243V38.9073H25.3172V40.6613C25.3172 41.5463 25.6687 42.0725 26.6741 42.0725C27.0498 42.0737 27.4181 41.9715 27.7368 41.7775L27.4916 41.0679C27.2636 41.2006 27.0048 41.2746 26.7395 41.2832C26.3308 41.2832 26.1755 41.0281 26.1755 40.6454V38.9073H27.5651L27.557 38.1499ZM34.8076 38.0542C34.6004 38.0483 34.3953 38.097 34.214 38.1952C34.0327 38.2934 33.882 38.4375 33.7777 38.6123V38.1499H32.9357V41.9609H33.7858V39.8242C33.7858 39.1943 34.0638 38.8435 34.6033 38.8435C34.7851 38.8411 34.9657 38.8736 35.1346 38.9392L35.3962 38.1419C35.202 38.0742 34.9975 38.0391 34.7913 38.0383L34.8076 38.0542ZM23.8458 38.4529C23.3646 38.1738 22.8113 38.0355 22.2518 38.0542C21.2627 38.0542 20.6169 38.5167 20.6169 39.2741C20.6169 39.8959 21.091 40.2786 21.9657 40.3982L22.3744 40.454C22.8403 40.5178 23.061 40.6374 23.061 40.8527C23.061 41.1477 22.7504 41.3151 22.17 41.3151C21.7032 41.3283 21.2454 41.1879 20.8703 40.9165L20.4616 41.5623C20.9568 41.8995 21.5499 42.0728 22.1537 42.0566C23.2818 42.0566 23.9357 41.5383 23.9357 40.8128C23.9357 40.0873 23.4207 39.7923 22.5706 39.6727L22.1619 39.6169C21.794 39.5691 21.4997 39.4973 21.4997 39.2422C21.4997 38.9871 21.7777 38.7957 22.2436 38.7957C22.6743 38.8006 23.0964 38.9131 23.4698 39.1226L23.8458 38.4529ZM46.6155 38.0542C46.4083 38.0483 46.2032 38.097 46.0219 38.1952C45.8406 38.2934 45.6899 38.4375 45.5856 38.6123V38.1499H44.7436V41.9609H45.5937V39.8242C45.5937 39.1943 45.8717 38.8435 46.4112 38.8435C46.593 38.8411 46.7736 38.8736 46.9425 38.9392L47.2041 38.1419C47.0099 38.0742 46.8054 38.0391 46.5992 38.0383L46.6155 38.0542ZM35.6619 40.0474C35.6518 40.3152 35.6991 40.5822 35.8008 40.8311C35.9025 41.0801 36.0564 41.3056 36.2526 41.4932C36.4488 41.6808 36.683 41.8264 36.9402 41.9207C37.1974 42.0149 37.472 42.0558 37.7463 42.0406C38.2568 42.0659 38.7584 41.9038 39.1523 41.5862L38.7436 40.9165C38.4497 41.135 38.0914 41.2553 37.7218 41.2593C37.4076 41.2345 37.1144 41.0952 36.9007 40.8692C36.6869 40.6432 36.5682 40.3469 36.5682 40.0395C36.5682 39.732 36.6869 39.4357 36.9007 39.2097C37.1144 38.9837 37.4076 38.8444 37.7218 38.8196C38.0914 38.8236 38.4497 38.9439 38.7436 39.1625L39.1523 38.4927C38.7584 38.1751 38.2568 38.013 37.7463 38.0383C37.472 38.0231 37.1974 38.064 36.9402 38.1583C36.683 38.2525 36.4488 38.3981 36.2526 38.5857C36.0564 38.7734 35.9025 38.9988 35.8008 39.2478C35.6991 39.4968 35.6518 39.7637 35.6619 40.0315V40.0474ZM43.6237 40.0474V38.1499H42.7736V38.6123C42.6292 38.4311 42.4427 38.286 42.2295 38.189C42.0163 38.092 41.7825 38.0458 41.5474 38.0542C41.0054 38.0542 40.4856 38.2642 40.1024 38.638C39.7191 39.0118 39.5038 39.5188 39.5038 40.0474C39.5038 40.5761 39.7191 41.083 40.1024 41.4568C40.4856 41.8306 41.0054 42.0406 41.5474 42.0406C41.7825 42.0491 42.0163 42.0029 42.2295 41.9058C42.4427 41.8088 42.6292 41.6637 42.7736 41.4825V41.9449H43.6237V40.0474ZM40.4602 40.0474C40.4738 39.8231 40.5543 39.6075 40.6919 39.4273C40.8295 39.247 41.0181 39.11 41.2345 39.0329C41.451 38.9559 41.6858 38.9423 41.91 38.9938C42.1343 39.0453 42.3382 39.1596 42.4967 39.3227C42.6552 39.4858 42.7613 39.6906 42.802 39.9118C42.8427 40.133 42.8162 40.3609 42.7257 40.5676C42.6352 40.7742 42.4848 40.9506 42.2929 41.0749C42.1009 41.1992 41.8759 41.2661 41.6455 41.2673C41.4837 41.2693 41.3232 41.2386 41.1741 41.1771C41.025 41.1157 40.8906 41.0248 40.7793 40.9103C40.6679 40.7957 40.5821 40.6599 40.5272 40.5114C40.4723 40.3629 40.4495 40.2049 40.4602 40.0474ZM30.2014 38.0542C29.6594 38.0616 29.1426 38.2787 28.7647 38.6578C28.3868 39.0368 28.1788 39.5467 28.1864 40.0753C28.194 40.604 28.4166 41.108 28.8052 41.4766C29.1938 41.8451 29.7166 42.048 30.2586 42.0406C30.8466 42.0701 31.4249 41.8854 31.8812 41.5224L31.4725 40.9085C31.1497 41.1609 30.7499 41.3012 30.3362 41.3071C30.0552 41.3307 29.7759 41.2464 29.5576 41.0722C29.3393 40.898 29.1993 40.6476 29.1673 40.3743H32.0692C32.0692 40.2707 32.0692 40.167 32.0692 40.0554C32.0692 38.8595 31.309 38.0622 30.2136 38.0622L30.2014 38.0542ZM30.2014 38.7957C30.3286 38.7931 30.4551 38.8149 30.5737 38.8599C30.6922 38.905 30.8005 38.9724 30.8924 39.0583C30.9842 39.1441 31.0578 39.2468 31.109 39.3605C31.1601 39.4741 31.1878 39.5965 31.1905 39.7205H29.1469C29.1617 39.4646 29.2786 39.2246 29.4726 39.0517C29.6667 38.8789 29.9224 38.787 30.185 38.7957H30.2014ZM51.4997 40.0554V36.6191H50.6823V38.6123C50.5379 38.4311 50.3514 38.286 50.1382 38.189C49.925 38.092 49.6912 38.0458 49.4561 38.0542C48.9141 38.0542 48.3943 38.2642 48.0111 38.638C47.6278 39.0118 47.4125 39.5188 47.4125 40.0474C47.4125 40.5761 47.6278 41.083 48.0111 41.4568C48.3943 41.8306 48.9141 42.0406 49.4561 42.0406C49.6912 42.0491 49.925 42.0029 50.1382 41.9058C50.3514 41.8088 50.5379 41.6637 50.6823 41.4825V41.9449H51.4997V40.0554ZM52.918 41.4068C52.9711 41.4061 53.0239 41.4156 53.0733 41.4347C53.1202 41.4534 53.1632 41.4804 53.2 41.5144C53.2359 41.5488 53.265 41.5893 53.2858 41.634C53.3065 41.6806 53.3172 41.7308 53.3172 41.7815C53.3172 41.8322 53.3065 41.8824 53.2858 41.929C53.265 41.9737 53.2359 42.0142 53.2 42.0486C53.1632 42.0826 53.1202 42.1096 53.0733 42.1283C53.0244 42.1494 52.9715 42.1602 52.918 42.1602C52.8405 42.1596 52.7648 42.1376 52.6997 42.0967C52.6345 42.0557 52.5827 41.9976 52.5501 41.929C52.5297 41.8824 52.5191 41.8322 52.5191 41.7815C52.5191 41.7308 52.5297 41.6806 52.5501 41.634C52.571 41.5893 52.6001 41.5488 52.636 41.5144C52.6728 41.4804 52.7157 41.4534 52.7627 41.4347C52.8159 41.414 52.873 41.4045 52.9303 41.4068H52.918ZM52.918 42.0805C52.9588 42.0807 52.9992 42.0726 53.0365 42.0566C53.0717 42.0413 53.1036 42.0196 53.1305 41.9928C53.1817 41.9384 53.21 41.8673 53.21 41.7935C53.21 41.7197 53.1817 41.6485 53.1305 41.5941C53.1036 41.5672 53.0717 41.5456 53.0365 41.5304C52.9991 41.5145 52.9588 41.5063 52.918 41.5064C52.8772 41.5067 52.8369 41.5148 52.7995 41.5304C52.7627 41.545 52.7294 41.5667 52.7014 41.5941C52.6502 41.6485 52.6219 41.7197 52.6219 41.7935C52.6219 41.8673 52.6502 41.9384 52.7014 41.9928C52.7295 42.0201 52.7628 42.0418 52.7995 42.0566C52.8407 42.0739 52.8854 42.0821 52.9303 42.0805H52.918ZM52.9425 41.6061C52.9807 41.6043 53.0183 41.6156 53.0488 41.638C53.0613 41.6481 53.0712 41.661 53.0776 41.6755C53.084 41.6901 53.0867 41.7059 53.0856 41.7217C53.0862 41.7349 53.0839 41.7482 53.079 41.7605C53.0741 41.7729 53.0666 41.7841 53.057 41.7935C53.0333 41.8144 53.003 41.8271 52.9711 41.8293L53.0897 41.9609H52.9956L52.8853 41.8293H52.8485V41.9609H52.7709V41.6101L52.9425 41.6061ZM52.8526 41.6739V41.7695H52.9425C52.9585 41.7742 52.9756 41.7742 52.9916 41.7695C52.9944 41.764 52.9959 41.7578 52.9959 41.7516C52.9959 41.7454 52.9944 41.7392 52.9916 41.7337C52.9944 41.7281 52.9959 41.722 52.9959 41.7157C52.9959 41.7095 52.9944 41.7034 52.9916 41.6978C52.9756 41.6931 52.9585 41.6931 52.9425 41.6978L52.8526 41.6739ZM48.3567 40.0554C48.3702 39.8311 48.4508 39.6155 48.5883 39.4353C48.7259 39.255 48.9145 39.1179 49.131 39.0409C49.3474 38.9639 49.5822 38.9503 49.8065 39.0018C50.0308 39.0533 50.2347 39.1676 50.3932 39.3307C50.5517 39.4938 50.6578 39.6986 50.6985 39.9197C50.7392 40.1409 50.7126 40.3689 50.6222 40.5756C50.5317 40.7822 50.3812 40.9586 50.1893 41.0829C49.9974 41.2072 49.7724 41.2741 49.542 41.2752C49.3801 41.2772 49.2196 41.2465 49.0706 41.1851C48.9215 41.1237 48.787 41.0328 48.6757 40.9182C48.5644 40.8037 48.4786 40.6678 48.4237 40.5194C48.3688 40.3709 48.346 40.2129 48.3567 40.0554ZM19.6523 40.0554V38.1499H18.8022V38.6123C18.6578 38.4311 18.4713 38.286 18.2581 38.189C18.0449 38.092 17.8111 38.0458 17.576 38.0542C17.034 38.0542 16.5142 38.2642 16.131 38.638C15.7477 39.0118 15.5324 39.5188 15.5324 40.0474C15.5324 40.5761 15.7477 41.083 16.131 41.4568C16.5142 41.8306 17.034 42.0406 17.576 42.0406C17.8111 42.0491 18.0449 42.0029 18.2581 41.9058C18.4713 41.8088 18.6578 41.6637 18.8022 41.4825V41.9449H19.6523V40.0554ZM16.4888 40.0554C16.5024 39.8311 16.5829 39.6155 16.7205 39.4353C16.8581 39.255 17.0467 39.1179 17.2631 39.0409C17.4796 38.9639 17.7144 38.9503 17.9387 39.0018C18.1629 39.0533 18.3669 39.1676 18.5253 39.3307C18.6838 39.4938 18.7899 39.6986 18.8306 39.9197C18.8713 40.1409 18.8448 40.3689 18.7543 40.5756C18.6639 40.7822 18.5134 40.9586 18.3215 41.0829C18.1295 41.2072 17.9045 41.2741 17.6741 41.2752C17.5116 41.2783 17.3502 41.2485 17.2002 41.1875C17.0501 41.1266 16.9147 41.0359 16.8025 40.9212C16.6902 40.8065 16.6037 40.6703 16.5483 40.5213C16.4929 40.3722 16.4699 40.2136 16.4807 40.0554H16.4888Z" fill="#808080"/>
<path d="M36.4367 9.10864H23.562V31.6755H36.4367V9.10864Z" fill="#C9C9C9"/>
<path d="M24.3792 20.3942C24.3768 18.2206 24.8816 16.0749 25.8553 14.1196C26.8289 12.1644 28.246 10.4508 29.9991 9.10879C27.8284 7.44496 25.2216 6.41032 22.4766 6.12313C19.7316 5.83593 16.9591 6.30777 14.476 7.4847C11.9929 8.66164 9.89939 10.4962 8.43473 12.7787C6.97007 15.0612 6.19336 17.6996 6.19336 20.3922C6.19336 23.0849 6.97007 25.7233 8.43473 28.0058C9.89939 30.2883 11.9929 32.1228 14.476 33.2998C16.9591 34.4767 19.7316 34.9485 22.4766 34.6613C25.2216 34.3741 27.8284 33.3395 29.9991 31.6757C28.2465 30.334 26.8298 28.6212 25.8562 26.6666C24.8825 24.7121 24.3775 22.5672 24.3792 20.3942Z" fill="#BABABA"/>
<path d="M53.8077 20.3942C53.8076 23.0871 53.0307 25.7256 51.5658 28.0082C50.1009 30.2907 48.007 32.1253 45.5236 33.302C43.0402 34.4788 40.2675 34.9503 37.5223 34.6627C34.7771 34.3751 32.1703 33.34 29.9998 31.6756C31.7516 30.3328 33.168 28.6194 34.1419 26.6648C35.1158 24.7102 35.6218 22.5654 35.6218 20.3922C35.6218 18.219 35.1158 16.0742 34.1419 14.1196C33.168 12.1649 31.7516 10.4516 29.9998 9.10874C32.1703 7.44439 34.7771 6.40925 37.5223 6.12164C40.2675 5.83404 43.0402 6.30557 45.5236 7.48234C48.007 8.6591 50.1009 10.4936 51.5658 12.7762C53.0307 15.0588 53.8076 17.6973 53.8077 20.3902V20.3942Z" fill="#D8D8D8"/>
<path d="M52.4015 29.2837V28.8213H52.5935V28.7256H52.1072V28.8213H52.3156V29.2837H52.4015ZM53.3456 29.2837V28.7256H53.1984L53.0268 29.1242L52.8551 28.7256H52.7243V29.2837H52.8306V28.8651L52.99 29.2279H53.1004L53.2597 28.8651V29.2877L53.3456 29.2837Z" fill="#D8D8D8"/>
</svg>
