<svg width="62" height="18" viewBox="0 0 62 18" fill="none" xmlns="http://www.w3.org/2000/svg">
<path fill-rule="evenodd" clip-rule="evenodd" d="M55.0405 0H43.2732C43.9058 3.98571 47.7018 7.71429 51.8773 7.71429H61.2405C61.3671 7.32857 61.3671 6.81429 61.3671 6.42857C61.3671 2.82857 58.5834 0 55.0405 0Z" fill="#ACACAC"/>
<path fill-rule="evenodd" clip-rule="evenodd" d="M44.2856 8.35718V18H49.9795V12.8572H55.0407C57.8244 12.8572 60.2285 10.9286 60.9877 8.35718H44.2856Z" fill="#B4B4B4"/>
<path fill-rule="evenodd" clip-rule="evenodd" d="M24.0408 0V18H29.102C29.102 18 30.3673 18 31 16.7143C34.4163 9.77143 35.4285 7.71429 35.4285 7.71429H36.0612V18H41.7551V0H36.6938C36.6938 0 35.4285 0.128571 34.7959 1.28571C31.8857 7.2 30.3673 10.2857 30.3673 10.2857H29.7346V0H24.0408Z" fill="#B4B4B4"/>
<path fill-rule="evenodd" clip-rule="evenodd" d="M0 18V0H5.69388C5.69388 0 7.33878 0 8.22449 2.57143C10.502 9.38571 10.7551 10.2857 10.7551 10.2857C10.7551 10.2857 11.2612 8.61429 13.2857 2.57143C14.1714 0 15.8163 0 15.8163 0H21.5102V18H15.8163V8.35714H15.1837L12.0204 18H9.4898L6.32653 8.35714H5.69388V18H0Z" fill="#B4B4B4"/>
</svg>
