<svg width="48" height="54" viewBox="0 0 48 54" fill="none" xmlns="http://www.w3.org/2000/svg">
<path d="M24.4305 1.51025L24.1709 1.59779L2.70706 10.0015L2.25269 10.1985L2.27432 10.7018C3.40823 29.8701 12.0505 45.0105 24.0843 51.8889L24.4305 52.0858L24.7767 51.8889C36.8105 45.0105 45.4528 29.8701 46.5867 10.7018L46.6084 10.1985L46.154 10.0015L24.6902 1.59779L24.4305 1.51025ZM24.4305 3.0203L45.1371 11.1176C43.9148 29.4623 35.6634 43.8012 24.4305 50.4226C13.1976 43.8012 4.94621 29.4623 3.724 11.1176L24.4305 3.0203ZM32.9338 17.88L21.661 29.9604L16.6196 24.8612L15.6243 25.8679L21.1633 31.4704L21.6826 31.9738L22.1586 31.4485L33.9291 18.8429L32.9338 17.88Z" fill="white" stroke="white" stroke-width="2.5"/>
</svg>
