<svg width="61" height="50" viewBox="0 0 61 50" fill="none" xmlns="http://www.w3.org/2000/svg">
<path d="M30.6544 48.8418C21.1808 48.8418 11.7101 48.1133 8.13125 46.6562C7.89529 46.5603 7.70525 46.3767 7.59948 46.1428C5.38407 41.2558 3.74226 39.6245 2.75486 39.1182C1.6425 38.5463 1.08052 37.8283 1.084 36.9863C1.08749 36.1069 1.72038 35.3433 2.96524 34.7165C3.45633 34.4721 4.05493 34.6697 4.30076 35.1644C4.5466 35.6591 4.34726 36.2601 3.85559 36.5081C3.43134 36.7209 3.22677 36.8904 3.13319 36.9875C3.21282 37.0635 3.36915 37.184 3.66031 37.3337C5.47821 38.268 7.30481 40.7565 9.23778 44.936C16.4762 47.4888 44.832 47.4888 52.071 44.936C54.004 40.7577 55.83 38.2692 57.6479 37.3337C57.9396 37.184 58.0954 37.0635 58.1756 36.9863C58.0814 36.8893 57.878 36.7209 57.4538 36.5081C56.9621 36.2601 56.7633 35.6591 57.0086 35.1644C57.2539 34.6709 57.8513 34.4709 58.3441 34.7165C59.589 35.3433 60.2213 36.1069 60.2248 36.9863C60.2283 37.8283 59.6669 38.5463 58.5545 39.1182C57.7455 39.5333 56.0415 40.9986 53.7099 46.1428C53.6041 46.3767 53.4135 46.5603 53.1775 46.6562C49.5999 48.1133 40.1257 48.8418 30.6544 48.8418Z" fill="white" stroke="white" stroke-width="1.5"/>
<path d="M3.41082 36.6134C2.86104 36.6134 2.41528 36.1655 2.41528 35.6124V30.7921C2.41528 29.2298 3.67931 27.9586 5.23276 27.9586H6.00861C6.55839 27.9586 7.00414 28.4065 7.00414 28.9596C7.00414 29.5128 6.55839 29.9606 6.00861 29.9606H5.23276C4.78469 29.9606 4.40635 30.3419 4.40635 30.7921V35.6124C4.40635 36.1655 3.9606 36.6134 3.41082 36.6134Z" fill="white" stroke="white" stroke-width="1.5"/>
<path d="M54.4911 37.1898C53.9413 37.1898 53.4961 36.7419 53.4961 36.1888C53.4961 19.8223 48.7143 10.3757 38.8798 7.30895C38.3544 7.14523 38.0603 6.58391 38.2231 6.05592C38.3858 5.52793 38.946 5.23383 39.4679 5.39579C50.2474 8.75668 55.486 18.8289 55.486 36.1888C55.486 36.7419 55.0408 37.1898 54.4911 37.1898Z" fill="white" stroke="white" stroke-width="1.5"/>
<path d="M57.8995 36.6134C57.3497 36.6134 56.9045 36.1655 56.9045 35.6124V30.7921C56.9045 30.3571 56.5093 29.9606 56.0769 29.9606H55.2679C54.7181 29.9606 54.2729 29.5128 54.2729 28.9596C54.2729 28.4065 54.7181 27.9586 55.2679 27.9586H56.0769C57.6042 27.9586 58.8944 29.2555 58.8944 30.7921V35.6124C58.8944 36.1655 58.4492 36.6134 57.8995 36.6134Z" fill="white" stroke="white" stroke-width="1.5"/>
<path d="M6.78541 37.1898C6.73601 37.1898 6.68603 37.1863 6.63548 37.1793C5.51212 37.0074 4.35565 36.8028 3.23288 36.5981C2.69183 36.4987 2.33326 35.9772 2.43148 35.4334C2.52969 34.8884 3.0504 34.5329 3.58854 34.6265C4.69271 34.8288 5.82943 35.0311 6.93303 35.1983C7.4764 35.2814 7.85065 35.7924 7.76813 36.3385C7.69374 36.8343 7.26951 37.1898 6.78541 37.1898Z" fill="white" stroke="white" stroke-width="1.5"/>
<path d="M34.4506 18.0126H26.8595C25.9331 18.0126 25.1056 17.6132 24.5302 16.8888C23.9479 16.207 23.7271 15.3077 23.931 14.3839L26.2225 3.29678C26.523 1.88589 27.7277 0.904175 29.1539 0.904175H32.1562C33.5823 0.904175 34.7876 1.88589 35.0863 3.29093L37.3819 14.3968C37.5377 15.3276 37.3215 16.1965 36.7845 16.8835C36.2045 17.6132 35.3769 18.0126 34.4506 18.0126ZM29.1539 2.90736C28.6681 2.90736 28.2729 3.23012 28.1706 3.71074L25.8773 14.8049C25.8059 15.1282 25.8657 15.3802 26.0627 15.6118C26.2865 15.8919 26.5323 16.0094 26.8595 16.0094H34.4506C34.7772 16.0094 35.0236 15.8919 35.2247 15.6387C35.4153 15.3949 35.4827 15.1078 35.4257 14.7651L33.1395 3.7049C33.0383 3.23012 32.642 2.90737 32.1562 2.90737H29.1539V2.90736Z" fill="white" stroke="white" stroke-width="1.5"/>
<path d="M21.058 12.6154C20.9906 12.6154 20.9226 12.6083 20.854 12.5943C20.3159 12.4815 19.9706 11.9511 20.0822 11.4097L21.4317 4.89249C21.7368 3.45878 22.9143 2.49927 24.3631 2.49927H27.1975C27.7473 2.49927 28.1931 2.94774 28.1931 3.50088C28.1931 4.05402 27.7473 4.50249 27.1975 4.50249H24.3631C23.8622 4.50249 23.485 4.81005 23.3798 5.30588L22.0315 11.8178C21.9333 12.2903 21.5195 12.6154 21.058 12.6154Z" fill="white" stroke="white" stroke-width="1.5"/>
<path d="M40.2522 12.6154C39.7907 12.6154 39.3769 12.2903 39.2793 11.8178L37.9298 5.30062C37.8275 4.82583 37.4323 4.50249 36.9464 4.50249H34.1126C33.5629 4.50249 33.1177 4.05402 33.1177 3.50088C33.1177 2.94774 33.5629 2.49927 34.1126 2.49927H36.9464C38.3715 2.49927 39.5757 3.481 39.8767 4.88606L41.2274 11.4097C41.3401 11.9511 40.9949 12.4815 40.4567 12.5943C40.3882 12.6083 40.3196 12.6154 40.2522 12.6154Z" fill="white" stroke="white" stroke-width="1.5"/>
<path d="M6.78388 37.1898C6.23409 37.1898 5.78833 36.7419 5.78833 36.1888C5.78833 18.8254 11.0398 8.75264 21.842 5.39584C22.3651 5.23504 22.9242 5.52798 23.0863 6.05714C23.2485 6.58514 22.9544 7.14587 22.429 7.309C12.5712 10.3729 7.77943 19.8194 7.77943 36.1888C7.77943 36.7419 7.33367 37.1898 6.78388 37.1898Z" fill="white" stroke="white" stroke-width="1.5"/>
<path d="M54.4904 37.1898C54.0046 37.1898 53.5792 36.832 53.5071 36.3338C53.4269 35.7876 53.8035 35.2789 54.3474 35.1982C55.3342 35.052 56.2966 34.8801 57.2775 34.7059L57.7262 34.6264C58.2794 34.5293 58.7838 34.8942 58.8792 35.438C58.9745 35.9829 58.613 36.5022 58.0725 36.5981L57.6251 36.6776C56.6243 36.8565 55.6434 37.0308 54.6357 37.1793C54.5869 37.1863 54.538 37.1898 54.4904 37.1898Z" fill="white" stroke="white" stroke-width="1.5"/>
<path d="M30.654 40.6396C24.217 40.6396 17.7806 39.9228 11.5226 38.489C10.9867 38.3663 10.6508 37.8295 10.7728 37.2904C10.8949 36.7513 11.4296 36.4168 11.9642 36.5361C24.1909 39.3381 37.116 39.3392 49.3438 36.5361C49.8796 36.4203 50.412 36.7513 50.5352 37.2904C50.6572 37.8295 50.3213 38.3663 49.7855 38.489C43.5275 39.9228 37.0905 40.6396 30.654 40.6396Z" fill="white" stroke="white" stroke-width="1.5"/>
</svg>
