<svg width="72" height="62" viewBox="0 0 72 62" fill="none" xmlns="http://www.w3.org/2000/svg">
<path d="M13.8945 1.80591V21.0472L23.5654 26.2352V16.3125C23.5654 15.767 24.2333 15.3436 24.7239 15.5821L46.1308 26.2856V16.3125C46.1308 15.767 46.7988 15.3436 47.2893 15.5821L69.8547 26.8649C70.1265 26.9971 70.3101 27.293 70.308 27.5952V59.8313C70.308 60.2533 69.9241 60.6371 69.5021 60.6372H1.80591C1.38393 60.6371 1.00008 60.2533 1 59.8313V1.80591C1.00008 1.38395 1.38393 1.00004 1.80591 1H13.0886C13.5941 1.00161 13.857 1.48948 13.8945 1.80591ZM12.2827 2.61181H2.61181V59.0254H68.6962V28.0737L47.7426 17.5969V27.5952C47.7297 28.1322 47.0672 28.5354 46.5841 28.3004L25.1772 17.5969V27.5952C25.1692 28.1459 24.48 28.5585 23.9935 28.3004L12.7108 22.2561C12.4558 22.1207 12.2851 21.8395 12.2827 21.5509V2.61181ZM60.6371 37.2658C61.0591 37.2659 61.443 37.6498 61.4431 38.0717V47.7427C61.443 48.1647 61.0591 48.5485 60.6371 48.5486H49.3545C48.9325 48.5485 48.5486 48.1647 48.5485 47.7427V38.0717C48.5486 37.6498 48.9325 37.2659 49.3545 37.2658H60.6371ZM41.2954 37.2658C41.7173 37.2659 42.1012 37.6498 42.1013 38.0717V47.7427C42.1012 48.1647 41.7173 48.5485 41.2954 48.5486H30.0127C29.5907 48.5485 29.2068 48.1647 29.2068 47.7427V38.0717C29.2068 37.6498 29.5907 37.2659 30.0127 37.2658H41.2954ZM21.9536 37.2658C22.3756 37.2659 22.7594 37.6498 22.7595 38.0717V47.7427C22.7594 48.1647 22.3756 48.5485 21.9536 48.5486H10.6709C10.2489 48.5485 9.86506 48.1647 9.86498 47.7427V38.0717C9.86506 37.6498 10.2489 37.2659 10.6709 37.2658H21.9536ZM59.8312 38.8776H50.1604V46.9368H59.8312V38.8776ZM40.4895 38.8776H30.8186V46.9368H40.4895V38.8776ZM21.1477 38.8776H11.4768V46.9368H21.1477V38.8776Z" fill="white" stroke="white" stroke-width="2"/>
</svg>
