<svg width="57" height="55" viewBox="0 0 57 55" fill="none" xmlns="http://www.w3.org/2000/svg">
<path d="M21.7139 1.59997C21.6731 1.6067 21.6332 1.61808 21.595 1.63388L2.57263 10.3827C2.26671 10.5227 2.16649 10.9812 2.3858 11.2374L8.60204 18.5509L2.3858 25.8473C2.16675 26.1035 2.26692 26.5616 2.57263 26.7017L8.77188 29.5553V43.6943C8.77352 43.903 8.90506 44.105 9.09459 44.1898L28.6435 52.9386C28.782 53.0006 28.9466 53.0006 29.0851 52.9386L48.6679 44.1898C48.8574 44.105 48.989 43.903 48.9906 43.6943V29.5553L55.1899 26.7017C55.4956 26.5616 55.5958 26.1035 55.3767 25.8473L49.1605 18.5509L55.3767 11.2374C55.5958 10.9812 55.4956 10.523 55.1899 10.383L36.1675 1.63415C36.0716 1.59374 35.9641 1.58181 35.8618 1.60024C35.745 1.62157 35.6358 1.68263 35.5561 1.77112L28.8813 8.99888L22.2064 1.77085C22.0845 1.63616 21.8925 1.56955 21.7139 1.59997ZM21.6969 2.79611L27.9641 9.59698L9.45128 17.8844L3.67663 11.0836L21.6969 2.79611ZM36.0656 2.79611L54.0859 11.0836L48.3113 17.8844L29.7984 9.59698L36.0656 2.79611ZM28.8813 10.4001L47.1054 18.5509L28.8813 26.6846L10.6571 18.5509L28.8813 10.4001ZM9.45126 19.2002L27.9641 27.4878L21.6969 34.2886L3.67661 26.0011L9.45126 19.2002ZM48.3112 19.2002L54.0859 26.0011L36.0656 34.2886L29.7984 27.4878L48.3112 19.2002ZM28.3378 28.6668V51.5888L9.85888 43.3184V30.0509L21.595 35.4506C21.8003 35.5368 22.0567 35.4795 22.2064 35.3139L28.3378 28.6668ZM29.4247 28.6668L35.5561 35.3139C35.7058 35.4795 35.9622 35.5368 36.1675 35.4506L47.9036 30.0509V43.3184L29.4247 51.5716V28.6668Z" fill="white" stroke="white" stroke-width="3"/>
</svg>
