<svg width="52" height="52" viewBox="0 0 52 52" fill="none" xmlns="http://www.w3.org/2000/svg">
<path d="M25.9366 1.50195C22.8806 1.50195 19.9623 2.07339 17.2693 3.10879C16.1431 2.88221 15.0216 2.74482 13.9387 2.71688C10.672 2.63259 7.70996 3.47717 5.68043 5.51905C2.97769 8.23823 2.34628 12.7089 3.2458 17.2568C2.2272 19.9541 1.64868 22.8601 1.64868 25.9181C1.64868 28.976 2.2272 31.9016 3.2458 34.5989C2.34604 39.1471 2.97753 43.6173 5.68043 46.3367C8.38647 49.0592 12.7588 49.6821 17.2888 48.7665C19.9752 49.7961 22.8897 50.3538 25.9366 50.3538C28.9818 50.3538 31.8937 49.795 34.5844 48.7665C34.5909 48.7666 34.5974 48.7666 34.6039 48.7665C34.6104 48.7666 34.6169 48.7666 34.6233 48.7665C39.1534 49.6821 43.5256 49.0592 46.2317 46.3367C48.9227 43.6293 49.5681 39.1852 48.6858 34.6577C49.7234 31.945 50.3024 28.9971 50.3024 25.9181C50.3024 22.839 49.7234 19.9107 48.6858 17.198C49.5675 12.6712 48.9223 8.22603 46.2317 5.51905C44.2022 3.47717 41.2401 2.63259 37.9734 2.71688C36.8845 2.74497 35.7558 2.8799 34.6233 3.10879C31.9214 2.07049 28.997 1.50195 25.9366 1.50195ZM25.9366 2.75607C26.9052 2.75607 27.8622 2.81633 28.7997 2.93243V8.53677C28.7985 8.61986 28.8138 8.70236 28.8446 8.77947C28.8754 8.85658 28.9211 8.92676 28.9791 8.98593C29.0371 9.04511 29.1062 9.0921 29.1824 9.12417C29.2586 9.15624 29.3404 9.17276 29.423 9.17276C29.5056 9.17276 29.5873 9.15624 29.6635 9.12417C29.7397 9.0921 29.8088 9.04511 29.8668 8.98593C29.9248 8.92676 29.9706 8.85658 30.0013 8.77947C30.0321 8.70236 30.0474 8.61986 30.0462 8.53677V3.12839C39.5229 4.83191 46.9857 12.33 48.6663 21.8618L40.3106 21.8226C40.2782 21.82 40.2457 21.82 40.2133 21.8226C38.4426 15.5812 32.7277 11.0254 25.9561 11.0254C24.9809 11.0254 24.035 11.1189 23.1124 11.2997L23.1708 2.93243C24.0794 2.82338 24.9982 2.75607 25.9366 2.75607ZM21.9243 3.12839L21.8659 11.4957C21.8633 11.5283 21.8633 11.5611 21.8659 11.5937C15.6715 13.3811 11.134 19.1314 11.134 25.9377C11.134 26.9134 11.2483 27.8545 11.4262 28.779L3.08998 28.7398C2.98008 27.8188 2.91469 26.8688 2.91469 25.9181C2.91469 24.954 2.97702 24.0094 3.08998 23.0767H8.66042C8.74301 23.0779 8.82501 23.0625 8.90165 23.0315C8.9783 23.0005 9.04805 22.9545 9.10687 22.8962C9.16569 22.8379 9.21239 22.7683 9.24427 22.6917C9.27615 22.615 9.29257 22.5327 9.29257 22.4496C9.29257 22.3665 9.27615 22.2843 9.24427 22.2076C9.21239 22.1309 9.16569 22.0614 9.10687 22.0031C9.04805 21.9447 8.9783 21.8987 8.90165 21.8677C8.82501 21.8368 8.74301 21.8214 8.66042 21.8226H3.28475C4.97251 12.2835 12.4347 4.80309 21.9243 3.12839ZM13.1791 3.971C13.8106 3.95524 14.4617 3.98499 15.1268 4.04938C10.3908 6.42329 6.53326 10.3127 4.1807 15.0817C3.85817 11.5557 4.626 8.3631 6.5569 6.42045C8.1332 4.83456 10.4808 4.03833 13.1791 3.971ZM37.9929 3.971C41.0032 3.89868 43.6356 4.69038 45.3552 6.42045C47.279 8.35597 48.0448 11.532 47.7314 15.0425C45.3631 10.2875 41.5063 6.4163 36.7658 4.04938C37.1791 4.00891 37.5918 3.98063 37.9929 3.971ZM25.9561 12.2795C33.4675 12.2795 39.5316 18.3806 39.5316 25.9377C39.5316 33.4948 33.4675 39.6154 25.9561 39.6154C18.4446 39.6154 12.3611 33.4948 12.3611 25.9377C12.3611 18.3806 18.4446 12.2795 25.9561 12.2795ZM40.5054 23.0767L48.8611 23.1159C48.9717 24.0362 49.0364 24.9673 49.0364 25.9181C49.0364 26.8821 48.9748 27.8455 48.8611 28.779H43.2517C43.1691 28.7778 43.0871 28.7932 43.0105 28.8242C42.9338 28.8552 42.8641 28.9012 42.8052 28.9595C42.7464 29.0179 42.6997 29.0874 42.6678 29.164C42.636 29.2407 42.6195 29.323 42.6195 29.4061C42.6195 29.4892 42.636 29.5714 42.6678 29.6481C42.6997 29.7248 42.7464 29.7943 42.8052 29.8526C42.8641 29.911 42.9338 29.957 43.0105 29.988C43.0871 30.019 43.1691 30.0343 43.2517 30.0331H48.6663C46.969 39.5771 39.4796 47.1143 29.9878 48.8057L30.0462 40.3012C36.2444 38.5063 40.7781 32.7467 40.7781 25.9377C40.7781 24.9619 40.6833 24.0002 40.5054 23.0767ZM3.28475 29.9939L11.6015 30.0331C11.6403 30.0368 11.6795 30.0368 11.7183 30.0331C13.4897 36.2832 19.1853 40.8891 25.9561 40.8891C26.9247 40.8891 27.8829 40.7943 28.7997 40.6147L28.7413 48.9821C27.8217 49.0944 26.8859 49.1584 25.9366 49.1584C24.978 49.1584 24.0398 49.0965 23.1124 48.9821V43.3385C23.1159 43.2475 23.0997 43.1568 23.0649 43.0728C23.0301 42.9887 22.9775 42.9133 22.9107 42.8517C22.844 42.7902 22.7648 42.744 22.6785 42.7164C22.5922 42.6888 22.501 42.6804 22.4112 42.6919C22.2564 42.7114 22.1144 42.7887 22.0134 42.9084C21.9125 43.0281 21.8598 43.1816 21.8659 43.3385V48.7861C12.3916 47.0779 4.95583 39.5421 3.28475 29.9939ZM4.1807 36.7936C6.53914 41.566 10.4206 45.4364 15.1658 47.8063C11.6424 48.1557 8.50954 47.3997 6.5569 45.4353C4.62246 43.489 3.85358 40.323 4.1807 36.7936ZM47.7314 36.8132C48.0539 40.3348 47.2861 43.4926 45.3552 45.4353C43.4026 47.3997 40.2698 48.1557 36.7463 47.8063C41.494 45.4401 45.3605 41.5735 47.7314 36.8132Z" fill="white" stroke="white" stroke-width="2"/>
</svg>
