<svg width="59" height="48" viewBox="0 0 59 48" fill="none" xmlns="http://www.w3.org/2000/svg">
<path d="M58.3496 0.813721H0.47998V47.2875H58.3496V0.813721ZM54.6715 4.5119V13.6341H4.15814V4.5119H54.6715ZM4.15814 43.5893V17.3322H54.6715V43.5893H4.15814Z" fill="white"/>
<path d="M9.92088 12.0323C11.546 12.0323 12.8634 10.7076 12.8634 9.07336C12.8634 7.43916 11.546 6.11438 9.92088 6.11438C8.29579 6.11438 6.97839 7.43916 6.97839 9.07336C6.97839 10.7076 8.29579 12.0323 9.92088 12.0323Z" fill="white"/>
<path d="M17.5216 12.0323C19.1467 12.0323 20.4641 10.7076 20.4641 9.07336C20.4641 7.43916 19.1467 6.11438 17.5216 6.11438C15.8965 6.11438 14.5791 7.43916 14.5791 9.07336C14.5791 10.7076 15.8965 12.0323 17.5216 12.0323Z" fill="white"/>
<path d="M25.4902 12.0323C27.1153 12.0323 28.4328 10.7076 28.4328 9.07336C28.4328 7.43916 27.1153 6.11438 25.4902 6.11438C23.865 6.11438 22.5476 7.43916 22.5476 9.07336C22.5476 10.7076 23.865 12.0323 25.4902 12.0323Z" fill="white"/>
<path d="M13.9659 22.6329L20.8932 30.2142L13.9659 37.7954L16.6633 40.2609L25.8587 30.2142L16.6633 20.1675L13.9659 22.6329Z" fill="white"/>
<path d="M45.0473 35.6998H26.4113V39.3976H45.0473V35.6998Z" fill="white"/>
</svg>
