<svg width="50" height="52" viewBox="0 0 50 52" fill="none" xmlns="http://www.w3.org/2000/svg">
<path d="M1.09912 49.8243C1.09912 49.4936 1.22402 48.5173 1.32508 48.0579C1.80742 45.8654 2.90117 43.892 4.49031 42.3471C6.20935 40.6759 8.24586 39.6621 10.6535 39.2791C11.4166 39.1577 13.1722 39.1577 13.9353 39.2791C16.343 39.6621 18.3795 40.6759 20.0986 42.3471C21.6877 43.892 22.7815 45.8654 23.2638 48.0579C23.3649 48.5173 23.4897 49.4936 23.4897 49.8243V50.0913H22.7635H22.0372L22.0046 49.7606C21.9425 49.1302 21.8311 48.4476 21.7148 47.9844C20.9042 44.7559 18.5118 42.1507 15.3951 41.1025C14.2813 40.7279 13.4293 40.5875 12.2701 40.5875C11.1109 40.5875 10.2589 40.7279 9.1451 41.1025C6.02841 42.1507 3.636 44.7559 2.82539 47.9844C2.70908 48.4476 2.5977 49.1302 2.53556 49.7606L2.50296 50.0913H1.80104H1.09912V49.8243ZM26.0209 49.8243C26.0209 49.4936 26.1458 48.5173 26.2468 48.0579C26.7292 45.8654 27.8229 43.892 29.412 42.3471C31.1311 40.6759 33.1676 39.6621 35.5753 39.2791C36.3384 39.1577 38.094 39.1577 38.8571 39.2791C41.2647 39.6621 43.3013 40.6759 45.0203 42.3471C46.6094 43.892 47.7032 45.8654 48.1855 48.0579C48.2866 48.5173 48.4115 49.4936 48.4115 49.8243V50.0913H47.6852H46.959L46.9264 49.7606C46.8642 49.1302 46.7529 48.4476 46.6365 47.9844C45.8259 44.7559 43.4335 42.1507 40.3168 41.1025C39.2031 40.7279 38.3511 40.5875 37.1918 40.5875C36.0326 40.5875 35.1806 40.7279 34.0668 41.1025C30.9502 42.1507 28.5577 44.7559 27.7471 47.9844C27.6308 48.4476 27.5194 49.1302 27.4573 49.7606L27.4247 50.0913H26.7228H26.0209V49.8243ZM11.5886 37.4925C10.4493 37.3492 9.28454 36.7691 8.45041 35.9295C6.32947 33.7944 6.32947 30.3254 8.45041 28.1904C10.5713 26.0554 14.0175 26.0554 16.1385 28.1904C17.5315 29.5927 18.0672 31.6733 17.5224 33.5657C16.7717 36.1734 14.2692 37.8295 11.5886 37.4925ZM13.3653 35.9813C14.4695 35.6636 15.3588 34.9244 15.8724 33.8974C16.1868 33.2686 16.2941 32.8074 16.2941 32.0844C16.2941 31.3615 16.1868 30.9002 15.8724 30.2715C15.3545 29.2357 14.4707 28.5055 13.341 28.18C13.0215 28.0879 12.8335 28.0677 12.2944 28.0677C11.5468 28.0677 11.1195 28.1624 10.5178 28.4615C9.48647 28.9741 8.68633 29.9705 8.39538 31.1044C8.25545 31.6498 8.25573 32.521 8.396 33.0644C8.78753 34.581 9.95168 35.7016 11.4973 36.0497C11.9657 36.1551 12.8769 36.1218 13.3653 35.9813H13.3653ZM36.5104 37.4925C35.371 37.3492 34.2063 36.7691 33.3721 35.9295C31.2512 33.7944 31.2512 30.3254 33.3721 28.1904C35.4931 26.0554 38.9393 26.0554 41.0602 28.1904C43.1811 30.3254 43.1811 33.7944 41.0602 35.9295C39.8681 37.1295 38.1949 37.7043 36.5104 37.4925ZM38.287 35.9813C39.3913 35.6636 40.2806 34.9244 40.7942 33.8974C41.1085 33.2686 41.2158 32.8074 41.2158 32.0844C41.2158 31.3615 41.1085 30.9002 40.7942 30.2715C40.2763 29.2357 39.3924 28.5055 38.2627 28.18C37.9433 28.0879 37.7552 28.0677 37.2162 28.0677C36.4685 28.0677 36.0412 28.1624 35.4395 28.4615C34.4082 28.9741 33.6081 29.9705 33.3171 31.1044C33.1772 31.6498 33.1775 32.521 33.3177 33.0644C33.7093 34.581 34.8734 35.7016 36.4191 36.0497C36.8874 36.1551 37.7987 36.1218 38.287 35.9813ZM1.09912 24.7372C1.09912 24.4065 1.22402 23.4301 1.32508 22.9707C1.80742 20.7783 2.90117 18.8049 4.49031 17.2599C6.20935 15.5887 8.24586 14.575 10.6535 14.192C11.4166 14.0706 13.1722 14.0706 13.9353 14.192C16.343 14.575 18.3795 15.5887 20.0986 17.2599C21.6877 18.8049 22.7815 20.7783 23.2638 22.9707C23.3649 23.4301 23.4897 24.4065 23.4897 24.7372V25.0042H22.7635H22.0372L22.0046 24.6734C21.9425 24.043 21.8311 23.3605 21.7148 22.8972C20.9042 19.6688 18.5118 17.0635 15.3951 16.0154C14.2813 15.6408 13.4293 15.5004 12.2701 15.5004C11.1109 15.5004 10.2589 15.6408 9.1451 16.0154C6.02841 17.0635 3.636 19.6688 2.82539 22.8972C2.70908 23.3605 2.5977 24.043 2.53556 24.6734L2.50296 25.0042H1.80104H1.09912V24.7372ZM26.0209 24.7372C26.0209 24.4065 26.1458 23.4301 26.2468 22.9707C26.7292 20.7783 27.8229 18.8049 29.412 17.2599C31.1311 15.5887 33.1676 14.575 35.5753 14.192C36.3384 14.0706 38.094 14.0706 38.8571 14.192C41.2647 14.575 43.3013 15.5887 45.0203 17.2599C46.6094 18.8049 47.7032 20.7783 48.1855 22.9707C48.2866 23.4301 48.4115 24.4065 48.4115 24.7372V25.0042H47.6852H46.959L46.9264 24.6734C46.8642 24.043 46.7529 23.3605 46.6365 22.8972C45.8259 19.6688 43.4335 17.0635 40.3168 16.0154C39.2031 15.6408 38.3511 15.5004 37.1918 15.5004C36.0326 15.5004 35.1806 15.6408 34.0668 16.0154C30.9502 17.0635 28.5577 19.6688 27.7471 22.8972C27.6308 23.3605 27.5194 24.043 27.4573 24.6734L27.4247 25.0042H26.7228H26.0209V24.7372ZM11.5886 12.4053C10.4493 12.2621 9.28454 11.682 8.45041 10.8423C6.32947 8.70728 6.32947 5.23822 8.45041 3.10321C10.5713 0.9682 14.0175 0.9682 16.1385 3.10321C17.5315 4.50551 18.0672 6.58611 17.5224 8.47854C16.7717 11.0863 14.2692 12.7424 11.5886 12.4053ZM13.3653 10.8941C14.4695 10.5765 15.3588 9.83728 15.8724 8.81019C16.1868 8.18147 16.2941 7.72022 16.2941 6.99725C16.2941 6.27429 16.1868 5.81303 15.8724 5.18431C15.3545 4.14856 14.4707 3.41832 13.341 3.09279C13.0215 3.00075 12.8335 2.98059 12.2944 2.98059C11.5468 2.98059 11.1195 3.07529 10.5178 3.37435C9.48647 3.88694 8.68633 4.88332 8.39538 6.01729C8.25545 6.56263 8.25573 7.43388 8.396 7.97722C8.78753 9.49381 9.95168 10.6144 11.4973 10.9625C11.9657 11.068 12.8769 11.0346 13.3653 10.8941H13.3653ZM36.5104 12.4053C35.371 12.2621 34.2063 11.682 33.3721 10.8423C31.2512 8.70728 31.2512 5.23822 33.3721 3.10321C35.4931 0.9682 38.9393 0.9682 41.0602 3.10321C42.4533 4.50551 42.9889 6.58611 42.4441 8.47854C41.6934 11.0863 39.1909 12.7424 36.5104 12.4053ZM38.287 10.8941C39.3913 10.5765 40.2806 9.83728 40.7942 8.81019C41.1085 8.18147 41.2158 7.72022 41.2158 6.99725C41.2158 6.27429 41.1085 5.81303 40.7942 5.18431C40.2763 4.14856 39.3924 3.41832 38.2627 3.09279C37.9433 3.00075 37.7552 2.98059 37.2162 2.98059C36.4685 2.98059 36.0412 3.07529 35.4395 3.37435C34.4082 3.88694 33.6081 4.88332 33.3171 6.01729C33.1772 6.56263 33.1775 7.43388 33.3177 7.97722C33.7093 9.49381 34.8734 10.6144 36.4191 10.9625C36.8874 11.068 37.7987 11.0346 38.287 10.8941Z" fill="white" stroke="white" stroke-width="2"/>
</svg>
