<svg width="50" height="51" viewBox="0 0 50 51" fill="none" xmlns="http://www.w3.org/2000/svg">
<path d="M25.0937 0.501953C11.4837 0.501953 0.45166 11.6011 0.45166 25.2939C0.45166 38.9867 11.4837 50.0858 25.0937 50.0858C38.7036 50.0858 49.7357 38.9867 49.7357 25.2939C49.7357 11.6011 38.7036 0.501953 25.0937 0.501953ZM25.0937 4.3161C36.5901 4.3161 45.9446 13.7275 45.9446 25.2939C45.9446 36.8603 36.5901 46.2717 25.0937 46.2717C13.5972 46.2717 4.24274 36.8603 4.24274 25.2939C4.24274 13.7275 13.5972 4.3161 25.0937 4.3161Z" fill="white"/>
<path d="M21.0741 34.7359L21.076 34.7378L37.171 18.5467L34.4888 15.8481L21.0741 29.3465L15.7003 23.9399L13.02 26.6365L21.0722 34.7378L21.0741 34.7359Z" fill="white"/>
</svg>
