<svg width="57" height="62" viewBox="0 0 57 62" fill="none" xmlns="http://www.w3.org/2000/svg">
<path d="M56.4563 29.4113C56.4563 29.312 56.4336 29.218 56.4009 29.128C56.3922 29.1033 56.3815 29.0813 56.3708 29.058C56.3328 28.976 56.2847 28.9007 56.2226 28.8347C56.2166 28.828 56.2146 28.8193 56.2079 28.8133L51.4364 24.048C51.3684 23.98 51.2883 23.936 51.2068 23.896V13.1667C51.2095 13.138 51.2235 13.1127 51.2235 13.0827C51.2235 12.7973 51.0827 12.5453 50.8657 12.392L39.708 1.248C39.7073 1.24733 39.7066 1.24733 39.7066 1.24667C39.6352 1.176 39.5524 1.124 39.4643 1.08333C39.4389 1.07133 39.4122 1.06467 39.3855 1.05533C39.3121 1.03 39.238 1.01467 39.1606 1.01C39.1419 1.00933 39.1265 1 39.1078 1H28.9434H28.8032H7.38817C6.92023 1 6.5404 1.37933 6.5404 1.84667V23.8953C6.45897 23.9353 6.37819 23.98 6.31077 24.0473L1.5386 28.8127C1.53193 28.8193 1.53059 28.828 1.52392 28.8347C1.46184 28.9007 1.41378 28.976 1.37573 29.0573C1.36438 29.0807 1.35437 29.1033 1.34569 29.1273C1.31298 29.218 1.29028 29.312 1.29028 29.4107V60.1533C1.29028 60.1647 1.29629 60.1733 1.29629 60.1847C1.29963 60.2833 1.31498 60.3827 1.35437 60.4773C1.35503 60.478 1.3557 60.4787 1.3557 60.48C1.35837 60.4873 1.36438 60.492 1.36705 60.4993C1.40577 60.5847 1.45783 60.6587 1.51925 60.7253C1.53927 60.7473 1.56197 60.764 1.584 60.784C1.63807 60.8313 1.69614 60.8707 1.76089 60.9027C1.78759 60.916 1.81296 60.93 1.841 60.9407C1.93578 60.9753 2.03391 61 2.13805 61H28.8032H28.9434H55.6085C55.7126 61 55.8108 60.9753 55.9042 60.94C55.9329 60.9293 55.9576 60.9153 55.9843 60.902C56.0484 60.87 56.1071 60.8307 56.1612 60.7833C56.1832 60.764 56.2059 60.7467 56.226 60.7247C56.2874 60.6587 56.3395 60.5847 56.3782 60.4993C56.3815 60.492 56.3868 60.4867 56.3902 60.4793C56.3909 60.4787 56.3915 60.478 56.3915 60.4767C56.4309 60.382 56.4463 60.2827 56.4496 60.184C56.4503 60.1727 56.4556 60.164 56.4556 60.1527V29.4113H56.4563ZM54.7607 31.0027V58.11L38.5505 41.92L54.7607 31.0027ZM54.2821 29.2833L51.2068 31.3547V26.212L54.2821 29.2833ZM39.9556 3.89L48.3124 12.236H39.9556V3.89ZM28.8032 2.69333H28.9434H38.2607V13.0827C38.2607 13.55 38.6406 13.9293 39.1085 13.9293H49.5113V32.4967L37.3289 40.7007L29.7397 33.1213C29.6997 32.9987 29.6403 32.8813 29.5421 32.784C29.3586 32.6007 29.1129 32.5293 28.8726 32.55C28.6323 32.53 28.3866 32.6007 28.2031 32.784C28.1056 32.8813 28.0455 32.9987 28.0055 33.1213L20.4177 40.7L8.23593 32.4967V2.69333H28.8032ZM2.98581 31.0027L19.1968 41.92L2.98581 58.11V31.0027ZM6.5404 26.212V31.3553L3.46443 29.284L6.5404 26.212ZM28.9434 59.3067H28.8032H4.18402L28.8733 34.6493L53.5619 59.3067H28.9434Z" fill="white" stroke="white"/>
<path d="M11.9156 20.3064H21.739C22.2069 20.3064 22.5868 19.9277 22.5868 19.4597V6.70506C22.5868 6.23773 22.2069 5.8584 21.739 5.8584H11.9156C11.4477 5.8584 11.0679 6.23773 11.0679 6.70506V19.4597C11.0679 19.9271 11.4477 20.3064 11.9156 20.3064ZM12.7634 7.55173H20.8919V18.6131H12.7634V7.55173Z" fill="white" stroke="white"/>
<path d="M20.7717 24.1777C20.7717 24.6451 21.1509 25.0244 21.6195 25.0244H35.9867C36.4547 25.0244 36.8345 24.6451 36.8345 24.1777C36.8345 23.7104 36.4547 23.3311 35.9867 23.3311H21.6195C21.1509 23.3311 20.7717 23.7097 20.7717 24.1777Z" fill="white" stroke="white"/>
<path d="M14.717 30.3428C14.717 30.8101 15.0962 31.1894 15.5648 31.1894H42.041C42.509 31.1894 42.8888 30.8101 42.8888 30.3428C42.8888 29.8754 42.5096 29.4961 42.041 29.4961H15.5641C15.0962 29.4961 14.717 29.8748 14.717 30.3428Z" fill="white" stroke="white"/>
</svg>
