<svg width="21" height="18" viewBox="0 0 21 18" fill="none" xmlns="http://www.w3.org/2000/svg">
<path d="M21 2.70295C20.2265 3.04489 19.399 3.27708 18.5239 3.37945C19.4192 2.8486 20.0973 2.00535 20.4226 1.00485C19.5887 1.4956 18.6658 1.85338 17.6815 2.04651C16.9017 1.21171 15.7818 0.691406 14.5389 0.691406C12.1582 0.691406 10.2309 2.6143 10.2309 4.98362C10.2309 5.31818 10.269 5.64534 10.3432 5.9609C6.76302 5.78149 3.58653 4.07389 1.46322 1.47555C1.09026 2.11089 0.880474 2.84754 0.880474 3.63485C0.880474 5.12188 1.64016 6.43687 2.79717 7.20835C2.09046 7.18408 1.42614 6.992 0.84551 6.67011C0.841271 6.68805 0.841271 6.70811 0.841271 6.72499C0.841271 8.80408 2.3278 10.5381 4.2996 10.9317C3.93618 11.0309 3.55686 11.0858 3.16377 11.0858C2.88723 11.0858 2.61705 11.0584 2.35429 11.0056C2.89995 12.7111 4.49243 13.9501 6.37735 13.987C4.90141 15.1363 3.04617 15.8234 1.02775 15.8234C0.679162 15.8234 0.335873 15.8012 0 15.7622C1.9061 16.9801 4.16927 17.6914 6.60409 17.6914C14.5252 17.6914 18.8629 11.1502 18.8629 5.47965C18.8629 5.29496 18.8629 5.1071 18.8491 4.92558C19.6904 4.3219 20.4226 3.5652 21 2.70295Z" fill="#95B03C"/>
</svg>
