<svg width="65" height="65" viewBox="0 0 65 65" fill="none" xmlns="http://www.w3.org/2000/svg">
<path d="M26.0265 22.8276L22.7231 42.2132H28.0064L31.3125 22.8276H26.0265Z" fill="#ABABAB"/>
<path d="M18.2929 22.8493L13.1184 36.0697L12.5667 34.0735C11.5461 31.6683 8.64904 28.2141 5.2478 26.0372L9.97937 42.2036L15.5697 42.1941L23.8901 22.8452L18.2929 22.8493Z" fill="#ABABAB"/>
<path d="M10.5611 24.2365C10.254 23.0557 9.36395 22.7037 8.25919 22.6616H0.0679433L0 23.0475C6.37444 24.5939 10.5924 28.3199 12.3426 32.8001L10.5611 24.2365Z" fill="#DBDBDB"/>
<path d="M42.0201 26.544C43.7486 26.5169 45.0015 26.8946 45.9744 27.286L46.4514 27.5102L47.1661 23.3086C46.1198 22.9159 44.4797 22.4946 42.4332 22.4946C37.2125 22.4946 33.5326 25.124 33.5041 28.8922C33.4701 31.6765 36.1254 33.231 38.131 34.1591C40.1897 35.1103 40.88 35.715 40.8705 36.5643C40.8542 37.862 39.229 38.4572 37.7112 38.4572C35.5954 38.4572 34.4716 38.1651 32.7363 37.4422L32.0556 37.1323L31.3123 41.4712C32.5488 42.0134 34.8304 42.4795 37.1989 42.5039C42.7526 42.5039 46.3617 39.9058 46.3997 35.8795C46.4229 33.6767 45.0137 31.9958 41.9603 30.6166C40.1123 29.717 38.9817 29.1191 38.9926 28.2114C38.9926 27.4056 39.9519 26.544 42.0201 26.544Z" fill="#ABABAB"/>
<path d="M60.7246 22.8494H56.6425C55.3747 22.8494 54.4317 23.1945 53.8745 24.4583L46.0298 42.2241H51.578C51.578 42.2241 52.483 39.8352 52.6882 39.312C53.2956 39.312 58.6863 39.3202 59.454 39.3202C59.6116 39.9969 60.0981 42.2241 60.0981 42.2241H64.9996L60.7246 22.8494ZM54.2088 35.3441C54.6436 34.2312 56.3137 29.9263 56.3137 29.9263C56.2851 29.9793 56.7444 28.8053 57.0176 28.0756L57.3736 29.747C57.3736 29.747 58.386 34.3753 58.5979 35.3441H54.2088Z" fill="#ABABAB"/>
</svg>
