<svg width="25" height="14" viewBox="0 0 25 14" fill="none" xmlns="http://www.w3.org/2000/svg">
<path d="M24.4014 12.6404C24.371 12.5754 24.345 12.5233 24.3176 12.4814C23.8913 11.7156 23.0777 10.7748 21.8783 9.65923L21.8523 9.63177L21.8393 9.62021L21.8263 9.60721H21.8147C21.2685 9.08698 20.9231 8.73872 20.7786 8.55954C20.5141 8.21994 20.4535 7.87313 20.5994 7.52487C20.7006 7.26042 21.0849 6.70407 21.7497 5.85148C22.0994 5.40062 22.3768 5.03936 22.5806 4.76624C24.0531 2.80818 24.6918 1.55531 24.4953 1.01052L24.4202 0.88335C24.3696 0.806762 24.2366 0.735954 24.0242 0.672371C23.8118 0.608788 23.5387 0.597227 23.2077 0.640579L19.5286 0.66659C19.4694 0.646359 19.3827 0.646359 19.2743 0.672371C19.163 0.698382 19.1081 0.711387 19.1081 0.711387L19.0431 0.743178L18.9925 0.782195C18.9506 0.806761 18.9029 0.851558 18.8523 0.915141C18.8017 0.978724 18.7584 1.05387 18.7252 1.13913C18.3249 2.16946 17.8682 3.12754 17.3581 4.01192C17.0417 4.54081 16.7526 4.9989 16.4882 5.38473C16.2238 5.77345 16.0027 6.05813 15.8235 6.24165C15.6457 6.42373 15.4839 6.57257 15.3394 6.68095C15.1934 6.79222 15.0836 6.83846 15.007 6.82257C14.9319 6.80523 14.8582 6.78789 14.7917 6.77055C14.6717 6.69396 14.5764 6.58991 14.5041 6.45841C14.4304 6.32691 14.3827 6.16073 14.3567 5.95986C14.3307 5.759 14.3163 5.58704 14.3119 5.44253C14.309 5.29802 14.3105 5.09282 14.3192 4.82982C14.3264 4.56538 14.3322 4.38619 14.3322 4.2937C14.3322 3.97001 14.3379 3.61886 14.3509 3.24025C14.364 2.86164 14.3755 2.56107 14.3827 2.33998C14.39 2.11888 14.3957 1.88478 14.3957 1.63767C14.3957 1.39201 14.3798 1.19837 14.3509 1.05676C14.322 0.916586 14.2758 0.78075 14.2166 0.647804C14.1559 0.516303 14.0677 0.413704 13.9521 0.341451C13.8379 0.269197 13.6963 0.211394 13.5258 0.168042C13.0735 0.0654426 12.4998 0.0105304 11.8019 0.00186005C10.2166 -0.0154807 9.19929 0.0885638 8.74843 0.308214C8.57068 0.403588 8.40739 0.530754 8.26288 0.692601C8.11115 0.88046 8.08948 0.983059 8.1993 0.998955C8.71085 1.07554 9.07212 1.25907 9.28599 1.54808L9.36258 1.70126C9.42183 1.81108 9.48252 2.00761 9.54032 2.28795C9.60101 2.56974 9.63859 2.88043 9.65593 3.22147C9.69783 3.84284 9.69783 4.37463 9.65593 4.81826C9.61402 5.26045 9.57356 5.60582 9.53454 5.85148C9.49697 6.09859 9.43917 6.29945 9.36258 6.45263C9.28599 6.60581 9.23397 6.69974 9.2094 6.73442C9.18339 6.76766 9.16171 6.78933 9.14582 6.798C9.03455 6.84135 8.91894 6.86158 8.80045 6.86158C8.68195 6.86158 8.53745 6.80234 8.36693 6.6824C8.19641 6.56246 8.01867 6.39916 7.83659 6.19107C7.65307 5.98298 7.44642 5.69108 7.21666 5.31536C6.98545 4.94109 6.74846 4.4989 6.50135 3.98735L6.29615 3.61741C6.16898 3.37898 5.99413 3.03216 5.77304 2.57552C5.55194 2.12033 5.35541 1.67958 5.18489 1.25329C5.11842 1.07554 5.01582 0.939707 4.87854 0.845778L4.8164 0.806762C4.77161 0.773525 4.70369 0.737398 4.6112 0.698381C4.51727 0.66081 4.42045 0.631909 4.31641 0.616013L0.817907 0.640579C0.459531 0.640579 0.21676 0.721503 0.0895941 0.881905L0.0375717 0.959938C0.0130056 1.00329 0 1.07121 0 1.16514C0 1.25907 0.0260113 1.37467 0.0765886 1.51051C0.588142 2.71136 1.14305 3.86885 1.74275 4.98444C2.3439 6.10004 2.86412 6.99886 3.30631 7.67949C3.74994 8.36156 4.2008 9.00317 4.66034 9.60721C5.12131 10.2112 5.42478 10.6 5.57362 10.7705C5.7239 10.9424 5.84095 11.0682 5.92621 11.1549L6.24413 11.4598C6.44933 11.6664 6.7499 11.9106 7.14585 12.1953C7.5418 12.48 7.9811 12.7618 8.46086 13.0378C8.94206 13.3138 9.50275 13.5407 10.1415 13.7155C10.7802 13.8904 11.403 13.9612 12.007 13.9251H13.4767C13.7758 13.9019 13.9998 13.8066 14.1544 13.6462L14.2035 13.584C14.2368 13.5306 14.27 13.454 14.2989 13.347C14.3278 13.2401 14.3437 13.1245 14.3437 12.9944C14.335 12.6303 14.3625 12.3008 14.4275 12.006C14.4911 11.7127 14.5634 11.4916 14.6428 11.3413C14.7252 11.1924 14.8148 11.0667 14.9189 10.9641C15.0186 10.863 15.0923 10.8008 15.1342 10.7777C15.1761 10.7575 15.2108 10.7445 15.2353 10.7344C15.4405 10.6664 15.6804 10.7329 15.9579 10.9338C16.2339 11.1346 16.4925 11.3803 16.7367 11.6751C16.9795 11.9684 17.2714 12.2994 17.6096 12.665C17.952 13.032 18.2483 13.3022 18.5041 13.4829L18.7598 13.6346C18.9304 13.7358 19.1515 13.8297 19.4246 13.9164C19.6962 14.0017 19.9361 14.0204 20.1384 13.9785L23.4086 13.928C23.7338 13.928 23.9837 13.8745 24.1629 13.7676C24.3421 13.6606 24.4462 13.545 24.4823 13.4178C24.5155 13.2907 24.517 13.1462 24.4881 12.9829C24.4606 12.8181 24.4303 12.7054 24.4014 12.6404Z" fill="#95B03C"/>
</svg>
